<?xml version="1.0" encoding="UTF-8" standalone="no"?>
<!-- Created with Inkscape (http://www.inkscape.org/) -->

<svg
   xmlns:dc="http://purl.org/dc/elements/1.1/"
   xmlns:cc="http://creativecommons.org/ns#"
   xmlns:rdf="http://www.w3.org/1999/02/22-rdf-syntax-ns#"
   xmlns:svg="http://www.w3.org/2000/svg"
   xmlns="http://www.w3.org/2000/svg"
   xmlns:sodipodi="http://sodipodi.sourceforge.net/DTD/sodipodi-0.dtd"
   xmlns:inkscape="http://www.inkscape.org/namespaces/inkscape"
   width="3000"
   height="1000"
   viewBox="0 0 3000 1000"
   version="1.1"
   id="svg8"
   inkscape:version="0.92.4 (5da689c313, 2019-01-14)"
   sodipodi:docname="Futuruum.svg">
  <defs
     id="defs2" />
  <sodipodi:namedview
     id="base"
     pagecolor="#ffffff"
     bordercolor="#666666"
     borderopacity="1.0"
     inkscape:pageopacity="0.0"
     inkscape:pageshadow="2"
     inkscape:zoom="0.24748737"
     inkscape:cx="2019.4249"
     inkscape:cy="411.48962"
     inkscape:document-units="px"
     inkscape:current-layer="layer1"
     showgrid="false"
     units="px"
     inkscape:pagecheckerboard="false"
     showborder="true"
     borderlayer="false"
     inkscape:window-width="1920"
     inkscape:window-height="1053"
     inkscape:window-x="0"
     inkscape:window-y="27"
     inkscape:window-maximized="1" />
  <metadata
     id="metadata5">
    <rdf:RDF>
      <cc:Work
         rdf:about="">
        <dc:format>image/svg+xml</dc:format>
        <dc:type
           rdf:resource="http://purl.org/dc/dcmitype/StillImage" />
        <dc:title></dc:title>
      </cc:Work>
    </rdf:RDF>
  </metadata>
  <g
     inkscape:label="Layer 1"
     inkscape:groupmode="layer"
     id="layer1"
     transform="translate(0,232.33331)">
    <g
       id="g825"
       transform="translate(162.50508,-193.55762)">
      <path
         style="fill:#c8c8c8"
         d="M 314.8789,860.99523 C 275.0065,856.89405 248.56766,851.06212 217.55361,839.52702 144.96424,812.52875 82.657633,761.37719 40.110433,693.85234 c -7.463,-11.8442 -22.05885,-40.15526 -25.8249,-50.09164 -2.28075,-6.01755 -2.85132,-6.65512 -10.9083506,-12.18923 -28.7135804,-19.72244 -49.2680074,-47.05975 -59.9120574,-79.68282 -6.281346,-19.25177 -6.07952,-14.04841 -6.083027,-156.82827 -0.0025,-99.82025 0.275742,-130.32894 1.196805,-131.25 0.904606,-0.90461 14.910111,-1.2 56.8954994,-1.2 H 51.169903 l 8.56786,-9.83793 c 19.60389,-22.50992 47.491527,-47.16189 72.141137,-63.77097 17.05437,-11.49135 29.06555,-18.3437 49.98723,-28.51759 l 18.29393,-8.89606 0.42091,-18.23872 c 0.38099,-16.50925 0.66821,-18.93158 3.02896,-25.54551 7.00282,-19.619271 24.55034,-36.262839 46.26897,-43.885444 l 8,-2.807766 h 88.5 88.5 l 6.5,2.317628 c 16.09595,5.739143 32.09007,19.125113 39.28867,32.88189 6.20276,11.853722 7.71133,19.763742 7.71133,40.433612 v 17.81322 l 18.75,9.45445 c 38.76854,19.54856 69.75515,41.97045 99.42055,71.94065 6.07479,6.1372 13.99187,14.64604 17.59352,18.90854 l 6.54846,7.75 59.09374,0.0153 c 32.50155,0.008 59.66724,0.37928 60.36819,0.82414 1.02459,0.65024 1.21958,27.26224 0.99456,135.73468 l -0.27989,134.92588 -2.84279,10.40544 c -11.28125,41.29277 -35.22302,72.50663 -71.95239,93.80726 -6.60837,3.83243 -8.05825,5.16069 -9.44977,8.65715 -3.45104,8.67145 -13.69969,28.63069 -20.86271,40.63015 -35.55679,59.5646 -85.99788,106.5217 -147.1844,137.01832 -36.08698,17.98649 -71.20107,28.69299 -113.19707,34.51448 -11.02263,1.52796 -60.90955,2.8385 -70.5,1.85205 z m 47.55011,-49.42933 c 91.64229,-7.11668 174.10346,-53.5153 226.68287,-127.54819 7.12209,-10.02805 13.58807,-20.41962 13.04418,-20.9635 -0.25396,-0.25396 -4.02022,0.19979 -8.36945,1.00835 -35.84445,6.66373 -84.54929,7.90553 -115.71697,2.95036 -33.36151,-5.30395 -67.85036,-25.58597 -88.03621,-51.77188 -8.47037,-10.98811 -11.67492,-16.25944 -17.67138,-29.06864 -2.80331,-5.98823 -7.13657,-14.04066 -9.62947,-17.89429 -4.61866,-7.13971 -15.2996,-18.66773 -17.29602,-18.66773 -2.19847,0 -10.49711,8.67125 -15.31246,16 -2.71033,4.125 -7.7337,13.36713 -11.16304,20.53806 -3.42935,7.17093 -8.51086,16.39593 -11.29226,20.5 -16.97162,25.04235 -42.62661,44.40616 -72.78777,54.93857 -30.83934,10.76924 -92.09959,11.39653 -143.439017,1.4688 -6.84029,-1.32274 -12.63951,-2.20237 -12.88714,-1.95473 -0.72951,0.72951 9.66269,16.77025 18.67926,28.83213 61.950027,82.87343 163.649707,129.5184 265.194877,121.63269 z m -41.93546,-51.08368 c -11.31603,-1.87926 -19.44226,-8.94736 -22.24236,-19.34612 -3.74659,-13.91377 8.16079,-29.64487 22.53348,-29.76947 2.80183,-0.0243 10.76936,0.3084 17.70563,0.7393 11.34894,0.70502 13.30948,0.57142 19.58496,-1.3347 8.71179,-2.64613 14.54812,-7.57219 20.73819,-17.50375 4.89117,-7.84757 8.3744,-10.97277 14.72849,-13.21462 16.73076,-5.90296 34.56816,8.21804 32.50113,25.72957 -1.43328,12.14253 -16.07769,31.65827 -32.05215,42.714 -7.09211,4.90836 -19.29904,9.76777 -29.38393,11.69733 -8.25819,1.58005 -35.27242,1.7567 -44.11344,0.28846 z M 197.83724,261.36038 c 0.21756,-0.6875 0.58974,-13.0625 0.82706,-27.5 0.30916,-18.80754 0.11723,-26.24803 -0.67695,-26.24307 -1.93005,0.0121 -22.62813,11.87358 -35.60845,20.40625 -12.58096,8.27014 -34.98176,25.70892 -40.43709,31.47983 l -2.93709,3.10699 h 39.21847 c 30.49715,0 39.30645,-0.27797 39.61405,-1.25 z m 364.37499,0.40226 c -0.66993,-1.70378 -14.64396,-13.56536 -26.49746,-22.49185 -12.03684,-9.06456 -25.51403,-17.82599 -38.58587,-25.08444 l -6.75,-3.7481 0.007,19.33606 c 0.004,10.63484 0.29398,22.37357 0.6446,26.08607 l 0.6375,6.75 h 35.43873 c 19.4913,0 35.28873,-0.38148 35.10539,-0.84774 z"
         id="path839"
         inkscape:connector-curvature="0" />
      <path
         style="fill:#e7fc00"
         d="m 313.3789,860.01613 c -1.925,-0.21815 -7.775,-0.87093 -13,-1.45063 C 260.98863,854.19526 219.92973,841.93275 183.4396,823.64081 108.21714,785.93294 49.551793,723.33575 15.327813,644.26189 11.992083,636.55475 11.768343,636.30327 2.9049034,630.29827 -9.3862436,621.971 -28.479132,602.77722 -36.527414,590.65758 c -8.206145,-12.35736 -14.421379,-24.85871 -18.595426,-37.40293 -6.839359,-20.55424 -6.543276,-13.07067 -6.256875,-158.14427 l 0.258618,-131 56.6046634,-0.5 56.6046666,-0.5 2.89533,-3.49573 c 28.45991,-34.36154 65.636377,-65.03325 106.395337,-87.77938 10.74108,-5.99421 30.21623,-15.4556 37.56334,-18.24897 2.20012,-0.83648 2.25542,-1.2498 2.63072,-19.66518 0.35395,-17.36777 0.58972,-19.38432 3.07353,-26.28816 6.79647,-18.891007 22.58847,-34.096428 43.9719,-42.338586 l 8.26051,-3.183984 h 89 89 l 6.5,2.317628 c 20.4263,7.283163 35.68255,22.430785 43.21476,42.907072 1.82069,4.94954 2.20743,8.77791 2.70484,26.77529 l 0.5804,21 16.02895,8.03027 c 27.55884,13.80659 49.77399,28.01019 72.44495,46.3188 12.04635,9.72839 35.90974,32.90136 46.23064,44.89309 l 7.95444,9.24217 59.67051,0.25783 59.67051,0.25784 v 134.5 134.5 l -2.34726,9.5 c -9.93719,40.21857 -34.47419,72.99682 -70.45865,94.12362 l -8.80591,5.17003 -7.79913,16.20598 c -20.3779,42.34371 -45.7824,76.9837 -79.49998,108.40121 -53.65352,49.99352 -119.84355,81.16858 -194.58907,91.65014 -10.90318,1.52895 -63.97597,2.87742 -73,1.85477 z m 59.5,-48.47062 c 40.1498,-4.32602 81.04774,-17.17172 115,-36.12054 32.25527,-18.00173 61.89527,-42.11595 84.5,-68.74669 15.15207,-17.85074 32.48243,-42.9188 30.82026,-44.58097 -0.32661,-0.32661 -4.35728,0.10683 -8.95705,0.96321 -47.83295,8.90552 -105.43342,8.23714 -135.36321,-1.57071 -38.39601,-12.58219 -68.32879,-38.82635 -85.19565,-74.69698 -3.02128,-6.42535 -7.88566,-15.29176 -10.80972,-19.70315 -4.92218,-7.42584 -15.23464,-18.4793 -17.24049,-18.4793 -1.95397,0 -7.71966,5.22601 -12.8605,11.65673 -3.47184,4.34297 -8.5178,13.0545 -13.81067,23.84327 -10.07509,20.53665 -17.74327,31.52916 -30.60758,43.87664 -15.69358,15.06307 -33.84888,25.97086 -54.9778,33.03092 -30.90685,10.32727 -85.20295,11.14797 -136.935517,2.06981 -7.94086,-1.39348 -15.47836,-2.79473 -16.75,-3.11389 -3.95135,-0.99173 -2.7826,1.7534 6.95965,16.34661 41.332727,61.91358 101.540567,105.74814 172.728277,125.75555 19.02882,5.34808 46.34638,9.82625 66.5,10.90135 9.85876,0.52591 36.30846,-0.27987 47,-1.43186 z m -44.23245,-50.96696 c -11.65654,-1.22532 -16.73099,-2.81704 -21.21385,-6.6542 -6.03385,-5.16475 -8.47903,-10.44365 -8.48302,-18.31397 -0.005,-9.57064 4.40726,-16.82782 12.92932,-21.26659 4.46987,-2.32816 8.41298,-2.51691 26.5,-1.26854 21.05824,1.45344 32.21288,-3.73783 41.06492,-19.11125 3.87985,-6.73818 9.77539,-11.96426 15.12056,-13.40356 15.14313,-4.07763 29.31058,5.78005 30.53544,21.24647 0.46422,5.86165 0.22221,6.8376 -3.45278,13.924 -17.55418,33.84929 -49.7824,49.3907 -93.00059,44.84764 z M 198.72512,254.36038 c 1.18283,-17.64019 1.07137,-47.1108 -0.17974,-47.52784 -2.24661,-0.74887 -29.16659,14.86356 -45.08256,26.14594 -14.1093,10.00169 -33.34655,26.01176 -35.56176,29.59604 -0.43754,0.70796 12.15547,1.03586 39.78181,1.03586 h 40.42201 z m 365.65378,8.3545 c 0,-2.18148 -27.22303,-24.20586 -43,-34.78849 -8.37841,-5.61994 -30.02186,-18.31601 -31.22397,-18.31601 -0.94813,0 -1.00491,18.39412 -0.1199,38.84101 l 0.65613,15.15899 h 36.84387 c 21.02955,0 36.84387,-0.38437 36.84387,-0.8955 z m -123.3433,-26.8545 c -0.35915,-14.7125 -0.89876,-44.75 -1.19912,-66.75 -0.30037,-22 -0.78162,-41.93148 -1.06945,-44.29219 -0.6378,-5.23105 -5.11771,-10.72527 -10.87955,-13.34282 -3.76487,-1.71034 -8.69426,-1.82239 -81.08044,-1.84302 -86.23597,-0.0246 -82.39329,-0.32572 -90.85215,7.12006 -2.9978,2.63877 -4.84746,5.24022 -5.45695,7.67489 -0.50711,2.0257 -1.19097,24.15808 -1.51968,49.18308 -0.32872,25.025 -0.89329,55.2875 -1.25459,67.25 l -0.65693,21.75 h 97.31093 97.31093 z"
         id="path837"
         inkscape:connector-curvature="0" />
      <path
         style="fill:#9a9ea9"
         d="m 313.3789,860.01613 c -1.925,-0.21815 -7.775,-0.87093 -13,-1.45063 C 260.98863,854.19526 219.92973,841.93275 183.4396,823.64081 108.21714,785.93294 49.551793,723.33575 15.327813,644.26189 11.992083,636.55475 11.768343,636.30327 2.9049034,630.29827 -9.3862436,621.971 -28.479132,602.77722 -36.527414,590.65758 c -8.206145,-12.35736 -14.421379,-24.85871 -18.595426,-37.40293 -6.839359,-20.55424 -6.543276,-13.07067 -6.256875,-158.14427 l 0.258618,-131 56.6046634,-0.5 56.6046666,-0.5 2.89533,-3.49573 c 28.45991,-34.36154 65.636377,-65.03325 106.395337,-87.77938 10.74108,-5.99421 30.21623,-15.4556 37.56334,-18.24897 2.20012,-0.83648 2.25542,-1.2498 2.63072,-19.66518 0.35395,-17.36777 0.58972,-19.38432 3.07353,-26.28816 6.79647,-18.891007 22.58847,-34.096428 43.9719,-42.338586 l 8.26051,-3.183984 h 89 89 l 6.5,2.317628 c 20.4263,7.283163 35.68255,22.430785 43.21476,42.907072 1.82069,4.94954 2.20743,8.77791 2.70484,26.77529 l 0.5804,21 16.02895,8.03027 c 27.55884,13.80659 49.77399,28.01019 72.44495,46.3188 12.04635,9.72839 35.90974,32.90136 46.23064,44.89309 l 7.95444,9.24217 59.67051,0.25783 59.67051,0.25784 v 134.5 134.5 l -2.34726,9.5 c -9.93719,40.21857 -34.47419,72.99682 -70.45865,94.12362 l -8.80591,5.17003 -7.79913,16.20598 c -20.3779,42.34371 -45.7824,76.9837 -79.49998,108.40121 -53.65352,49.99352 -119.84355,81.16858 -194.58907,91.65014 -10.90318,1.52895 -63.97597,2.87742 -73,1.85477 z m 59.5,-48.47062 c 40.1498,-4.32602 81.04774,-17.17172 115,-36.12054 32.25527,-18.00173 61.89527,-42.11595 84.5,-68.74669 15.15207,-17.85074 32.48243,-42.9188 30.82026,-44.58097 -0.32661,-0.32661 -4.35728,0.10683 -8.95705,0.96321 -47.83295,8.90552 -105.43342,8.23714 -135.36321,-1.57071 -38.39601,-12.58219 -68.32879,-38.82635 -85.19565,-74.69698 -3.02128,-6.42535 -7.88566,-15.29176 -10.80972,-19.70315 -4.92218,-7.42584 -15.23464,-18.4793 -17.24049,-18.4793 -1.95397,0 -7.71966,5.22601 -12.8605,11.65673 -3.47184,4.34297 -8.5178,13.0545 -13.81067,23.84327 -10.07509,20.53665 -17.74327,31.52916 -30.60758,43.87664 -15.69358,15.06307 -33.84888,25.97086 -54.9778,33.03092 -30.90685,10.32727 -85.20295,11.14797 -136.935517,2.06981 -7.94086,-1.39348 -15.47836,-2.79473 -16.75,-3.11389 -3.95135,-0.99173 -2.7826,1.7534 6.95965,16.34661 41.332727,61.91358 101.540567,105.74814 172.728277,125.75555 19.02882,5.34808 46.34638,9.82625 66.5,10.90135 9.85876,0.52591 36.30846,-0.27987 47,-1.43186 z m -44.23245,-50.96696 c -11.65654,-1.22532 -16.73099,-2.81704 -21.21385,-6.6542 -6.03385,-5.16475 -8.47903,-10.44365 -8.48302,-18.31397 -0.005,-9.57064 4.40726,-16.82782 12.92932,-21.26659 4.46987,-2.32816 8.41298,-2.51691 26.5,-1.26854 21.05824,1.45344 32.21288,-3.73783 41.06492,-19.11125 3.87985,-6.73818 9.77539,-11.96426 15.12056,-13.40356 15.14313,-4.07763 29.31058,5.78005 30.53544,21.24647 0.46422,5.86165 0.22221,6.8376 -3.45278,13.924 -17.55418,33.84929 -49.7824,49.3907 -93.00059,44.84764 z M 205.8789,619.268 c 18.82186,-3.43984 35.7444,-12.02459 49.31505,-25.01739 9.02515,-8.64085 14.0902,-16.15662 21.68346,-32.17501 11.75305,-24.79368 25.25538,-42.24286 40.00149,-51.69428 13.6001,-8.71689 24.87678,-11.22855 37.62133,-8.37939 22.44492,5.01777 43.66947,26.63936 60.94541,62.08551 11.32661,23.23951 24.00922,36.53444 44.43326,46.57849 17.06778,8.39353 32.05288,10.94688 64.21059,10.94103 34.52436,-0.006 67.54531,-4.63357 100.01212,-14.0149 38.25319,-11.05331 62.91917,-32.94866 74.17494,-65.84317 5.20792,-15.21991 5.10235,-12.63165 5.10235,-125.0969 0,-94.6666 -0.15332,-104.88647 -1.58179,-105.43462 -2.41213,-0.92562 -713.7339,-0.69333 -715.194447,0.23356 -1.024973,0.65046 -1.218756,21.86136 -0.984265,107.73468 l 0.291976,106.92477 2.274018,7.5 c 3.6114324,11.91096 12.29562141,28.56946 19.6589474,37.71089 11.7728036,14.61571 30.5358036,27.26442 50.0355636,33.73049 21.28286,7.05734 51.746057,13.05423 80.999997,15.94539 9.69933,0.95859 59.29746,-0.32145 67,-1.72915 z m -7.15378,-364.90762 c 1.18283,-17.64019 1.07137,-47.1108 -0.17974,-47.52784 -2.24661,-0.74887 -29.16659,14.86356 -45.08256,26.14594 -14.1093,10.00169 -33.34655,26.01176 -35.56176,29.59604 -0.43754,0.70796 12.15547,1.03586 39.78181,1.03586 h 40.42201 z m 365.65378,8.3545 c 0,-2.18148 -27.22303,-24.20586 -43,-34.78849 -8.37841,-5.61994 -30.02186,-18.31601 -31.22397,-18.31601 -0.94813,0 -1.00491,18.39412 -0.1199,38.84101 l 0.65613,15.15899 h 36.84387 c 21.02955,0 36.84387,-0.38437 36.84387,-0.8955 z m -123.3433,-26.8545 c -0.35915,-14.7125 -0.89876,-44.75 -1.19912,-66.75 -0.30037,-22 -0.78162,-41.93148 -1.06945,-44.29219 -0.6378,-5.23105 -5.11771,-10.72527 -10.87955,-13.34282 -3.76487,-1.71034 -8.69426,-1.82239 -81.08044,-1.84302 -86.23597,-0.0246 -82.39329,-0.32572 -90.85215,7.12006 -2.9978,2.63877 -4.84746,5.24022 -5.45695,7.67489 -0.50711,2.0257 -1.19097,24.15808 -1.51968,49.18308 -0.32872,25.025 -0.89329,55.2875 -1.25459,67.25 l -0.65693,21.75 h 97.31093 97.31093 z"
         id="path835"
         inkscape:connector-curvature="0" />
      <path
         style="fill:#717788"
         d="m 322.3789,860.01575 c -22.34925,-1.96846 -29.06668,-2.73262 -39.5,-4.49347 -62.38722,-10.52917 -120.51556,-37.49844 -169,-78.40937 -14.098937,-11.89662 -36.569937,-34.91455 -47.838167,-49.00253 -20.17232,-25.2202 -38.50471,-55.92812 -49.74556,-83.32692 -3.38378,-8.24772 -3.49713,-8.38268 -11.9179906,-14.18924 -32.8238864,-22.63353 -53.9521484,-53.65698 -63.6663834,-93.48384 -1.555619,-6.3778 -1.738577,-18.59966 -2.058338,-137.5 -0.193026,-71.775 -0.09997,-131.5125 0.206795,-132.75 l 0.557751,-2.25 H -4.6881406 51.206713 l 9.45373,-10.75 c 36.87713,-41.93359 84.173987,-76.47587 133.839717,-97.74707 l 6.62127,-2.83581 0.5275,-18.08356 c 0.58356,-20.00546 1.48627,-24.33867 7.51702,-36.08355 2.52169,-4.910983 6.16524,-9.569448 12.20902,-15.609858 7.12664,-7.122659 10.24606,-9.41307 18.0593,-13.259898 18.23058,-8.975779 13.94877,-8.630244 106.94463,-8.630244 77.63929,0 82.05633,0.09623 89.28561,1.945169 19.84851,5.076392 36.49479,18.321569 44.68462,35.554831 5.50202,11.57749 6.28938,15.81946 6.94257,37.40378 l 0.5872,19.40379 19,9.62506 c 27.28313,13.82116 44.73106,24.97104 67.5,43.13502 16.71553,13.33486 35.97035,32.1246 51.18268,49.94641 l 4.68268,5.48593 59.81732,0.5 59.81732,0.5 0.29758,127 c 0.20923,89.29316 -0.035,129.74672 -0.82244,136.25118 -3.90059,32.21791 -20.75595,64.97278 -45.09958,87.64156 -7.43994,6.92808 -20.1856,16.06983 -33.02602,23.68774 -3.90544,2.317 -4.79364,3.61267 -8.69914,12.6899 -9.14891,21.26411 -27.61374,51.84085 -43.61297,72.2207 -58.75743,74.84533 -143.78477,122.5426 -238.03743,133.53044 -12.72044,1.48293 -49.57662,2.66979 -58.5,1.88385 z m 62.5,-49.36742 c 88.85065,-13.61716 165.36975,-63.09275 213.86242,-138.27881 6.19774,-9.60938 6.94495,-12.09753 3.38758,-11.28045 -25.88292,5.94491 -76.8956,9.1336 -105.75,6.61018 -39.91826,-3.49098 -69.13241,-16.33905 -94.56545,-41.58887 -11.74758,-11.66294 -20.90455,-24.86228 -28.42298,-40.97037 -9.06329,-19.4179 -22.3277,-36.52963 -28.31651,-36.52963 -2.90352,0 -11.79005,8.98316 -17.1036,17.28957 -1.99182,3.11372 -6.2825,11.29141 -9.53485,18.17265 -9.72408,20.57399 -19.11713,33.47259 -34.58034,47.48597 -19.29582,17.48664 -47.81069,30.69327 -74.97627,34.72517 -17.12932,2.54232 -66.93499,2.54028 -87.5,-0.004 -13.22291,-1.63566 -38.983247,-5.96559 -43.249997,-7.26968 -3.41966,-1.04519 -1.74563,2.88563 6.59653,15.48947 52.325307,79.0562 133.663087,128.48641 227.153467,138.04464 15.82828,1.61824 57.05596,0.54731 73,-1.89626 z m -60.5,-51.06555 c -8.6667,-1.19898 -13.96027,-3.33049 -17.97833,-7.23915 -4.60834,-4.48289 -6.97775,-10.16493 -6.97775,-16.73325 0,-6.96488 2.46193,-12.43473 7.73761,-17.19123 6.27755,-5.65978 10.06107,-6.40473 25.07261,-4.9366 26.20784,2.56312 37.50853,-2.36516 49.33365,-21.51463 10.34449,-16.75175 34.07865,-15.26592 41.56475,2.60207 0.94062,2.24511 1.31879,5.77228 1.07722,10.04739 -0.31607,5.59367 -1.04809,7.77469 -4.851,14.45335 -8.27317,14.5293 -24.23608,29.05984 -37.99892,34.58924 -11.97248,4.8101 -18.87861,6.08567 -34.97984,6.46086 -8.525,0.19865 -18.425,-0.0435 -22,-0.53805 z M 205.8789,619.268 c 18.82186,-3.43984 35.7444,-12.02459 49.31505,-25.01739 9.02515,-8.64085 14.0902,-16.15662 21.68346,-32.17501 11.75305,-24.79368 25.25538,-42.24286 40.00149,-51.69428 13.6001,-8.71689 24.87678,-11.22855 37.62133,-8.37939 22.44492,5.01777 43.66947,26.63936 60.94541,62.08551 11.32661,23.23951 24.00922,36.53444 44.43326,46.57849 17.06778,8.39353 32.05288,10.94688 64.21059,10.94103 34.52436,-0.006 67.54531,-4.63357 100.01212,-14.0149 38.25319,-11.05331 62.91917,-32.94866 74.17494,-65.84317 5.20792,-15.21991 5.10235,-12.63165 5.10235,-125.0969 0,-94.6666 -0.15332,-104.88647 -1.58179,-105.43462 -2.41213,-0.92562 -713.7339,-0.69333 -715.194447,0.23356 -1.024973,0.65046 -1.218756,21.86136 -0.984265,107.73468 l 0.291976,106.92477 2.274018,7.5 c 3.6114324,11.91096 12.29562141,28.56946 19.6589474,37.71089 11.7728036,14.61571 30.5358036,27.26442 50.0355636,33.73049 21.28286,7.05734 51.746057,13.05423 80.999997,15.94539 9.69933,0.95859 59.29746,-0.32145 67,-1.72915 z m -7.88348,-355.42293 c 0.74993,-0.49347 1.35541,-10.17435 1.84411,-29.48469 0.60336,-23.84141 0.49688,-28.75 -0.62368,-28.75 -2.22868,0 -25.81532,13.23737 -37.46301,21.02511 -20.67471,13.82328 -46.15843,34.89654 -44.81965,37.06273 0.67137,1.0863 79.41773,1.22895 81.06223,0.14685 z m 366.95629,-0.35251 c 1.37058,-2.21763 -23.35239,-22.61439 -44.07281,-36.36062 -15.11809,-10.02956 -30.80371,-18.88452 -31.75926,-17.92896 -1.00018,1.00017 0.4488,52.81108 1.5146,54.1574 1.34514,1.69919 73.26995,1.82711 74.31747,0.13218 z M 441.90795,235.36038 c -0.42534,-15.5375 -1.05588,-47.40876 -1.4012,-70.82503 l -0.62785,-42.57502 -2.68285,-4.05206 c -1.74724,-2.63896 -4.51842,-4.96677 -7.94635,-6.67497 l -5.26349,-2.62291 h -77.26614 c -75.36599,0 -77.40046,0.0503 -82.72791,2.04351 -5.9882,2.24047 -13.30252,8.59775 -14.01427,12.18058 -0.75211,3.78594 -3.72644,138.76066 -3.08079,139.80535 0.38113,0.61667 36.18328,0.97055 98.19201,0.97055 h 97.59218 z"
         id="path833"
         inkscape:connector-curvature="0" />
      <path
         style="fill:#50586d"
         d="m 314.3789,859.00965 c -1.925,-0.22298 -8,-0.88662 -13.5,-1.47476 C 210.46841,847.86694 123.83535,799.75893 65.758203,726.97054 46.125793,702.36514 23.977973,664.67813 14.930463,640.4814 13.390743,636.36354 12.077743,635.09382 3.0392644,628.9821 -26.544152,608.97811 -48.913096,576.47226 -57.773839,540.61038 l -2.347258,-9.5 v -133 -133 l 56.1488384,-0.25828 56.1488416,-0.25828 7.00307,-8.24172 c 10.10505,-11.89234 37.01821,-38.01703 48.902047,-47.46937 23.80377,-18.9334 46.54292,-33.24057 72.2972,-45.48847 9.075,-4.31576 17.625,-8.41114 19,-9.10082 2.49965,-1.2538 2.50009,-1.25666 3.11283,-20.21852 0.6459,-19.98798 1.25445,-23.26062 6.12978,-32.96453 8.75887,-17.43376 25.48694,-30.661038 46.4659,-36.741679 l 7.79149,-2.258321 h 83.5 83.5 l 7.5,2.341863 c 22.28727,6.959165 39.57613,23.109452 46.20071,43.158137 1.81548,5.49437 2.23684,9.73402 2.72353,27.40354 l 0.57576,20.90354 19,9.62104 c 28.58682,14.47553 45.73137,25.465 69.49039,44.54257 13.68731,10.99038 36.8536,33.47015 47.435,46.0293 l 6.7402,8 59.66721,0.5 59.6672,0.5 0.25862,131 c 0.28689,145.32413 0.60046,137.52291 -6.37088,158.5 -11.54106,34.7276 -35.99204,64.46265 -67.29261,81.83512 -8.30979,4.61211 -8.43916,4.74406 -11.43733,11.66488 -17.52163,40.44606 -45.62916,80.92025 -77.77903,112.00003 -55.6438,53.7917 -122.48429,86.08315 -200.87877,97.04697 -10.93621,1.52948 -62.23347,2.86774 -71,1.85227 z m 46.51707,-45.45916 c 19.07334,-1.26483 40.07568,-4.67505 58.26988,-9.46147 39.44741,-10.37758 79.37461,-30.45385 112.21305,-56.42318 15.88274,-12.56041 41.80397,-39.15422 53.66305,-55.05546 10.1702,-13.63671 20.33695,-29.12861 20.33695,-30.98906 0,-1.3746 -1.0905,-1.30312 -14.15063,0.92744 -43.67078,7.45861 -95.79551,7.47878 -124.90065,0.0483 -24.54941,-6.26738 -49.02605,-20.79854 -67.19711,-39.89321 -10.676,-11.21866 -16.74573,-20.37975 -26.23288,-39.5935 -8.10306,-16.41065 -18.11664,-30.15066 -24.69433,-33.884 l -3.6756,-2.08618 -3.8244,3.05632 c -6.61352,5.28528 -14.21699,16.40214 -21.48579,31.41386 -9.54965,19.72219 -18.15682,32.41562 -29.89191,44.08314 -18.90791,18.79902 -45.83489,33.42122 -70.4467,38.25478 -34.63346,6.80173 -81.69873,5.68794 -128.234277,-3.03464 -7.82885,-1.46743 -14.5552,-2.34714 -14.94743,-1.9549 -0.88152,0.88152 0.91252,4.06627 10.39298,18.44943 11.33224,17.19256 22.097137,30.19804 38.697127,46.75142 26.53032,26.45583 52.69296,45.13129 84.21641,60.11548 48.39395,23.00333 99.09984,32.77627 151.89226,29.2754 z m -31.09134,-53.9583 c -12.09678,-1.27672 -15.12585,-2.03995 -19.76016,-4.97894 -10.03344,-6.36303 -13.36382,-20.06194 -7.36029,-30.27526 5.19699,-8.84123 14.13333,-12.58937 25.72692,-10.79056 15.53721,2.41068 29.55114,0.85097 38.23179,-4.25507 5.43123,-3.1947 7.89657,-5.88149 14.14717,-15.41797 4.25118,-6.486 5.98254,-8.21668 10.51815,-10.51401 9.53218,-4.82814 18.85869,-3.34541 26.13621,4.15515 8.15544,8.40536 8.93101,18.04435 2.39262,29.73608 -17.75317,31.74564 -49.40077,46.62892 -90.03241,42.34058 z M 196.69255,620.49308 c 37.129,-3.77236 65.33886,-24.1261 80.09681,-57.79074 7.91089,-18.04571 17.39243,-31.90133 29.99155,-43.82745 21.76214,-20.59968 44.3318,-23.3631 66.99776,-8.20318 15.38383,10.28934 28.70447,27.42897 41.53361,53.44121 11.73714,23.79812 23.2528,36.00002 43.85661,46.47012 16.48368,8.3764 32.72504,11.18398 64.71001,11.18615 30.80191,0.002 59.4217,-3.57156 89.6171,-11.19014 27.66938,-6.98124 44.14351,-14.97851 58.78777,-28.53816 13.38954,-12.39787 24.04395,-30.57326 28.62212,-48.82657 l 2.48206,-9.89607 -0.25452,-106.10393 -0.25453,-106.10394 h -358.5 -358.499997 l -0.30922,103.5 c -0.227525,76.15573 0.0024,105.34937 0.870413,110.5 1.622147,9.6259 6.9942464,24.28155 12.0417974,32.8513 15.9100496,27.01214 38.2240196,42.30244 75.8970096,52.00725 42.125897,10.85191 83.797587,14.43744 122.313647,10.52415 z m 3.03769,-365.6327 c 0.95949,-15.36168 1.16907,-47.62273 0.31824,-48.98692 -1.87205,-3.0016 -40.33202,20.02514 -61.14606,36.60934 -12.28448,9.78802 -22.52352,19.19022 -22.52352,20.68267 0,1.2366 5.96452,1.44491 41.37118,1.44491 h 41.37118 z m 243.22926,8.40055 c 0.28481,-0.7422 -0.17931,-26.45892 -1.03138,-57.14826 -0.85207,-30.68935 -1.54922,-62.05444 -1.54922,-69.70021 0,-10.29101 -0.38276,-14.64157 -1.47378,-16.75136 -2.49156,-4.81815 -9.27279,-9.8546 -14.90649,-11.07112 -3.55992,-0.76872 -28.12206,-1.01019 -80.61973,-0.79257 l -75.5,0.31298 -5.22705,2.36327 c -5.67275,2.56478 -12.92227,9.62984 -13.6756,13.32762 -0.25873,1.27001 -0.74408,18.9591 -1.07856,39.3091 -0.33447,20.35 -1.00208,50.9472 -1.48358,67.99378 -0.60103,21.2783 -0.54865,31.38757 0.16711,32.25 1.59851,1.92609 195.63875,1.83397 196.37828,-0.0932 z m 123.4194,0.46411 c 0,-1.32202 -12.05885,-12.34964 -23.27977,-21.28898 -16.48075,-13.12968 -49.34473,-33.82568 -53.7131,-33.82568 -1.08816,0 -1.20927,4.90095 -0.6695,27.09275 0.36244,14.90101 0.9113,27.50101 1.21969,28 0.73083,1.1825 76.44268,1.2042 76.44268,0.0219 z"
         id="path831"
         inkscape:connector-curvature="0" />
      <path
         style="fill:#242f49"
         d="M 319.3789,858.55203 C 199.4686,851.24871 92.126773,783.11944 33.076583,676.83749 c -4.50873,-8.11505 -10.8245,-20.82345 -14.03506,-28.24088 l -5.83738,-13.48623 -9.4977986,-6.39353 C -24.888561,609.46794 -45.944696,579.91021 -56.3669,544.38853 l -2.722248,-9.27815 -0.286973,-134.75 -0.286973,-134.75 H -4.0966406 51.469813 l 2.20454,-2.29112 c 1.2125,-1.26011 6.897,-7.59535 12.63221,-14.07831 32.2538,-36.45897 77.864937,-69.5949 124.072337,-90.13703 5.775,-2.56735 10.95,-5.09961 11.5,-5.62723 0.55852,-0.53579 1.24127,-9.43722 1.5465,-20.16281 0.44731,-15.71813 0.91069,-20.22469 2.55311,-24.83003 3.15192,-8.837966 8.30763,-16.71355 15.93396,-24.339886 7.49334,-7.493333 14.64323,-12.221798 24.50174,-16.203827 13.07278,-5.280332 13.32369,-5.293692 99.76728,-5.312383 89.84352,-0.01943 87.82511,-0.157569 102.69741,7.028711 15.37387,7.428638 26.77179,19.411204 32.50244,34.169615 3.90227,10.04971 4.95361,17.85639 4.97775,36.96212 l 0.0198,15.67781 16.25,7.96539 c 48.1927,23.62299 90.92493,57.07456 124.14538,97.18325 l 2.89537,3.49573 59.60463,0.5 59.60462,0.5 v 131.5 c 0,147.00855 0.48275,136.36429 -7.18346,158.38874 -8.57713,24.64146 -22.34277,45.22648 -41.72395,62.39362 -7.70813,6.82759 -20.16649,15.46217 -28.09259,19.47029 -4.80835,2.43152 -5.18901,2.94467 -9.93135,13.38789 -27.64364,60.87476 -70.91844,111.97289 -126.06865,148.85969 -52.38571,35.03778 -110.37755,54.46665 -174.5,58.46231 -18.0233,1.12309 -23.26017,1.12048 -42,-0.0209 z m 63,-46.35535 c 84.92854,-12.81963 155.06033,-54.73738 206,-123.12615 11.17865,-15.00783 18.60677,-27.25338 17.31526,-28.54489 -0.65367,-0.65367 -4.86933,-0.30017 -12.40276,1.04002 -38.71888,6.88804 -86.24058,7.88839 -117.5757,2.47501 -17.39097,-3.00442 -40.20021,-12.76967 -55.8368,-23.90524 -10.32068,-7.34985 -23.18295,-19.92839 -30.5976,-29.92264 -3.22253,-4.34368 -9.93176,-15.84675 -14.90939,-25.56238 -12.04888,-23.51772 -22.8984,-37.04003 -29.71877,-37.04003 -5.66884,0 -17.19734,15.23741 -26.78984,35.40859 -8.52004,17.91603 -16.87687,30.09253 -28.92947,42.15237 -20.12386,20.13593 -47.40467,34.40447 -74.41924,38.92311 -35.30607,5.90554 -81.80865,4.38417 -125.522867,-4.10659 -8.56239,-1.6631 -13.22164,-2.16866 -13.88381,-1.50649 -1.21478,1.21478 1.68521,6.4109 12.07131,21.62901 52.324617,76.66803 133.329787,124.29585 227.699677,133.87835 9.7783,0.99291 57.43136,-0.27223 67.5,-1.79205 z m -57.5,-53.65866 c -9.29413,-1.26976 -12.35095,-2.35611 -16.68713,-5.93036 -10.35016,-8.53147 -10.40833,-25.41514 -0.1168,-33.89829 5.82514,-4.80157 10.4574,-5.5643 24.71277,-4.06909 24.57645,2.57776 36.48985,-2.08335 47.06427,-18.41383 2.89045,-4.46384 6.12043,-8.88641 7.17773,-9.82793 5.1209,-4.56017 16.8854,-6.27069 23.63128,-3.43591 4.48175,1.88333 9.38104,7.19891 11.32381,12.28598 2.70855,7.09223 1.6008,14.72381 -3.33466,22.97336 -12.20289,20.39697 -28.45266,32.95652 -49.77127,38.46856 -9.32397,2.41076 -32.69451,3.39206 -44,1.84751 z m -119,-138.27211 c 19.35212,-3.53169 35.92137,-12.10088 50.36221,-26.04603 9.53967,-9.21222 13.31846,-14.87652 22.496,-33.72091 9.08337,-18.65103 17.1828,-30.34324 28.32651,-40.89169 13.15282,-12.45023 28.24795,-18.92895 41.29323,-17.72276 13.02818,1.20462 24.68229,7.47708 37.57926,20.22586 10.83271,10.70824 19.36112,23.17785 27.64429,40.41942 7.3786,15.35871 12.23123,22.65031 20.73,31.14908 7.84659,7.84659 16.24213,13.67275 27.36277,18.98867 10.59923,5.06667 20.57837,7.55168 36.23804,9.02401 15.9933,1.50371 53.68928,0.67442 69.96769,-1.53923 27.8123,-3.78212 59.5275,-11.4341 74.7719,-18.04033 27.08873,-11.73904 47.37923,-33.39787 56.67933,-60.50162 5.08927,-14.8319 5.04877,-13.82484 5.04877,-125.55278 0,-102.17088 -0.0409,-104.39873 -1.93426,-105.41204 -2.70781,-1.44917 -713.423664,-1.44917 -716.131478,0 -1.893191,1.01321 -1.934259,3.22958 -1.934259,104.38954 0,88.28456 0.221581,104.52242 1.519687,111.36548 5.9702704,31.47271 26.231013,58.03077 55.456753,72.6935 18.28975,9.17607 53.49459,18.00044 85.523557,21.43715 5.5,0.59015 11.575,1.25429 13.5,1.47585 8.45475,0.97314 57.81697,-0.33904 65.5,-1.74117 z m -6.66517,-355.95652 c 0.6807,-0.82018 1.33847,-12.09191 1.77986,-30.5 l 0.70014,-29.19901 h -2.12003 c -5.77917,0 -44.2744,23.96927 -63.1948,39.3486 -17.18759,13.97083 -21.4376,18.06864 -20.709,19.96734 0.59125,1.54077 4.127,1.68406 41.55517,1.68406 32.36226,0 41.13452,-0.2718 41.98866,-1.30099 z m 243.51855,-0.19525 c 1.23623,-1.23623 1.41865,-4.06002 1.04976,-16.25 -1.70433,-56.31985 -2.40314,-86.60027 -2.40314,-104.1314 0,-22.79192 -0.38851,-24.54181 -6.71642,-30.25166 -7.33384,-6.61753 -3.91321,-6.37069 -88.28358,-6.37069 -71.4071,0 -76.84753,0.12119 -81.72024,1.82048 -6.32353,2.20524 -14.77299,9.52048 -16.12695,13.96214 -0.53942,1.76956 -1.24077,20.54237 -1.55855,41.71737 -0.31779,21.175 -0.87743,52.1546 -1.24367,68.84355 -0.56005,25.52138 -0.44217,30.48518 0.74177,31.23469 0.7983,0.50538 43.25752,0.89776 98.08621,0.90645 84.50897,0.0134 96.86691,-0.17303 98.17481,-1.48093 z m 124.19237,0.42221 c 0.36508,-0.59071 -0.39586,-2.21393 -1.69098,-3.60715 -3.58671,-3.85837 -19.37004,-17.20612 -28.46814,-24.07514 -17.17289,-12.96543 -45.31408,-29.86923 -48.00609,-28.83621 -1.34309,0.51539 -1.44311,3.88575 -0.82616,27.83945 0.39693,15.41145 1.13395,27.79621 1.69622,28.50308 1.32143,1.66128 76.27173,1.83191 77.29515,0.17597 z"
         id="path829"
         inkscape:connector-curvature="0" />
      <path
         style="fill:#091533"
         d="M 321.3789,857.94462 C 241.72638,852.34522 173.83245,825.09525 113.895,774.66871 72.918713,740.19455 35.700773,688.93201 16.486843,640.50249 14.401883,635.24725 13.621093,634.46289 4.0704384,628.02934 -21.395832,610.87467 -43.36738,581.63525 -52.977799,552.11038 c -6.42397,-19.73555 -5.986013,-9.1532 -6.363029,-153.75 l -0.34352,-131.75 H -3.9464766 51.791393 l 5.50843,-6.25 c 11.35567,-12.88441 41.97208,-42.66642 52.579077,-51.1461 23.28586,-18.61572 53.90768,-37.31117 80.46675,-49.12713 l 12.77595,-5.68394 0.51218,-18.64641 c 0.41579,-15.13722 0.90366,-19.86969 2.59233,-25.14641 6.99522,-21.858486 25.93337,-38.707159 50.56275,-44.9841 7.61288,-1.940186 10.97775,-2.0159 89.59004,-2.0159 78.02017,0 82.02556,0.08836 89.39052,1.972 12.20037,3.120328 20.86097,8.18918 30.71803,17.97856 6.78583,6.739248 9.35396,10.137432 12.12913,16.04944 5.2486,11.18123 6.03771,15.60855 6.67771,37.46524 l 0.58461,19.96524 19,9.57184 c 49.18983,24.78091 81.25943,50.02115 121.11359,95.3219 l 4.11359,4.67577 h 59.16459 59.16458 l -0.3224,132.25 c -0.29884,122.5872 -0.45229,132.79798 -2.10019,139.75 -6.92628,29.22001 -19.3962,51.91712 -39.57073,72.02459 -11.46321,11.4251 -21.36369,18.99465 -33.86955,25.89543 l -6.48777,3.57998 -6.16937,13.5 c -33.42077,73.1324 -92.36777,133.50032 -165.03634,169.01454 -27.05703,13.22317 -49.16526,21.00908 -77.98745,27.46501 -29.56876,6.62316 -68.03361,9.78641 -95.51255,7.85469 z m 62.5315,-45.16356 c 36.33486,-5.61699 66.15021,-15.20251 97.9685,-31.49649 15.18809,-7.77774 37.98521,-22.50121 51.5,-33.26115 11.87427,-9.45383 39.1278,-36.90446 48.84402,-49.19727 8.22863,-10.41074 22.01028,-30.60713 24.26989,-35.56643 2.09763,-4.6038 0.42051,-4.95555 -12.71005,-2.66569 -21.33951,3.72142 -36.50292,5.15916 -60.40386,5.72727 -45.15826,1.07337 -70.01474,-3.18128 -95.65018,-16.37234 -13.46801,-6.93014 -22.84198,-13.82127 -34.45531,-25.32927 -12.58777,-12.4736 -18.83518,-21.47291 -28.50548,-41.06172 -10.48186,-21.23277 -23.05245,-36.94759 -29.55509,-36.94759 -6.35566,0 -17.29558,13.8173 -27.33839,34.52882 -9.43809,19.46437 -17.77301,31.81619 -28.99669,42.97118 -16.09535,15.99684 -34.29594,27.17307 -56.02713,34.40394 -15.99697,5.32285 -29.80924,7.18164 -58.19685,7.83184 -31.11533,0.71267 -55.91023,-1.39329 -86.662057,-7.36067 -13.3284,-2.58636 -15.38454,-2.38194 -14.18106,1.40988 1.10865,3.49306 17.92357,28.35432 26.523067,39.21501 10.50263,13.26422 35.42682,38.1912 48.74736,48.75281 46.87339,37.16504 103.2823,60.09668 162.79781,66.1814 15.35823,1.57019 57.07302,0.54889 72.0315,-1.76353 z m -60.0315,-55.24443 c -9.01987,-1.21898 -15.18939,-4.40822 -18.99085,-9.81703 -2.72461,-3.87665 -3.00915,-5.02169 -3.00915,-12.10922 0,-7.08427 0.28493,-8.23226 3,-12.08709 1.65,-2.34265 5.025,-5.34801 7.5,-6.67858 4.31492,-2.31972 4.95241,-2.38457 15.5,-1.57677 32.76418,2.50927 41.66795,-1.17946 55.80349,-23.11874 5.20826,-8.08355 13.00281,-11.35303 22.50669,-9.44059 14.30282,2.87812 20.46382,18.33373 13.04355,32.72133 -4.26839,8.27625 -12.54667,18.57312 -20.10075,25.00216 -7.0885,6.0328 -21.1075,13.17864 -30.75298,15.67557 -7.76395,2.00986 -33.97383,2.8515 -44.5,1.42896 z M 198.70574,622.11138 c 37.00379,-4.32857 64.67689,-24.55111 79.52237,-58.1122 13.21114,-29.86636 31.51482,-50.51141 51.84712,-58.47931 8.38789,-3.28707 21.34494,-3.20096 30.31875,0.20151 19.77455,7.49763 36.84221,26.19872 52.172,57.16506 8.32289,16.81231 13.16602,23.89151 22.47005,32.84444 16.69353,16.06358 35.36618,24.19217 61.84414,26.92206 14.99681,1.54617 55.43423,0.69881 71.49873,-1.49826 25.75608,-3.52253 54.41027,-10.202 70.6158,-16.46099 30.82521,-11.90548 53.10655,-35.80063 63.08741,-67.65673 l 2.79679,-8.92658 0.27595,-108.49444 c 0.25834,-101.56879 0.16634,-108.57459 -1.44113,-109.75 -2.25544,-1.64922 -715.322029,-1.86796 -718.400558,-0.22038 -1.893403,1.01332 -1.934259,3.24264 -1.934259,105.54216 0,115.44565 -0.229936,110.8528 6.441464,128.6646 5.3956964,14.40582 11.7015474,23.90301 24.074266,36.25806 12.06419,12.04695 21.08076,18.07461 36.09126,24.12734 16.34442,6.5906 52.497207,14.77364 76.393007,17.29124 5.775,0.60844 11.85,1.25824 13.5,1.44401 9.23391,1.03958 47.34613,0.48138 58.82684,-0.86159 z m 1.10173,-357.07243 c 1.19985,-1.19985 1.57205,-3.74179 1.57406,-10.75 0.001,-5.04821 0.29744,-18.27795 0.65778,-29.39941 0.61631,-19.02208 0.54647,-20.26254 -1.17806,-20.92431 -3.37735,-1.29601 -29.72297,13.35262 -50.48235,28.06909 -10.36174,7.34551 -30.81408,24.37797 -34.42336,28.66735 -4.97637,5.91407 -5.01356,5.90871 40.97438,5.90871 36.21769,0 41.4997,-0.19358 42.87755,-1.57143 z m 242.22898,0.96532 c 1.18665,-0.31834 2.36167,-1.3594 2.61117,-2.31346 0.24949,-0.95406 0.0512,-16.54996 -0.44058,-34.65754 -0.49182,-18.10759 -1.21684,-49.8724 -1.61117,-70.58847 l -0.71697,-37.66558 -3.03874,-4.32188 c -2.03082,-2.88835 -4.99258,-5.3211 -8.9293,-7.33441 l -5.89055,-3.01254 h -77.5707 -77.57071 l -5.57935,2.258 c -7.49975,3.0352 -13.40278,8.25286 -15.27622,13.50259 -1.2103,3.39147 -1.62455,12.03993 -2.07108,43.2394 -0.30701,21.45 -0.85552,52.79123 -1.21893,69.64718 -0.63782,29.58383 -0.59471,30.66407 1.24242,31.134 2.72851,0.69794 193.47045,0.80759 196.06071,0.11271 z m 124.76066,-8.8e-4 c 2.73156,-1.04819 1.76556,-3.03496 -4.3158,-8.87633 -14.52033,-13.9473 -39.30119,-31.97902 -60.30841,-43.88322 -12.10296,-6.85841 -14.21187,-7.59285 -15.10668,-5.26102 -0.28966,0.75484 -0.26769,13.61781 0.0488,28.58438 0.45577,21.55166 0.86993,27.50639 1.99109,28.62756 1.1703,1.17029 7.88793,1.41562 38.76241,1.41562 20.54073,0 38.05859,-0.27314 38.92857,-0.60699 z"
         id="path827"
         inkscape:connector-curvature="0" />
    </g>
    <g
       id="g854"
       transform="translate(738.07141,318.57369)">
      <path
         d="m 320.92859,70.069979 c 0,0 48,0 48,0 0,0 0,-97 0,-97 0,0 102,0 102,0 0,0 0,-48 0,-48 0,0 -71,0 -71,0 0,0 -7,0.6 -7,0.6 0,0 -9,7.4 -9,7.4 0,0 -15,15 -15,15 0,0 0,-48 0,-48 0.07,-15.279999 6.4,-22.979999 22,-22.999999 0,0 85,0 85,0 0,0 14,-49 14,-49 0,0 -103,0 -103,0 -37.67,0.06 -65.94,28.35 -66,66 0,0 0,175.999999 0,175.999999 z m 211,-241.999999 c 0,0 0,179.9999988 0,179.9999988 0.04,27.6800002 19.49,52.0900002 46,59.5700002 12.54,3.54 27.88,2.43 41,2.43 15.46,0 32.08,1.37 47,-2.91 26.28,-7.53 44.68,-32.98 45,-60.0900002 0,0 0,-178.9999988 0,-178.9999988 0,0 -48,0 -48,0 0,0 0,167.9999988 0,167.9999988 -0.01,4.54000002 -0.17,9.76 -1.99,14.0000002 -4.26,9.92 -12.29,11.98 -22.01,12 0,0 -36,0 -36,0 -3.15,0 -5.93,0.1 -9,-0.79 -14.4,-4.16 -14,-15.1500002 -14,-27.2100002 0,0 0,-17.9999998 0,-17.9999998 0,0 0,-147.999999 0,-147.999999 0,0 -48,0 -48,0 z m 223,0 c 0,0 0,49 0,49 0,0 90,0 90,0 -4.1,4.1 -18.82,17.71 -20.4,22 -0.72,1.939999 -0.6,4.909999 -0.6,6.999999 0,0 0,164 0,164 0,0 48,0 48,0 0,0 0,-192.999999 0,-192.999999 0,0 69,0 69,0 0,0 0,-49 0,-49 0,0 -186,0 -186,0 z m 231,0 c 0,0 0,144.999999 0,144.999999 0,25.5399998 -2.9,51.81 14.46001,73 12.72,15.52 30.53,23.97 50.54,24 0,0 21,0 21,0 13.19,0 32.72,1.1 45,-1.9 30.02,-7.33 48.95,-33.68 49,-64.1000002 0,0 0,-175.9999988 0,-175.9999988 0,0 -49,0 -49,0 0,0 0,171.99999882 0,171.99999882 -0.01,3.40999998 0.12,6.75999998 -1.15,10.00000018 -3.28,8.39 -11.4,11.89 -19.85,12 0,0 -38,0 -38,0 -3.15,0 -5.93,0.1 -9,-0.79 -5.68,-1.64 -11.55,-6.46 -13.35,-12.2100002 0,0 -0.65,-32.9999998 -0.65,-32.9999998 0,0 0,-147.999999 0,-147.999999 0,0 -49.00001,0 -49.00001,0 z m 234.00001,0 c 0,0 0,241.999999 0,241.999999 0,0 48,0 48,0 0,0 0,-192.999999 0,-192.999999 0,0 79,0 79,0 13.89,0.02 21.82,6.58 22,21 0,0 0,27.999999 0,27.999999 -0.01,9.5 -2.3,17.72 -12,21.77 -4.19,1.76 -12.25,1.23 -17,1.23 0,0 -32,0 -32,0 -2.48,0 -6.1,-0.42 -7.92,1.57 -1.65,1.81 -3.56,9.68 -4.42,12.43 -2.38,7.61 -9.05,28.2499998 -9.66,34.9999998 0,0 33,0 33,0 10.11,0.02 8.81,0.76 17,15.0000002 0,0 23.15,40 23.15,40 2.13,3.7 7.54,14.89 11.06,16.4 1.68,0.72 4.91,0.6 6.79,0.6 0,0 47.9999,0 47.9999,0 0,0 -44.9999,-79.0000002 -44.9999,-79.0000002 5.5599,-1.6199998 9.4799,-4.4599998 13.9999,-8.0099998 14.45,-11.38 22.97,-29.69 23,-47.99 0,0 0,-28 0,-28 0,-14.459999 1.16,-25.109999 -4.45,-38.999999 -3.95,-9.77 -11.17,-19.73 -19.55,-26.1 -21.8099,-16.6 -41.4299,-13.9 -66.9999,-13.9 0,0 -106,0 -106,0 z m 253.9999,0 c 0,0 0,179.9999988 0,179.9999988 0.04,27.4700002 19.71,52.1500002 46,59.5700002 12.63,3.57 28.73,2.43 42,2.43 15.37,0 31.07,1.37 46,-2.91 26.32,-7.54 44.87,-32.89 45,-60.0900002 0,0 0,-178.9999988 0,-178.9999988 0,0 -48,0 -48,0 0,0 0,168.9999988 0,168.9999988 -0.01,4 0.04,7.11 -1.22,11 -4.62,14.2300002 -16.49,14.0000002 -28.78,14.0000002 0,0 -30,0 -30,0 -3.15,0 -5.93,0.1 -9,-0.79 -14.4,-4.16 -14,-15.1500002 -14,-27.2100002 0,0 0,-17.9999998 0,-17.9999998 0,0 0,-147.999999 0,-147.999999 0,0 -48,0 -48,0 z m 233,0 c 0,0 0,145.999999 0,145.999999 0,25.06999982 -2.96,51.26 14.32,72 12.87,15.44 30.61,23.97 50.68,24 0,0 21,0 21,0 13.59,0 33.34,1.19 46,-2.16 30.15,-7.95 47.95,-34.38 48,-64.8400002 0,0 0,-174.9999988 0,-174.9999988 0,0 -49,0 -49,0 0,0 0,171.99999882 0,171.99999882 -0.02,9.87999998 -2.77,17.33000018 -13,20.89000018 -4.55,1.59 -12.01,1.11 -17,1.11 0,0 -29,0 -29,0 -3.4,-0.01 -6.72,0.07 -10,-0.99 -18.01,-5.85 -14,-29.2500002 -14,-44.01 0,0 0,-148.999999 0,-148.999999 0,0 -48,0 -48,0 z m 234,0 c 0,0 0,241.999999 0,241.999999 0,0 48,0 48,0 0,0 0,-147 0,-147 0,0 32.68,53 32.68,53 2.5,3.96 8.6,15.8499998 12.42,17.3999998 1.77,0.72 4.95,0.6 6.9,0.6 0,0 22,0 22,0 1.81,0 5.07,0.14 6.67,-0.57 3.19,-1.41 8.69,-12.0299998 10.73,-15.4299998 0,0 22,-36 22,-36 3.32,-5.5 8.47,-13.22 10.6,-19 0,0 1,18 1,18 0,0 0,30 0,30 0,0 0,99 0,99 0,0 48,0 48,0 0,0 0,-241.999999 0,-241.999999 0,0 -40,0 -40,0 0,0 -7.48,0.99 -7.48,0.99 0,0 -14.94,23.01 -14.94,23.01 0,0 -29.78,48.999999 -29.78,48.999999 0,0 -17.8,30 -17.8,30 0,0 -13.42,-22 -13.42,-22 0,0 -34.18,-55.999999 -34.18,-55.999999 0,0 -10.35,-17 -10.35,-17 0,0 -5.38,-6.98 -5.38,-6.98 0,0 -7.67,-1.02 -7.67,-1.02 0,0 -40,0 -40,0 z"
         id="Selection #1"
         inkscape:connector-curvature="0"
         style="fill:#000000;fill-opacity:1;stroke:none;stroke-width:1" />
    </g>
  </g>
</svg>
