<?xml version="1.0" encoding="UTF-8" standalone="no"?>
<svg
   xmlns:dc="http://purl.org/dc/elements/1.1/"
   xmlns:cc="http://creativecommons.org/ns#"
   xmlns:rdf="http://www.w3.org/1999/02/22-rdf-syntax-ns#"
   xmlns:svg="http://www.w3.org/2000/svg"
   xmlns="http://www.w3.org/2000/svg"
   xmlns:sodipodi="http://sodipodi.sourceforge.net/DTD/sodipodi-0.dtd"
   xmlns:inkscape="http://www.inkscape.org/namespaces/inkscape"
   id="svg9"
   version="1.1"
   viewBox="0 0 480.00001 160"
   sodipodi:docname="Helmes.svg"
   width="480"
   height="160"
   inkscape:version="0.92.4 (5da689c313, 2019-01-14)">
  <sodipodi:namedview
     pagecolor="#ffffff"
     bordercolor="#666666"
     borderopacity="1"
     objecttolerance="10"
     gridtolerance="10"
     guidetolerance="10"
     inkscape:pageopacity="0"
     inkscape:pageshadow="2"
     inkscape:window-width="1920"
     inkscape:window-height="1053"
     id="namedview12"
     showgrid="false"
     inkscape:zoom="0.88684409"
     inkscape:cx="204.0945"
     inkscape:cy="46.063"
     inkscape:window-x="0"
     inkscape:window-y="27"
     inkscape:window-maximized="1"
     inkscape:current-layer="svg9" />
  <metadata
     id="metadata15">
    <rdf:RDF>
      <cc:Work
         rdf:about="">
        <dc:format>image/svg+xml</dc:format>
        <dc:type
           rdf:resource="http://purl.org/dc/dcmitype/StillImage" />
        <dc:title></dc:title>
      </cc:Work>
    </rdf:RDF>
  </metadata>
  <defs
     id="defs13" />
  <g
     id="Logotype_3_"
     transform="matrix(0.86837592,0,0,0.86837592,62.768817,40)"
     style="stroke-width:1.15157497">
    <path
       style="fill:#1318c8;fill-opacity:1;stroke-width:1.15157497"
       d="m 381.048,53.275 -0.634,-0.143 c -9.145,-2.073 -12.568,-2.849 -12.568,-6.948 0,-2.037 1.171,-6.773 12.011,-6.773 7.11,0 11.479,2.131 13.312,7.155 h 13.987 c -2.085,-9.035 -8.525,-18.22 -26.724,-18.22 -8.004,0 -14.685,1.831 -19.321,5.295 -4.611,3.446 -7.048,8.466 -7.048,14.52 0,9.457 5.444,13.493 24.275,17.994 1.464,0.355 2.82,0.664 4.066,0.947 7.199,1.639 11.545,2.627 11.545,7.413 0,4.417 -4.08,6.656 -12.127,6.656 -9.202,0 -14.445,-2.736 -16.388,-9.241 h -13.937 c 2.824,12.756 14.094,20.196 29.858,20.196 12.973,0 26.835,-5.206 26.835,-19.819 -10e-4,-11.51 -8.694,-14.775 -27.142,-19.032 z"
       id="S_1_"
       inkscape:connector-curvature="0" />
    <path
       style="fill:#1318c8;fill-opacity:1;stroke-width:1.15157497"
       d="m 311.811,28.346 c -17.615,0 -31.89,14.28 -31.89,31.89 0,17.615 14.275,31.89 31.89,31.89 13.485,0 25.015,-8.37 29.68,-20.195 h -15.51 c -3.23,4.735 -8.375,7.795 -14.17,7.795 -8.57,0 -15.725,-6.695 -17.365,-15.59 h 49.02 a 32.35,32.35 0 0 0 0.235,-3.9 c 0,-17.61 -14.28,-31.89 -31.89,-31.89 z m -16.635,25.16 c 2.49,-7.445 9,-12.76 16.635,-12.76 7.635,0 14.14,5.315 16.63,12.76 z"
       id="E_3_"
       inkscape:connector-curvature="0" />
    <path
       style="fill:#1318c8;fill-opacity:1;stroke-width:1.15157497"
       d="m 243.78,28.346 c -7.246,0 -13.781,3.026 -18.425,7.877 -4.644,-4.851 -11.179,-7.877 -18.425,-7.877 -14.09,0 -25.512,11.422 -25.512,25.512 v 38.268 h 14.173 V 53.858 c 0,-6.252 5.087,-11.339 11.339,-11.339 6.252,0 11.339,5.086 11.339,11.339 v 38.268 h 14.173 V 53.858 c 0,-6.252 5.087,-11.339 11.339,-11.339 6.252,0 11.339,5.086 11.339,11.339 v 38.268 h 14.173 V 53.858 C 269.292,39.768 257.87,28.346 243.78,28.346 Z"
       id="M_1_"
       inkscape:connector-curvature="0" />
    <path
       style="fill:#1318c8;fill-opacity:1;stroke-width:1.15157497"
       d="m 152.362,92.126 h 14.173 V 0 l -14.173,3.023 z"
       id="L_1_"
       inkscape:connector-curvature="0" />
    <path
       style="fill:#1318c8;fill-opacity:1;stroke-width:1.15157497"
       d="m 108.426,28.346 c -17.615,0 -31.89,14.28 -31.89,31.89 0,17.615 14.275,31.89 31.89,31.89 13.485,0 25.015,-8.37 29.68,-20.195 h -15.51 c -3.23,4.735 -8.375,7.795 -14.17,7.795 -8.57,0 -15.725,-6.695 -17.365,-15.59 h 49.02 a 32.35,32.35 0 0 0 0.235,-3.9 c 0,-17.61 -14.28,-31.89 -31.89,-31.89 z m -16.635,25.16 c 2.49,-7.445 9,-12.76 16.635,-12.76 7.635,0 14.14,5.315 16.63,12.76 z"
       id="E_2_"
       inkscape:connector-curvature="0" />
    <path
       style="fill:#1318c8;fill-opacity:1;stroke-width:1.15157497"
       d="m 49.606,14.173 v 31.89 H 14.173 V 14.173 H 0 v 77.953 h 14.173 v -31.89 h 35.433 v 31.89 H 63.78 V 14.173 Z"
       id="H_1_"
       inkscape:connector-curvature="0" />
  </g>
</svg>
