<?xml version="1.0" encoding="UTF-8" standalone="no"?>
<!-- Created with Inkscape (http://www.inkscape.org/) -->

<svg
   xmlns:dc="http://purl.org/dc/elements/1.1/"
   xmlns:cc="http://creativecommons.org/ns#"
   xmlns:rdf="http://www.w3.org/1999/02/22-rdf-syntax-ns#"
   xmlns:svg="http://www.w3.org/2000/svg"
   xmlns="http://www.w3.org/2000/svg"
   xmlns:sodipodi="http://sodipodi.sourceforge.net/DTD/sodipodi-0.dtd"
   xmlns:inkscape="http://www.inkscape.org/namespaces/inkscape"
   width="640"
   height="80"
   viewBox="0 0 640 80"
   version="1.1"
   id="svg8"
   inkscape:version="0.92.4 (5da689c313, 2019-01-14)"
   sodipodi:docname="OLE ROHKEM.svg">
  <defs
     id="defs2" />
  <sodipodi:namedview
     id="base"
     pagecolor="#ffffff"
     bordercolor="#666666"
     borderopacity="1.0"
     inkscape:pageopacity="0.0"
     inkscape:pageshadow="2"
     inkscape:zoom="0.7"
     inkscape:cx="349.81032"
     inkscape:cy="147.41168"
     inkscape:document-units="px"
     inkscape:current-layer="layer1"
     showgrid="false"
     units="px"
     inkscape:pagecheckerboard="false"
     showborder="true"
     borderlayer="false"
     inkscape:window-width="1920"
     inkscape:window-height="1053"
     inkscape:window-x="0"
     inkscape:window-y="27"
     inkscape:window-maximized="1" />
  <metadata
     id="metadata5">
    <rdf:RDF>
      <cc:Work
         rdf:about="">
        <dc:format>image/svg+xml</dc:format>
        <dc:type
           rdf:resource="http://purl.org/dc/dcmitype/StillImage" />
        <dc:title></dc:title>
      </cc:Work>
    </rdf:RDF>
  </metadata>
  <g
     inkscape:label="Layer 1"
     inkscape:groupmode="layer"
     id="layer1"
     transform="translate(0,-687.66669)">
    <g
       aria-label="OLE ROHKEM."
       transform="matrix(2.6161089,0,0,2.6161089,1508.1935,1866.0716)"
       style="font-style:normal;font-weight:normal;font-size:40px;line-height:1.25;font-family:sans-serif;letter-spacing:0px;word-spacing:0px;fill:#3751b8;fill-opacity:1;stroke:none;stroke-width:0.38224706"
       id="flowRoot812">
      <path
         d="m -567.14258,-435.15195 q 0,3.4 0.64,4.92 0.68,1.48 2.76,1.48 2.12,0 2.76,-1.48 0.64,-1.48 0.64,-4.92 0,-3.48 -0.64,-4.92 -0.6,-1.48 -2.72,-1.48 -2.12,0 -2.8,1.52 -0.64,1.48 -0.64,4.88 z m 16.16,0 q 0,7.32 -3.04,10.64 -3.04,3.28 -9.72,3.28 -6.64,0 -9.72,-3.32 -3.04,-3.32 -3.04,-10.6 0,-7.32 3.04,-10.6 3.04,-3.32 9.72,-3.32 6.68,0 9.72,3.32 3.04,3.28 3.04,10.6 z"
         style="font-style:normal;font-variant:normal;font-weight:900;font-stretch:normal;font-family:'Titillium Web';-inkscape-font-specification:'Titillium Web Heavy';fill:#3751b8;fill-opacity:1;stroke-width:0.14611283"
         id="path867"
         inkscape:connector-curvature="0" />
      <path
         d="m -531.1457,-421.75195 h -18 v -26.8 h 9.28 v 19.24 h 8.72 z"
         style="font-style:normal;font-variant:normal;font-weight:900;font-stretch:normal;font-family:'Titillium Web';-inkscape-font-specification:'Titillium Web Heavy';fill:#3751b8;fill-opacity:1;stroke-width:0.14611283"
         id="path869"
         inkscape:connector-curvature="0" />
      <path
         d="m -529.61445,-421.75195 v -26.8 h 20.08 v 7.4 h -10.8 v 2.28 h 8.4 v 7.32 h -8.4 v 2.4 h 10.8 v 7.4 z"
         style="font-style:normal;font-variant:normal;font-weight:900;font-stretch:normal;font-family:'Titillium Web';-inkscape-font-specification:'Titillium Web Heavy';fill:#3751b8;fill-opacity:1;stroke-width:0.14611283"
         id="path871"
         inkscape:connector-curvature="0" />
      <path
         d="m -487.50758,-428.67195 h -2.28 v 6.92 h -9.28 v -26.8 h 11.28 q 6.2,0 8.88,2.08 2.68,2.04 2.68,7.64 0,5.56 -2.96,7.96 l 2.64,9.12 h -9.44 z m -0.04,-7.32 q 1.96,0 1.96,-2.6 0,-2.64 -2.2,-2.64 h -2.04 v 5.24 z"
         style="font-style:normal;font-variant:normal;font-weight:900;font-stretch:normal;font-family:'Titillium Web';-inkscape-font-specification:'Titillium Web Heavy';fill:#3751b8;fill-opacity:1;stroke-width:0.14611283"
         id="path873"
         inkscape:connector-curvature="0" />
      <path
         d="m -465.58008,-435.15195 q 0,3.4 0.64,4.92 0.68,1.48 2.76,1.48 2.12,0 2.76,-1.48 0.64,-1.48 0.64,-4.92 0,-3.48 -0.64,-4.92 -0.6,-1.48 -2.72,-1.48 -2.12,0 -2.8,1.52 -0.64,1.48 -0.64,4.88 z m 16.16,0 q 0,7.32 -3.04,10.64 -3.04,3.28 -9.72,3.28 -6.64,0 -9.72,-3.32 -3.04,-3.32 -3.04,-10.6 0,-7.32 3.04,-10.6 3.04,-3.32 9.72,-3.32 6.68,0 9.72,3.32 3.04,3.28 3.04,10.6 z"
         style="font-style:normal;font-variant:normal;font-weight:900;font-stretch:normal;font-family:'Titillium Web';-inkscape-font-specification:'Titillium Web Heavy';fill:#3751b8;fill-opacity:1;stroke-width:0.14611283"
         id="path875"
         inkscape:connector-curvature="0" />
      <path
         d="m -433.0632,-421.75195 v -9.36 h -5.24 v 9.36 h -9.28 v -26.8 h 9.28 v 9.88 h 5.24 v -9.88 h 9.28 v 26.8 z"
         style="font-style:normal;font-variant:normal;font-weight:900;font-stretch:normal;font-family:'Titillium Web';-inkscape-font-specification:'Titillium Web Heavy';fill:#3751b8;fill-opacity:1;stroke-width:0.14611283"
         id="path877"
         inkscape:connector-curvature="0" />
      <path
         d="m -412.13133,-430.67195 v 8.92 h -9.28 v -26.8 h 9.28 v 9.48 h 1.6 l 3,-9.48 h 9.2 l -4.28,12.96 4.68,13.84 h -9.32 l -3.24,-8.92 z"
         style="font-style:normal;font-variant:normal;font-weight:900;font-stretch:normal;font-family:'Titillium Web';-inkscape-font-specification:'Titillium Web Heavy';fill:#3751b8;fill-opacity:1;stroke-width:0.14611283"
         id="path879"
         inkscape:connector-curvature="0" />
      <path
         d="m -397.03633,-421.75195 v -26.8 h 20.08 v 7.4 h -10.8 v 2.28 h 8.4 v 7.32 h -8.4 v 2.4 h 10.8 v 7.4 z"
         style="font-style:normal;font-variant:normal;font-weight:900;font-stretch:normal;font-family:'Titillium Web';-inkscape-font-specification:'Titillium Web Heavy';fill:#3751b8;fill-opacity:1;stroke-width:0.14611283"
         id="path881"
         inkscape:connector-curvature="0" />
      <path
         d="m -375.0832,-421.75195 v -26.8 h 13.8 l 2.08,10.24 1.72,-10.24 h 14.2 v 26.8 h -9.28 v -13.8 h -0.44 l -2.32,13.52 h -7.76 l -2.28,-13.52 h -0.44 v 13.8 z"
         style="font-style:normal;font-variant:normal;font-weight:900;font-stretch:normal;font-family:'Titillium Web';-inkscape-font-specification:'Titillium Web Heavy';fill:#3751b8;fill-opacity:1;stroke-width:0.14611283"
         id="path883"
         inkscape:connector-curvature="0" />
      <path
         d="m -340.98445,-421.75195 v -7.96 h 9.12 v 7.96 z"
         style="font-style:normal;font-variant:normal;font-weight:900;font-stretch:normal;font-family:'Titillium Web';-inkscape-font-specification:'Titillium Web Heavy';fill:#3751b8;fill-opacity:1;stroke-width:0.14611283"
         id="path885"
         inkscape:connector-curvature="0" />
    </g>
  </g>
</svg>
