<?xml version="1.0" encoding="UTF-8" standalone="no"?>
<!-- Generator: Adobe Illustrator 20.1.0, SVG Export Plug-In . SVG Version: 6.00 Build 0)  -->

<svg
   xmlns:dc="http://purl.org/dc/elements/1.1/"
   xmlns:cc="http://creativecommons.org/ns#"
   xmlns:rdf="http://www.w3.org/1999/02/22-rdf-syntax-ns#"
   xmlns:svg="http://www.w3.org/2000/svg"
   xmlns="http://www.w3.org/2000/svg"
   xmlns:sodipodi="http://sodipodi.sourceforge.net/DTD/sodipodi-0.dtd"
   xmlns:inkscape="http://www.inkscape.org/namespaces/inkscape"
   version="1.1"
   id="Layer_1"
   x="0px"
   y="0px"
   viewBox="0 0 228.2 43.6"
   enable-background="new 0 0 228.2 43.6"
   xml:space="preserve"
   sodipodi:docname="Wisemedia.svg"
   inkscape:version="0.92.4 (5da689c313, 2019-01-14)"><metadata
   id="metadata31"><rdf:RDF><cc:Work
       rdf:about=""><dc:format>image/svg+xml</dc:format><dc:type
         rdf:resource="http://purl.org/dc/dcmitype/StillImage" /></cc:Work></rdf:RDF></metadata><defs
   id="defs29" /><sodipodi:namedview
   pagecolor="#ffffff"
   bordercolor="#666666"
   borderopacity="1"
   objecttolerance="10"
   gridtolerance="10"
   guidetolerance="10"
   inkscape:pageopacity="0"
   inkscape:pageshadow="2"
   inkscape:window-width="1920"
   inkscape:window-height="1053"
   id="namedview27"
   showgrid="false"
   inkscape:zoom="4.4868126"
   inkscape:cx="120.40395"
   inkscape:cy="1.9810301"
   inkscape:window-x="0"
   inkscape:window-y="27"
   inkscape:window-maximized="1"
   inkscape:current-layer="g24" />
<g
   id="g24">
	<g
   id="g20"
   style="fill:#404041;fill-opacity:1">
		<path
   fill="#FFFFFF"
   d="M41.4,14.8l-6.6,23h-7.5l-3.4-13.5c-0.2-0.9-0.4-1.9-0.4-2.9h-0.1c-0.1,1.2-0.3,2.1-0.4,2.9l-3.6,13.6    h-7.4l-6.5-23h7.2l3.2,15c0.1,0.7,0.3,1.6,0.3,2.6h0.1c0.1-1,0.2-1.9,0.4-2.7l4-14.9h6.8l3.6,15c0.1,0.4,0.2,1.2,0.3,2.6h0.2    c0.1-0.9,0.2-1.7,0.4-2.6l3-15H41.4z"
   id="path2"
   style="fill:#404041;fill-opacity:1" />
		<path
   fill="#FFFFFF"
   d="M51.8,37.8h-7.1v-23h7.1V37.8z"
   id="path4"
   style="fill:#404041;fill-opacity:1" />
		<path
   fill="#FFFFFF"
   d="M56.3,37.2v-5.7c1.2,0.7,2.3,1.2,3.5,1.6c1.2,0.3,2.3,0.5,3.3,0.5c1.3,0,2.3-0.2,3-0.5    c0.7-0.3,1.1-0.9,1.1-1.6c0-0.4-0.2-0.8-0.5-1.1c-0.3-0.3-0.8-0.6-1.3-0.8c-0.5-0.2-1.1-0.4-1.7-0.6c-0.6-0.2-1.2-0.4-1.8-0.6    c-0.9-0.3-1.7-0.7-2.4-1.1c-0.7-0.4-1.3-0.9-1.8-1.4c-0.5-0.5-0.8-1.1-1.1-1.8c-0.2-0.7-0.4-1.5-0.4-2.4c0-1.3,0.3-2.4,0.8-3.3    c0.6-0.9,1.3-1.7,2.2-2.3c0.9-0.6,2-1,3.2-1.3c1.2-0.3,2.5-0.4,3.8-0.4c1,0,2.1,0.1,3.1,0.2c1,0.2,2.1,0.4,3.1,0.7v5.5    c-0.9-0.5-1.9-0.9-2.9-1.2c-1-0.3-2-0.4-3-0.4c-0.5,0-0.9,0-1.3,0.1c-0.4,0.1-0.8,0.2-1.1,0.4c-0.3,0.2-0.6,0.4-0.7,0.6    c-0.2,0.2-0.3,0.5-0.3,0.8c0,0.4,0.1,0.8,0.4,1.1c0.3,0.3,0.6,0.6,1.1,0.8c0.4,0.2,0.9,0.4,1.4,0.6c0.5,0.2,1.1,0.3,1.6,0.5    c0.9,0.3,1.8,0.7,2.6,1.1c0.8,0.4,1.4,0.8,2,1.4c0.5,0.5,1,1.1,1.3,1.8c0.3,0.7,0.4,1.5,0.4,2.5c0,1.4-0.3,2.5-0.9,3.5    c-0.6,1-1.4,1.8-2.4,2.4c-1,0.6-2.1,1-3.4,1.3c-1.3,0.3-2.6,0.4-4,0.4C60.8,38.4,58.5,38,56.3,37.2z"
   id="path6"
   style="fill:#404041;fill-opacity:1" />
		<path
   fill="#FFFFFF"
   d="M98.7,28.3h-15c0.2,3.3,2.3,5,6.3,5c2.5,0,4.8-0.6,6.7-1.8v5.1c-2.1,1.1-4.9,1.7-8.3,1.7    c-3.7,0-6.6-1-8.7-3.1c-2.1-2.1-3.1-4.9-3.1-8.6c0-3.8,1.1-6.8,3.3-9.1c2.2-2.2,4.9-3.3,8.2-3.3c3.4,0,6,1,7.8,3    c1.8,2,2.8,4.7,2.8,8.1V28.3z M92.2,24c0-3.3-1.3-4.9-4-4.9c-1.1,0-2.1,0.5-3,1.4c-0.8,0.9-1.3,2.1-1.5,3.5H92.2z"
   id="path8"
   style="fill:#404041;fill-opacity:1" />
		<path
   fill="#FFFFFF"
   d="M136.4,37.8h-3.7V24.6c0-2.5-0.4-4.4-1.2-5.5c-0.8-1.1-2.1-1.7-4-1.7c-1.6,0-2.9,0.7-4,2.2    c-1.1,1.4-1.7,3.2-1.7,5.2v13.1h-3.7V24.1c0-4.5-1.7-6.8-5.2-6.8c-1.6,0-3,0.7-4,2c-1,1.4-1.6,3.1-1.6,5.3v13.1h-3.7v-23h3.7v3.6    h0.1c1.6-2.8,4-4.2,7.1-4.2c1.6,0,2.9,0.4,4.1,1.3c1.2,0.9,2,2,2.4,3.4c1.7-3.2,4.3-4.8,7.6-4.8c5.1,0,7.6,3.1,7.6,9.4V37.8z"
   id="path10"
   style="fill:#404041;fill-opacity:1" />
		<path
   fill="#FFFFFF"
   d="M161.9,27.2h-16.3c0.1,2.6,0.8,4.5,2.1,5.9c1.3,1.4,3.1,2.1,5.4,2.1c2.6,0,5-0.9,7.1-2.6v3.5    c-2,1.5-4.7,2.2-8,2.2c-3.3,0-5.8-1-7.7-3.1c-1.9-2.1-2.8-5-2.8-8.8c0-3.6,1-6.5,3-8.7c2-2.3,4.6-3.4,7.6-3.4c3,0,5.3,1,7,2.9    c1.6,1.9,2.5,4.7,2.5,8.1V27.2z M158.1,24.1c0-2.1-0.5-3.8-1.5-5c-1-1.2-2.4-1.8-4.2-1.8c-1.7,0-3.2,0.6-4.4,1.9    c-1.2,1.2-2,2.9-2.2,4.9H158.1z"
   id="path12"
   style="fill:#404041;fill-opacity:1" />
		<path
   fill="#FFFFFF"
   d="M187.1,37.8h-3.7v-3.9h-0.1c-1.7,3-4.3,4.4-7.9,4.4c-2.9,0-5.2-1-6.9-3.1c-1.7-2.1-2.6-4.9-2.6-8.4    c0-3.8,1-6.9,2.9-9.1c1.9-2.3,4.5-3.4,7.7-3.4c3.2,0,5.5,1.2,6.9,3.7h0.1V3.7h3.7V37.8z M183.4,27.4V24c0-1.9-0.6-3.4-1.8-4.7    c-1.2-1.3-2.8-1.9-4.7-1.9c-2.2,0-4,0.8-5.3,2.5c-1.3,1.6-1.9,3.9-1.9,6.8c0,2.7,0.6,4.7,1.9,6.3c1.2,1.5,2.9,2.3,5,2.3    c2.1,0,3.7-0.7,5-2.2C182.8,31.5,183.4,29.7,183.4,27.4z"
   id="path14"
   style="fill:#404041;fill-opacity:1" />
		<path
   fill="#FFFFFF"
   d="M195.4,9c-0.7,0-1.2-0.2-1.7-0.7c-0.5-0.4-0.7-1-0.7-1.7c0-0.7,0.2-1.3,0.7-1.7c0.5-0.5,1-0.7,1.7-0.7    c0.7,0,1.2,0.2,1.7,0.7c0.5,0.5,0.7,1,0.7,1.7c0,0.7-0.2,1.2-0.7,1.7C196.7,8.7,196.1,9,195.4,9z M197.2,37.8h-3.7v-23h3.7V37.8z"
   id="path16"
   style="fill:#404041;fill-opacity:1" />
		<path
   fill="#FFFFFF"
   d="M221.2,37.8h-3.7v-3.6h-0.1c-1.6,2.8-4,4.1-7.1,4.1c-2.3,0-4.1-0.6-5.4-1.8c-1.3-1.2-1.9-2.8-1.9-4.8    c0-4.3,2.5-6.8,7.6-7.5l6.9-1c0-3.9-1.6-5.9-4.7-5.9c-2.8,0-5.3,0.9-7.5,2.8v-3.8c2.3-1.4,4.9-2.2,7.8-2.2c5.4,0,8.1,2.9,8.1,8.6    V37.8z M217.5,26.2l-5.6,0.8c-1.7,0.2-3,0.7-3.9,1.3c-0.9,0.6-1.3,1.7-1.3,3.2c0,1.1,0.4,2,1.2,2.8c0.8,0.7,1.9,1.1,3.2,1.1    c1.8,0,3.3-0.6,4.5-1.9c1.2-1.3,1.8-2.9,1.8-4.9V26.2z"
   id="path18"
   style="fill:#404041;fill-opacity:1" />
	</g>
	<path
   fill="#EA324E"
   d="M48.3,11.2c-1.2,0-2.2-0.4-2.9-1.1c-0.8-0.7-1.1-1.6-1.1-2.6c0-1.1,0.4-1.9,1.1-2.6c0.8-0.7,1.7-1,2.9-1   c1.2,0,2.2,0.3,3,1c0.8,0.7,1.1,1.5,1.1,2.6c0,1.1-0.4,2-1.1,2.7C50.5,10.8,49.5,11.2,48.3,11.2z"
   id="path22" />
</g>
</svg>