<?xml version="1.0" encoding="utf-8"?>
<svg version="1.1" id="Layer_1" x="0px" y="0px" viewBox="0 0 54 54" style="enable-background:new 0 0 54 54;" xmlns="http://www.w3.org/2000/svg">
  <style type="text/css">
	.st0{fill:none;}
</style>
  <g>
	    <path d="M 54 27 C 54 32.426 54 36.084 53.875 38.102 C 53.621 43.023 52.235 46.809 49.458 49.458 C 46.683 52.107 43.024 53.622 38.103 53.874 C 36.084 54 32.299 54 27 54 C 21.576 54 17.916 54 15.897 53.874 C 10.976 53.622 7.192 52.234 4.543 49.458 C 1.893 46.809 0.379 43.023 0.126 38.102 C 0 36.084 0 32.299 0 27 C 0 21.701 0 17.916 0.126 15.898 C 0.379 10.977 1.766 7.191 4.543 4.542 C 7.192 1.893 10.976 0.378 15.897 0.126 C 17.916 0 21.701 0 27 0 C 32.424 0 36.084 0 38.103 0.126 C 43.024 0.378 46.808 1.766 49.458 4.542 C 52.107 7.318 53.621 10.977 53.875 15.898 C 53.875 17.916 54 21.574 54 27 Z M 29.649 4.794 C 28.009 4.794 27.126 4.794 27 4.794 C 26.875 4.794 25.991 4.794 24.351 4.794 C 22.711 4.794 21.448 4.794 20.692 4.794 C 19.808 4.794 18.673 4.794 17.284 4.92 C 15.897 4.92 14.635 5.046 13.626 5.299 C 12.616 5.426 11.734 5.677 11.103 5.93 C 9.967 6.435 8.958 7.065 7.948 7.948 C 7.065 8.831 6.435 9.841 5.929 11.102 C 5.677 11.734 5.424 12.617 5.299 13.627 C 5.173 14.635 5.047 15.771 4.92 17.285 C 4.92 18.672 4.795 19.809 4.795 20.692 C 4.795 21.574 4.795 22.836 4.795 24.351 C 4.795 25.991 4.795 26.874 4.795 27 C 4.795 27.126 4.795 28.009 4.795 29.649 C 4.795 31.289 4.795 32.552 4.795 33.308 C 4.795 34.191 4.795 35.328 4.92 36.715 C 4.92 38.102 5.047 39.365 5.299 40.373 C 5.552 41.383 5.677 42.266 5.929 42.898 C 6.435 44.032 7.065 45.042 7.948 46.052 C 8.832 46.935 9.841 47.565 11.103 48.07 C 11.734 48.323 12.616 48.574 13.626 48.701 C 14.635 48.828 15.771 48.953 17.284 49.08 C 18.799 49.206 19.808 49.206 20.692 49.206 C 21.576 49.206 22.836 49.206 24.351 49.206 C 25.991 49.206 26.875 49.206 27 49.206 C 27.126 49.206 28.009 49.206 29.649 49.206 C 31.29 49.206 32.552 49.206 33.308 49.206 C 34.192 49.206 35.327 49.206 36.716 49.08 C 38.103 49.08 39.365 48.953 40.375 48.701 C 41.384 48.574 42.266 48.323 42.897 48.07 C 44.033 47.565 45.043 46.935 46.052 46.052 C 46.935 45.169 47.565 44.159 48.071 42.898 C 48.323 42.266 48.576 41.383 48.701 40.373 C 48.827 39.365 48.953 38.229 49.08 36.715 C 49.08 35.328 49.207 34.191 49.207 33.308 C 49.207 32.426 49.207 31.164 49.207 29.649 C 49.207 28.009 49.207 27.126 49.207 27 C 49.207 26.874 49.207 25.991 49.207 24.351 C 49.207 22.711 49.207 21.448 49.207 20.692 C 49.207 19.809 49.207 18.672 49.08 17.285 C 49.08 15.898 48.953 14.635 48.701 13.627 C 48.576 12.617 48.323 11.734 48.071 11.102 C 47.565 9.968 46.935 8.958 46.052 7.948 C 45.168 7.065 44.159 6.435 42.897 5.93 C 42.266 5.677 41.384 5.426 40.375 5.299 C 39.365 5.172 38.229 5.046 36.716 4.92 C 35.327 4.92 34.192 4.794 33.308 4.794 C 32.552 4.794 31.29 4.794 29.649 4.794 Z M 36.716 17.159 C 39.365 19.809 40.752 23.089 40.752 27 C 40.752 30.911 39.365 34.065 36.716 36.841 C 34.065 39.49 30.784 40.879 26.875 40.879 C 22.963 40.879 19.808 39.49 17.033 36.841 C 14.384 34.191 12.995 30.911 12.995 27 C 12.995 23.089 14.384 19.935 17.033 17.159 C 19.683 14.51 22.963 13.121 26.875 13.121 C 30.784 13.121 34.065 14.383 36.716 17.159 Z M 33.308 33.308 C 35.076 31.542 35.958 29.397 35.958 27 C 35.958 24.603 35.076 22.332 33.308 20.565 C 31.543 18.799 29.397 17.916 26.875 17.916 C 24.351 17.916 22.205 18.799 20.439 20.565 C 18.673 22.332 17.789 24.477 17.789 27 C 17.789 29.523 18.673 31.668 20.439 33.308 C 22.205 35.075 24.351 35.958 26.875 35.958 C 29.397 35.958 31.543 35.075 33.308 33.308 Z M 43.655 10.219 C 44.284 10.85 44.664 11.608 44.664 12.49 C 44.664 13.373 44.284 14.131 43.655 14.761 C 43.024 15.392 42.266 15.771 41.384 15.771 C 40.5 15.771 39.744 15.392 39.112 14.761 C 38.481 14.131 38.103 13.373 38.103 12.49 C 38.103 11.608 38.481 10.85 39.112 10.219 C 39.744 9.589 40.5 9.209 41.384 9.209 C 42.266 9.209 43.024 9.589 43.655 10.219 Z" style=""/>
  </g>
</svg>