<?xml version="1.0" encoding="UTF-8" standalone="no"?>
<svg
   xmlns:dc="http://purl.org/dc/elements/1.1/"
   xmlns:cc="http://creativecommons.org/ns#"
   xmlns:rdf="http://www.w3.org/1999/02/22-rdf-syntax-ns#"
   xmlns:svg="http://www.w3.org/2000/svg"
   xmlns="http://www.w3.org/2000/svg"
   viewBox="0 0 600 273"
   height="273"
   width="600"
   id="svg2"
   version="1.1">
  <metadata
     id="metadata8">
    <rdf:RDF>
      <cc:Work
         rdf:about="">
        <dc:format>image/svg+xml</dc:format>
        <dc:type
           rdf:resource="http://purl.org/dc/dcmitype/StillImage" />
        <dc:title></dc:title>
      </cc:Work>
    </rdf:RDF>
  </metadata>
  <defs
     id="defs6" />
  <path
     id="path1387"
     d="M 425.08398 38.519531 L 420.53711 39.886719 C 418.03683 40.639191 415.82457 41.421528 415.62109 41.625 C 415.41762 41.828472 416.0951 44.783434 417.12695 48.191406 C 418.1588 51.599377 418.70744 54.561873 418.3457 54.775391 C 417.98395 54.98891 415.08018 55.741551 411.89258 56.447266 C 408.70497 57.15298 405.94768 57.991187 405.76562 58.310547 C 405.58359 58.629908 406.05824 60.996085 406.82031 63.568359 L 408.20508 68.246094 L 414.74414 66.376953 L 421.28125 64.505859 L 422.10742 66.699219 C 422.56175 67.905216 423.26798 70.467578 423.67773 72.392578 C 424.08748 74.317578 424.62245 76.230078 424.86523 76.642578 C 425.10802 77.055078 425.84105 77.389819 426.49609 77.386719 C 427.79053 77.380619 435.19543 75.426695 435.17773 75.095703 C 435.17173 74.984055 434.49677 72.682334 433.67773 69.982422 C 431.3254 62.22819 431.51169 61.749867 437.4375 60.363281 C 445.14732 58.559251 445.13089 58.579945 443.55469 53.234375 L 442.18164 48.574219 L 436.93359 49.970703 C 430.58429 51.66098 428.1875 51.751721 428.1875 50.296875 C 428.1875 49.694024 427.48862 46.796532 426.63477 43.859375 L 425.08398 38.519531 z M 463.33984 59.521484 C 460.42191 59.646477 440.76469 64.420678 439.00781 65.503906 C 438.39074 65.88437 439.18458 70.331761 441.10156 77.238281 C 442.79927 83.3548 444.1875 89.094004 444.1875 89.992188 C 444.1875 91.205766 444.76545 91.464363 446.4375 90.996094 C 447.675 90.649524 453.33998 89.179889 459.02539 87.732422 C 464.71081 86.284956 469.5732 84.554189 469.83008 83.884766 C 470.30255 82.65354 464.73903 60.608162 463.69141 59.560547 C 463.65591 59.525077 463.53437 59.513144 463.33984 59.521484 z M 455.70117 71.646484 C 456.80053 71.596144 457.11259 72.212114 457.46875 74.066406 C 457.76722 75.620445 457.93776 76.967757 457.84766 77.060547 C 457.75756 77.153337 456.46596 77.53488 454.97852 77.908203 C 452.63766 78.495722 452.18574 78.231962 451.61133 75.943359 C 450.83351 72.844265 450.89225 72.755884 454.30859 71.898438 C 454.88106 71.754756 455.33472 71.663263 455.70117 71.646484 z M 483.4707 72.392578 C 480.96368 72.392578 474.1875 74.917207 474.1875 75.851562 C 474.1875 76.523858 474.85868 79.282511 475.67773 81.982422 C 476.49677 84.682334 477.17173 87.179826 477.17773 87.53125 C 477.18373 87.882673 474.2625 88.961979 470.6875 89.929688 C 467.1125 90.897396 464.1875 91.872838 464.1875 92.097656 C 464.1875 93.466901 466.51076 101.39258 466.91211 101.39258 C 467.17993 101.39258 470.11895 100.68761 473.44336 99.826172 C 480.39612 98.02453 480.32875 97.976737 482.13477 106.04688 C 483.00023 109.91416 483.76093 111.38574 484.70508 111.02344 C 485.44257 110.74044 487.65313 110.2083 489.61719 109.83984 C 493.71895 109.07035 493.72388 109.04628 491.58008 101.67188 C 489.70382 95.217747 489.8389 95.040516 497.9375 93.347656 C 500.825 92.744079 503.1875 92.031127 503.1875 91.763672 C 503.1875 89.29845 500.70226 82.394997 499.81836 82.404297 C 499.19615 82.410797 496.23083 83.069647 493.22656 83.869141 C 486.97694 85.532285 487.03062 85.572958 485.16797 77.808594 C 484.4532 74.829074 483.6893 72.392578 483.4707 72.392578 z M 437.09375 85.117188 C 436.27765 85.053758 434.57685 85.266379 432.71094 85.693359 C 427.61437 86.85962 427.44588 87.374151 429.70703 94.828125 C 431.43194 100.51439 431.41203 100.53934 423.60547 102.41211 C 417.77732 103.81026 417.66982 103.98779 419.24023 109.64258 C 420.41137 113.85963 420.90255 113.98848 427.7793 111.90234 C 430.47921 111.0833 432.97475 110.40834 433.32617 110.40234 C 433.6776 110.39634 434.75691 113.31758 435.72461 116.89258 C 436.69232 120.46758 437.92864 123.39258 438.4707 123.39258 C 440.27918 123.39258 447.18778 121.0845 447.17578 120.48438 C 447.16878 120.15893 446.49944 117.41758 445.6875 114.39258 C 444.87556 111.36758 444.20622 108.60533 444.19922 108.25391 C 444.19222 107.90248 447.1448 106.81447 450.75977 105.83594 C 456.60016 104.25503 457.26659 103.82456 456.73633 101.97461 C 456.40812 100.82956 455.86957 98.655082 455.53906 97.142578 C 454.83822 93.935384 455.23041 94.002181 448.1875 95.892578 C 445.1625 96.704522 442.36394 97.374359 441.9668 97.380859 C 441.56967 97.387359 440.50147 94.805078 439.59375 91.642578 C 438.68603 88.480078 437.7846 85.614536 437.58984 85.275391 C 437.54114 85.190601 437.36578 85.138329 437.09375 85.117188 z M 521.86523 92.978516 C 519.75567 92.840971 506.26466 96.08398 497.54688 98.878906 C 496.46013 99.227316 496.9892 101.7022 502.11328 120.23438 C 503.48282 125.18756 501.60215 125.1351 518.95508 120.70312 C 527.19521 118.5986 529.13047 117.76587 528.75391 116.48633 C 528.49583 115.60939 527.0625 110.16758 525.56836 104.39258 C 524.07422 98.617578 522.52766 93.514333 522.13086 93.052734 C 522.09616 93.012384 522.00587 92.987686 521.86523 92.978516 z M 476.17578 104.53906 L 466.93164 106.94922 C 461.84769 108.27406 456.048 109.81841 454.04297 110.38281 L 450.39648 111.41016 L 452.8418 120.65039 C 454.18654 125.73303 455.72238 131.54236 456.25391 133.55859 L 457.2207 137.22461 L 467.95312 134.29297 C 473.85688 132.68051 479.7 131.09347 480.9375 130.76758 C 483.6449 130.0546 483.62195 130.68968 481.25 122.54688 C 480.18376 118.88649 478.6045 113.33868 477.74219 110.2168 L 476.17578 104.53906 z M 512.63477 105.26172 C 513.9325 105.15379 515.29191 105.95862 515.78906 107.93945 C 516.14062 109.34006 516.26214 110.62682 516.05859 110.79883 C 515.85503 110.97085 514.50213 111.39518 513.05273 111.74219 C 510.76509 112.2899 510.34884 112.01132 509.89453 109.63477 C 509.39974 107.04642 510.96625 105.40048 512.63477 105.26172 z M 542.00586 105.54297 L 537.49805 106.89844 C 535.01881 107.64458 532.82757 108.42048 532.62695 108.62109 C 532.42634 108.82171 532.91468 111.44003 533.71289 114.43945 C 534.51111 117.43888 535.16878 120.36151 535.17578 120.93555 C 535.18278 121.5096 532.47758 122.57979 529.16602 123.31445 C 525.85447 124.04912 522.95342 124.96209 522.71875 125.3418 C 522.48407 125.72152 522.88521 128.02437 523.60938 130.46094 C 525.06781 135.36805 525.72052 135.5259 533.39453 132.81836 C 535.59762 132.04107 537.73948 131.61397 538.15234 131.86914 C 538.56521 132.1243 539.47791 135.04718 540.18164 138.36328 C 541.57397 144.92426 541.93824 145.14615 548.21484 143.26562 L 551.97461 142.13867 L 550.08203 135.51953 C 549.04072 131.87827 548.1875 128.84535 548.1875 128.78125 C 548.1875 128.71715 550.92911 128.084 554.2793 127.37305 C 557.62949 126.66209 560.58416 125.52334 560.8457 124.8418 C 561.25004 123.78809 559.51556 115.37084 558.90039 115.40234 C 558.78409 115.40834 556.47921 116.0833 553.7793 116.90234 C 545.94407 119.27924 545.69192 119.15528 543.74609 111.9668 L 542.00586 105.54297 z M 467.69531 117.65039 C 468.80299 117.60089 469.1734 118.19657 469.60938 119.93359 C 469.98091 121.4155 470.14977 122.76429 469.98438 122.92969 C 469.81896 123.09508 468.50565 123.525 467.06445 123.88672 C 464.81204 124.45204 464.34887 124.16564 463.76758 121.84961 C 462.97384 118.68709 462.937 118.74367 466.3125 117.89648 C 466.8756 117.75515 467.32609 117.66689 467.69531 117.65039 z M 493.94336 118.62891 C 493.40984 118.65101 492.77948 118.75392 492.01953 118.89648 C 486.09411 120.00809 485.83217 120.45374 487.60742 126.43164 C 488.47678 129.3591 489.1875 132.31622 489.1875 133.00195 C 489.1875 133.69509 486.78229 134.78672 483.76953 135.46094 C 476.19031 137.1571 476.05069 137.29581 477.30469 141.93555 C 477.89271 144.11119 478.67377 146.21266 479.04102 146.60352 C 479.40827 146.99438 482.08864 146.61602 484.99609 145.76367 C 487.90355 144.91138 490.88298 144.44482 491.61719 144.72656 C 492.35139 145.0083 493.51366 147.63475 494.20117 150.56445 C 494.88868 153.49415 495.61486 156.18179 495.81445 156.53711 C 496.34758 157.48621 504.52427 154.8862 504.94141 153.63477 C 505.13705 153.04785 504.64038 150.05355 503.83789 146.98047 C 503.0358 143.90738 502.67296 141.21845 503.0332 141.00586 C 503.39344 140.79327 506.275 140.04776 509.4375 139.34766 C 515.68487 137.96466 515.91911 137.56203 514.0625 131.36523 L 512.93555 127.60547 L 506.31445 129.49805 C 502.67318 130.53936 499.65296 131.39258 499.60156 131.39258 C 499.55016 131.39258 498.9218 128.95413 498.20703 125.97461 C 496.75739 119.93185 496.25529 118.53302 493.94336 118.62891 z M 449.51953 130.39258 C 448.12282 130.39258 440.1875 132.70943 440.1875 133.11719 C 440.1875 133.38501 440.89247 136.32403 441.75391 139.64844 C 443.55555 146.6012 443.60333 146.53382 435.5332 148.33984 C 431.6659 149.2053 430.19434 149.96405 430.55664 150.9082 C 430.83964 151.64569 431.37177 153.85625 431.74023 155.82031 C 432.49858 159.86266 432.80386 159.94221 439.66406 157.86133 C 442.40092 157.03116 445.14812 156.5467 445.76953 156.78516 C 446.39094 157.02362 447.51376 159.98498 448.26367 163.36523 C 449.46834 168.79537 449.86411 169.44312 451.6582 168.92773 C 452.77502 168.6069 454.925 168.0727 456.4375 167.74219 C 459.6221 167.04629 459.80777 165.76813 457.72266 158.83984 C 456.03454 153.23067 456.07223 153.18352 463.76953 151.46094 C 469.56722 150.16347 469.73048 149.88848 468.13477 144.14258 C 466.96275 139.92234 466.6164 139.82824 459.7793 141.90234 C 457.07939 142.72139 454.55869 143.39258 454.17773 143.39258 C 453.79677 143.39258 452.69232 140.46758 451.72461 136.89258 C 450.75691 133.31759 449.76491 130.39258 449.51953 130.39258 z M 533.90234 138.39258 C 532.54819 138.39258 509.81549 144.47482 509.28711 144.97852 C 509.06669 145.18865 510.37005 150.99321 512.18359 157.87695 C 513.99713 164.7607 515.66675 170.39258 515.89258 170.39258 C 518.32034 170.39258 525.1875 167.88736 525.1875 167.00195 C 525.1875 166.36784 524.33836 162.78673 523.30078 159.04492 C 521.96781 154.2378 521.74775 152.13474 522.55078 151.875 C 523.17586 151.67282 526.6125 150.73387 530.1875 149.78906 C 533.7625 148.84425 536.82015 147.97341 536.98242 147.85352 C 537.72956 147.30147 534.82925 138.39258 533.90234 138.39258 z M 487.82617 150.39258 C 487.28063 150.39258 481.5145 151.79893 475.01172 153.51953 C 467.31934 155.55488 463.1875 157.1184 463.1875 157.99414 C 463.1875 158.73446 464.61197 164.5281 466.35156 170.86719 C 468.09116 177.20627 469.72262 182.39258 469.97852 182.39258 C 470.61797 182.39258 494.61311 176.09591 494.99414 175.82812 C 495.73614 175.30668 488.71511 150.39258 487.82617 150.39258 z M 479.99805 162.98633 C 481.0427 162.93573 481.42883 163.50279 481.82617 165.08594 C 482.23735 166.72421 481.9743 167.91433 481.07422 168.48438 C 480.31228 168.96693 478.9 169.36895 477.9375 169.37695 C 476.35946 169.39075 476.10434 168.69188 476.20703 164.64258 C 476.21753 164.23008 477.34307 163.59382 478.70898 163.22852 C 479.22874 163.08951 479.64983 163.00318 479.99805 162.98633 z M 508.16016 163.56055 L 504.42383 164.53125 C 502.36885 165.06483 500.1511 165.67849 499.49414 165.89453 C 498.61041 166.18513 498.78631 167.98793 500.16992 172.82617 C 501.19851 176.42295 501.7349 179.53839 501.36328 179.74805 C 500.99165 179.95772 498.2125 180.69752 495.1875 181.39258 C 492.1625 182.08764 489.39634 182.81994 489.04102 183.01953 C 487.83269 183.69827 490.89797 191.88984 492.47656 192.20117 C 493.34031 192.37152 496.31879 191.83637 499.0957 191.01172 C 501.87261 190.1871 504.32339 189.82381 504.54297 190.20312 C 504.76256 190.58245 505.68603 193.48008 506.59375 196.64258 C 507.50147 199.80508 508.79467 202.38972 509.4668 202.38672 C 510.78335 202.38072 518.19563 200.43129 518.17773 200.0957 C 518.17173 199.98405 517.49677 197.68233 516.67773 194.98242 C 514.30091 187.14747 514.48589 186.69221 520.60742 185.32227 C 528.19648 183.62391 528.3058 183.50835 526.87891 178.67578 C 526.20493 176.39313 525.41633 174.28548 525.125 173.99414 C 524.83366 173.70281 522.40667 174.1229 519.73242 174.92773 C 513.70954 176.74035 511.1875 176.78475 511.1875 175.07422 C 511.1875 174.34905 510.50635 171.46161 509.67383 168.6582 L 508.16016 163.56055 z M 461.49609 176.84961 C 459.30683 176.73223 452.15252 178.0992 452.19531 178.77148 C 452.19931 178.83748 453.08566 181.79327 454.16406 185.33984 C 455.24246 188.8864 456.02635 191.84732 455.90625 191.91992 C 455.78615 191.99252 452.70432 192.83942 449.05859 193.80078 L 442.43164 195.54883 L 443.8125 200.14062 C 444.57256 202.66613 445.34486 204.88196 445.52734 205.06445 C 445.70983 205.24693 448.07026 204.72433 450.77344 203.9043 C 457.68634 201.80722 458.86978 201.97344 459.63477 205.14258 C 459.99986 206.65508 460.735 209.55563 461.26758 211.58789 L 462.23633 215.28125 L 466.81055 213.90625 C 469.32662 213.14903 471.5493 212.36476 471.75 212.16406 C 471.9507 211.96336 471.45522 209.6098 470.65039 206.93555 C 468.29791 199.11886 468.43977 198.8249 475.2168 197.38672 C 478.5329 196.68299 481.40269 195.83393 481.59375 195.5 C 481.78481 195.16608 481.3249 192.81334 480.57227 190.27344 L 479.20508 185.65625 L 472.71289 187.45508 C 469.1427 188.44507 466.05891 188.94931 465.85938 188.57422 C 465.65983 188.19914 464.91119 185.64258 464.19531 182.89258 C 463.47944 180.14258 462.53452 177.48849 462.0957 176.99609 C 462.0211 176.91229 461.80885 176.86638 461.49609 176.84961 z M 545.50586 184.39258 C 544.62269 184.39258 538.77727 185.80097 532.51758 187.52344 C 523.33499 190.05019 521.22546 190.96781 521.59375 192.27344 C 521.8448 193.16347 523.22575 198.39258 524.66406 203.89258 C 526.10237 209.39258 527.45945 214.42827 527.67969 215.08398 C 527.97079 215.95066 530.62153 215.6 537.38477 213.79688 C 542.50173 212.43266 548.3312 210.87749 550.33984 210.3418 L 553.99219 209.36719 L 551.57422 200.62891 C 550.24462 195.82311 548.69752 190.20508 548.13477 188.14258 C 547.49313 185.79092 546.51285 184.39258 545.50586 184.39258 z M 538.70117 196.64648 C 539.80053 196.59618 540.11259 197.21211 540.46875 199.06641 C 540.76722 200.62045 540.93776 201.96775 540.84766 202.06055 C 540.75756 202.15335 539.46596 202.53488 537.97852 202.9082 C 535.63766 203.49572 535.18574 203.23196 534.61133 200.94336 C 533.83351 197.84426 533.89225 197.75588 537.30859 196.89844 C 537.88106 196.75476 538.33472 196.66326 538.70117 196.64648 z M 519.9043 209.76562 C 519.79901 209.74343 519.69425 209.75092 519.58984 209.79102 C 518.89726 210.05678 516.72383 210.57685 514.75977 210.94531 C 512.79572 211.31377 511.18906 212.12762 511.18945 212.75391 C 511.19007 213.74041 515.57209 230.75505 516.68359 234.08594 C 516.97031 234.94516 520.25133 234.43087 528.38477 232.25195 C 534.60134 230.58656 539.82015 229.09161 539.98242 228.92969 C 540.42682 228.48623 538.02443 219.39258 537.46289 219.39258 C 537.19507 219.39258 534.25605 220.09754 530.93164 220.95898 C 523.99404 222.75669 524.09088 222.82389 522.1582 214.76758 C 521.39808 211.59904 520.64129 209.92107 519.9043 209.76562 z "
     style="fill:#1971b9;fill-opacity:1" />
  <path
     id="path1365"
     d="m 154.1875,128.25977 -2.75,0.3164 -2.75,0.31641 -0.26758,23.75 -0.26758,23.75 h 2.97461 2.97657 l 0.29296,-7.42578 0.29102,-7.42383 6.37109,7.42383 c 5.58706,6.51095 6.78707,7.42578 9.75,7.42578 1.85834,0 3.37891,-0.26545 3.37891,-0.58985 0,-0.3244 -3.21335,-4.1504 -7.14258,-8.50195 l -7.14453,-7.91211 6.39453,-7.24805 c 3.51673,-3.98654 6.73008,-7.3987 7.14258,-7.58203 1.96486,-0.87327 0.39235,-2.16601 -2.63477,-2.16601 -2.96488,0 -4.20746,0.9374 -10,7.55273 L 154.1875,157.5 v -14.62109 z"
     style="fill:#1e1e1e;fill-opacity:1" />
  <path
     id="path1363"
     d="M 234.26953 128.39258 C 229.8193 128.39258 229.1875 129.33842 229.1875 136 L 229.1875 142.39258 L 222.62305 142.39258 C 211.30641 142.39258 209.1875 145.13488 209.1875 159.79492 C 209.1875 170.65917 210.34611 174.0954 214.66406 176.04297 C 218.15841 177.61907 224.56113 177.02802 227.9375 174.81836 C 229.93051 173.51399 230.1875 173.52002 230.1875 174.86914 C 230.1875 175.89475 231.16732 176.39258 233.1875 176.39258 L 236.1875 176.39258 L 236.1875 152.39258 C 236.1875 129.40036 236.1072 128.39258 234.26953 128.39258 z M 221.18359 147.69336 C 221.50229 147.68173 221.83642 147.68375 222.1875 147.69727 C 222.98997 147.72817 223.87763 147.82319 224.86133 147.9707 L 229.1875 148.61914 L 229.1875 158.48047 L 229.1875 168.33984 L 226.23828 169.86719 C 224.61559 170.70631 221.90382 171.39258 220.21289 171.39258 C 216.34254 171.39258 215.1875 168.75026 215.1875 159.89258 C 215.1875 150.96878 216.40317 147.86781 221.18359 147.69336 z "
     style="fill:#1e1e1e;fill-opacity:1" />
  <path
     id="path1361"
     d="m 369.1875,129.39258 c -2.83333,0 -3,0.22222 -3,4 0,3.77777 0.16667,4 3,4 2.83333,0 3,-0.22223 3,-4 0,-3.77778 -0.16667,-4 -3,-4 z"
     style="fill:#1e1e1e;fill-opacity:1" />
  <path
     id="path1359"
     d="m 45.1875,130.26562 -3.046875,0.3125 -3.046875,0.31446 0.02734,22.25 c 0.0147,12.2375 0.03567,22.475 0.04687,22.75 0.01123,0.275 1.369531,0.5 3.019531,0.5 h 3 v -23.06446 z"
     style="fill:#1e1e1e;fill-opacity:1" />
  <path
     id="path1357"
     d="m 52.1875,130.39258 v 3 3 h 7 7 v 20 20 h 3 3 V 156.4375 136.48438 l 6.75,-0.29688 c 6.536164,-0.28632 6.760016,-0.38205 7.066406,-3.04492 l 0.316406,-2.75 H 69.253906 Z"
     style="fill:#1e1e1e;fill-opacity:1" />
  <path
     id="path1355"
     d="M 118.66016 130.39258 L 111.00977 153.39258 L 103.35938 176.39258 L 106.5918 176.39258 C 109.6345 176.39258 109.92542 176.06942 111.56836 170.85742 L 113.3125 165.32031 L 122.91602 165.60742 L 132.51953 165.89258 L 134.18359 170.89258 C 135.66791 175.35262 136.1899 175.92556 139.01758 176.20508 C 140.7611 176.37743 142.1875 176.0821 142.1875 175.54883 C 142.1875 174.60543 133.19258 147.68392 129.02148 136.14258 C 126.94705 130.40269 126.93696 130.39258 122.80273 130.39258 L 118.66016 130.39258 z M 123.43555 137.35547 C 123.46125 137.34647 123.48029 137.35948 123.49219 137.39258 C 125.6735 143.46361 130.1875 158.12993 130.1875 159.14453 C 130.1875 160.03034 128.01291 160.39258 122.6875 160.39258 C 118.5625 160.39258 115.19708 160.28008 115.20898 160.14258 C 115.43973 157.47128 122.64007 137.63051 123.43555 137.35547 z "
     style="fill:#1e1e1e;fill-opacity:1" />
  <path
     id="path1347"
     d="m 311.1875,142.39258 v 17 17 h 3 3 V 163.8418 151.28906 l 3.60156,-1.5039 c 1.98078,-0.82762 5.01828,-1.36741 6.75,-1.19922 l 3.14844,0.30664 0.2793,13.75 0.27734,13.75 h 2.97266 2.9707 V 163.8418 151.28906 l 3.60156,-1.5039 c 1.98078,-0.82762 5.01828,-1.36741 6.75,-1.19922 l 3.14844,0.30664 0.2793,13.75 0.27734,13.75 h 2.97266 2.9707 v -14.77735 c 0,-17.85857 -0.56484,-19.24738 -7.80664,-19.17968 -2.58132,0.0241 -6.47944,0.67968 -8.66211,1.45703 -3.44548,1.22711 -4.18007,1.22225 -5.57813,-0.043 -2.04551,-1.85114 -9.21462,-1.81693 -14.45312,0.0703 -4.89814,1.76465 -4.5,1.76867 -4.5,-0.0273 0,-0.93333 -0.94444,-1.5 -2.5,-1.5 z"
     style="fill:#1e1e1e;fill-opacity:1" />
  <path
     id="path1345"
     d="m 366.1875,142.39258 v 17 17 h 3 3 v -17 -17 h -3 z"
     style="fill:#1e1e1e;fill-opacity:1" />
  <path
     id="path1343"
     d="M 257.48828 142.40625 C 247.15004 142.43795 243.93546 147.01572 244.39062 161.0625 C 244.65404 169.19198 244.96564 170.53073 247.13281 172.83594 C 248.4775 174.26628 250.9525 175.83588 252.63281 176.32422 C 254.31311 176.81257 256.41335 177.25313 257.30078 177.30273 C 259.01532 177.39853 269.33827 175.57579 269.82227 175.0918 C 269.9799 174.93416 269.85657 173.84097 269.54883 172.66406 C 269.02751 170.67056 268.52919 170.56278 262.26562 171.08789 C 253.71345 171.80488 251.1875 170.6205 251.1875 165.89258 L 251.1875 162.46484 L 260.9375 162.17773 L 270.6875 161.89258 L 270.60742 156.14062 C 270.4688 146.35516 266.66962 142.37805 257.48828 142.40625 z M 289.95508 142.5957 C 279.82468 142.5867 276.8905 147.1916 277.42383 161.10938 C 277.73357 169.19269 278.07284 170.64032 280.17773 172.88086 C 281.49779 174.28601 283.9525 175.83588 285.63281 176.32422 C 289.81367 177.53928 291.10436 177.5454 297.22461 176.38477 C 303.49118 175.19634 303.56141 175.1464 302.71094 172.4668 C 302.10197 170.5481 301.54038 170.43889 295.29297 171.01953 C 286.68344 171.8197 284.1875 170.65964 284.1875 165.85742 L 284.1875 162.39258 L 293.71875 162.39258 C 301.31383 162.39258 303.36841 162.08318 303.83203 160.875 C 304.97286 157.90204 303.12779 148.85104 300.78125 145.9082 C 298.73483 143.34175 297.72776 142.96524 292.07812 142.6582 C 291.33769 142.618 290.63044 142.5963 289.95508 142.5957 z M 257.6875 147.39258 C 261.82186 147.39258 264.1875 149.60113 264.1875 153.46289 L 264.1875 156.39258 L 257.6875 156.39258 L 251.1875 156.39258 L 251.1875 153.46289 C 251.1875 149.60113 253.55314 147.39258 257.6875 147.39258 z M 290.6875 147.39258 C 294.82186 147.39258 297.1875 149.60113 297.1875 153.46289 L 297.1875 156.39258 L 290.6875 156.39258 L 284.1875 156.39258 L 284.1875 153.46289 C 284.1875 149.60113 286.55314 147.39258 290.6875 147.39258 z "
     style="fill:#1e1e1e;fill-opacity:1" />
  <path
     id="path1341"
     d="M 391.51562 142.40625 C 382.32657 142.42465 380.1875 143.08838 380.1875 145.92188 C 380.1875 148.13914 380.46343 148.21154 388.21875 148.05469 C 397.14777 147.87411 398.14516 148.48534 398.17188 154.14258 L 398.1875 157.39258 L 392.83789 157.39258 C 386.38754 157.39258 381.49301 158.95214 380.16602 161.43164 C 379.62763 162.43763 379.1875 165.23706 379.1875 167.65234 C 379.1875 172.03995 381.30057 175.22968 385.1875 176.70898 C 387.09951 177.43666 394.09109 176.47441 396.64062 175.13281 C 398.02852 174.40249 398.7017 174.43517 398.97266 175.24805 C 399.18229 175.87692 400.44232 176.39258 401.77148 176.39258 L 404.1875 176.39258 L 404.1875 162.31445 L 404.1875 148.23828 L 401.26562 145.31445 C 398.60195 142.65077 397.73672 142.39385 391.51562 142.40625 z M 398.1875 163.29688 L 398.1875 166.18359 C 398.1875 168.30707 397.51395 169.37889 395.64062 170.23242 C 392.0616 171.86314 386.2471 171.70815 385.57812 169.96484 C 385.27691 169.17984 385.17837 167.49234 385.35938 166.21484 C 385.65818 164.10582 386.26255 163.86408 391.9375 163.59375 L 398.1875 163.29688 z "
     style="fill:#1e1e1e;fill-opacity:1" />
  <path
     id="path1339"
     d="M 193.19922 142.42188 C 192.00085 142.41387 190.51087 142.46607 188.58203 142.54688 C 184.05674 142.73653 180.05043 143.19536 179.67969 143.56641 C 179.30899 143.93746 179.28293 145.11795 179.62305 146.18945 C 180.16844 147.90783 181.12712 148.12397 187.74609 148.01562 C 196.09786 147.87894 197.14558 148.56019 197.17188 154.14258 L 197.1875 157.39258 L 191.83789 157.39258 C 188.89497 157.39258 185.13083 157.86403 183.47461 158.44141 C 176.38454 160.913 176.4341 173.53081 183.54492 176.40039 C 186.60536 177.63543 189.12364 177.50559 193.6875 175.87695 C 196.09223 175.01881 197.82109 174.83599 198.02148 175.41992 C 198.20482 175.95415 199.44232 176.39258 200.77148 176.39258 L 203.1875 176.39258 L 203.1875 161.98047 L 203.1875 147.57031 L 199.99805 144.88672 C 197.75495 142.99928 196.79433 142.44439 193.19922 142.42188 z M 191.20703 163.39258 C 197.11078 163.39258 197.1875 163.42958 197.1875 166.23242 C 197.1875 168.30478 196.49955 169.38544 194.64062 170.23242 C 188.58184 172.99299 183.3794 170.75046 184.5957 165.9043 C 185.18139 163.57073 185.6531 163.39258 191.20703 163.39258 z "
     style="fill:#1e1e1e;fill-opacity:1" />
  <path
     id="path1315"
     d="M 388.79688 186.74219 C 387.03228 186.79329 385.13017 187.11789 384.57812 187.66992 C 384.18054 188.06752 384.60482 188.39258 385.52148 188.39258 C 386.85482 188.39258 387.1875 189.39258 387.1875 193.39258 C 387.1875 196.14258 387.6375 198.39258 388.1875 198.39258 C 388.7375 198.39258 389.1875 196.14258 389.1875 193.39258 C 389.1875 189.6148 389.55417 188.39258 390.6875 188.39258 C 391.5125 188.39258 392.1875 187.96799 392.1875 187.44922 C 392.1875 186.91316 390.56146 186.6911 388.79688 186.74219 z M 404.83398 186.95117 C 404.18988 186.95417 403.36325 188.08167 402.45703 190.38867 L 400.81836 194.56055 L 398.97852 190.97656 C 397.96707 189.00506 396.70092 187.39258 396.16406 187.39258 C 395.6272 187.39258 395.1875 189.86758 395.1875 192.89258 C 395.1875 198.9772 397.14171 200.62125 397.26758 194.64258 C 397.34528 190.95004 397.36058 190.93472 398.34961 193.64258 C 398.90202 195.15508 399.90514 196.39258 400.57812 196.39258 C 401.25113 196.39258 402.291 195.15508 402.88867 193.64258 C 403.96941 190.90757 403.97623 190.91291 404.08203 194.70117 C 404.23942 200.33679 406.1875 198.20074 406.1875 192.39258 C 406.1875 188.80094 405.66212 186.94679 404.83398 186.95117 z M 314.6875 191.39258 C 313.4424 191.39258 313.1875 193.31721 313.1875 202.72461 C 313.1875 208.95795 313.47641 214.34553 313.82812 214.69727 C 315.0707 215.93983 316.18827 214.23566 316.19727 211.08398 L 316.20508 207.89258 L 319.75977 211.64258 C 322.96838 215.02785 325.1875 216.33289 325.1875 214.83398 C 325.1875 214.52673 323.77607 212.51799 322.05078 210.37109 L 318.91406 206.46875 L 322.19727 202.72852 C 326.60176 197.71208 324.06015 196.77314 319.51172 201.73633 L 316.1875 205.36328 L 316.1875 198.37695 C 316.1875 192.83445 315.87768 191.39258 314.6875 191.39258 z M 301.71094 192.39258 C 296.99648 192.39258 296.01015 192.73459 294.62305 194.85156 C 293.53423 196.51331 293.22761 198.29436 293.67773 200.34375 C 294.24003 202.90391 295.07189 203.58834 299.01562 204.73828 C 303.18903 205.95518 303.6875 206.40996 303.6875 208.99609 C 303.6875 211.7837 303.49235 211.90234 298.4375 212.19336 C 293.26073 212.4914 291.52386 213.76275 294.9375 214.75391 C 297.99561 215.64185 305.40302 214.66071 306.29688 213.25 C 306.77042 212.5026 307.16388 210.44084 307.17188 208.66602 C 307.18838 205.18406 304.96305 203.08717 299.9375 201.85156 C 297.23557 201.18724 296.73493 200.37971 297.16992 197.39258 C 297.5123 195.04136 299.37434 194.32026 303.4375 194.96875 C 306.44771 195.44919 307.1875 195.25511 307.1875 193.98047 C 307.1875 192.72322 306.04742 192.39258 301.71094 192.39258 z M 372.83984 197.92578 C 371.18676 197.87608 369.60549 198.46826 368.54688 199.91602 C 366.6051 202.57156 366.79508 211.29875 368.84375 213.5625 C 370.48695 215.37822 374.57266 215.94896 377.60547 214.78516 C 380.52591 213.66448 379.22386 212.39258 375.15625 212.39258 C 372.44521 212.39258 370.93141 211.88734 370.5332 210.84961 C 369.68534 208.64012 370.5953 208.10649 375.41992 207.99219 C 379.23099 207.90189 379.72056 207.61633 379.98828 205.31445 C 380.46059 201.25345 376.47663 198.03511 372.83984 197.92578 z M 330.52734 198.21094 C 330.23712 198.17814 329.96281 198.28334 329.71094 198.53516 C 329.49636 198.74973 330.67821 202.93438 332.33594 207.83398 C 334.74327 214.94906 335.13713 217.20941 334.29102 219.06641 C 333.45313 220.90538 333.52761 221.39258 334.65039 221.39258 C 336.5331 221.39258 336.49346 221.47468 340.49805 209.125 C 343.2011 200.78912 343.66077 198.39258 342.55273 198.39258 C 341.76804 198.39258 340.96338 198.95508 340.76562 199.64258 C 340.56788 200.33008 339.50437 203.36758 338.40234 206.39258 L 336.39844 211.89258 L 334.59961 205.53711 C 333.33625 201.07311 331.78499 198.35303 330.52734 198.21094 z M 357.82617 198.31445 C 357.42937 198.29135 356.99355 198.29973 356.51367 198.33203 C 354.95992 198.43648 352.45 198.51165 350.9375 198.49805 L 348.1875 198.47266 L 348.1875 209.93164 C 348.1875 220.36256 348.35283 221.39255 350.01562 221.39258 C 351.47663 221.39258 351.75252 220.79179 351.40039 218.39258 C 350.97239 215.47648 351.07466 215.39258 355.05078 215.39258 C 360.58192 215.39258 362.63535 212.39605 361.95508 205.31641 C 361.45774 200.14047 360.60378 198.47654 357.82617 198.31445 z M 373.09766 200.7168 C 375.12688 200.59218 377.1875 202.13319 377.1875 204.01367 C 377.1875 204.92136 375.99368 205.39258 373.6875 205.39258 C 370.89485 205.39258 370.1875 205.00101 370.1875 203.45898 C 370.1875 202.38953 371.10303 201.23664 372.23633 200.87695 C 372.51881 200.78725 372.80777 200.7346 373.09766 200.7168 z M 356.00586 201.10352 C 357.59606 201.05912 357.73976 201.87776 357.98828 206.64258 L 358.28711 212.39258 L 355.23828 212.39258 C 353.56084 212.39258 352.13617 212.28008 352.07227 212.14258 C 351.52077 210.95587 351.51906 203.47404 352.07031 202.58203 C 352.45783 201.95501 353.88147 201.31714 355.23242 201.16602 C 355.5232 201.13352 355.77869 201.10982 356.00586 201.10352 z "
     style="fill:#1971b9;fill-opacity:1" />
  <path
     id="path1311"
     d="M 265.6875 191.39258 C 264.4424 191.39258 264.1875 193.31721 264.1875 202.72461 C 264.1875 208.95795 264.4888 214.35795 264.85547 214.72461 C 265.22213 215.09128 267.43915 215.39258 269.7832 215.39258 C 275.67301 215.39258 277.19077 213.57893 277.17188 206.57031 C 277.15188 199.15356 276.28901 197.9239 271.24609 198.125 C 267.25537 198.28414 267.1875 198.22952 267.1875 194.83984 C 267.1875 192.44249 266.73073 191.39258 265.6875 191.39258 z M 180.1875 194.39258 C 179.00063 194.39258 178.1875 195.05816 178.1875 196.03125 C 178.1875 196.93311 177.4 198.25208 176.4375 198.96094 C 174.77083 200.18839 174.77083 200.28162 176.4375 200.92773 C 177.81979 201.46359 178.1875 202.80202 178.1875 207.29883 C 178.1875 210.42998 178.72867 213.53141 179.38867 214.19141 C 181.14788 215.95062 186.1875 215.7294 186.1875 213.89258 C 186.1875 213.05925 185.29861 212.39258 184.1875 212.39258 C 182.42992 212.39258 182.1875 211.72591 182.1875 206.89258 C 182.1875 202.05925 182.42992 201.39258 184.1875 201.39258 C 185.29861 201.39258 186.1875 200.72591 186.1875 199.89258 C 186.1875 199.05925 185.29861 198.39258 184.1875 198.39258 C 182.85417 198.39258 182.1875 197.72591 182.1875 196.39258 C 182.1875 195.05925 181.52083 194.39258 180.1875 194.39258 z M 233.09375 194.39258 C 231.85404 194.39258 231.1875 195.09199 231.1875 196.39258 C 231.1875 197.50369 230.52083 198.39258 229.6875 198.39258 C 228.8625 198.39258 228.1875 199.06758 228.1875 199.89258 C 228.1875 200.71758 228.8625 201.39258 229.6875 201.39258 C 230.84842 201.39258 231.1875 202.70252 231.1875 207.19141 C 231.1875 210.4806 231.72674 213.52947 232.43164 214.23438 C 233.92178 215.72451 238.37615 215.37048 238.91797 213.71875 C 239.12959 213.07366 238.26623 212.39866 236.99805 212.21875 C 234.97617 211.93193 234.65186 211.24617 234.36133 206.64258 C 234.04186 201.58048 234.12221 201.39258 236.60938 201.39258 C 238.23557 201.39258 239.1875 200.83824 239.1875 199.89258 C 239.1875 198.94142 238.2315 198.39258 236.57227 198.39258 C 234.44795 198.39258 234.05391 198.01627 234.47852 196.39258 C 234.86646 194.90909 234.50782 194.39258 233.09375 194.39258 z M 217.74414 197.75977 C 217.52415 197.74513 217.30425 197.74639 217.08594 197.76367 C 216.85307 197.78207 216.62087 197.81967 216.39258 197.87695 C 211.99472 198.98074 211.1875 200.26912 211.1875 206.18555 C 211.1875 210.00241 211.71854 212.32051 212.88672 213.61133 C 214.12014 214.97425 215.6723 215.40575 218.55859 215.18945 C 224.12601 214.77223 224.45482 212.596 219.00977 212.20312 C 215.91737 211.98001 214.61532 211.41525 214.38477 210.19922 C 214.12535 208.83086 214.9847 208.44768 218.875 208.19922 C 223.28333 207.91769 223.71378 207.66376 224.00195 205.16211 C 224.40441 201.66833 221.04395 197.97932 217.74414 197.75977 z M 198.15625 197.80664 C 196.2838 197.82814 194.45558 198.75086 192.9375 200.54492 C 190.4512 203.48322 190.59354 210.79862 193.1875 213.39258 C 195.58001 215.78509 199.90217 215.98111 202.96484 213.83594 C 204.79241 212.55586 205.1875 211.32452 205.1875 206.9082 C 205.1875 202.26112 204.82249 201.25043 202.48047 199.4082 C 201.0953 198.31863 199.6126 197.78991 198.15625 197.80664 z M 249.82422 197.89062 C 247.3848 197.97272 245.1875 198.8333 245.1875 200.14258 C 245.1875 201.27469 245.92176 201.49611 248.17773 201.04492 C 252.05925 200.26861 254.1875 201.13852 254.1875 203.5 C 254.1875 204.93668 253.46432 205.39258 251.1875 205.39258 C 248.03706 205.39258 244.1875 208.37711 244.1875 210.82031 C 244.1875 211.60603 244.87674 212.93729 245.71875 213.7793 C 246.75551 214.81606 248.86561 215.24344 252.25586 215.10156 L 257.26172 214.89258 L 256.97461 207.40234 C 256.70716 200.42551 256.50721 199.82661 254.05469 198.6543 C 252.83836 198.07289 251.28787 197.84136 249.82422 197.89062 z M 217.85156 200.46094 C 218.49318 200.42504 219.01186 200.84271 219.71484 201.78906 C 220.49 202.83259 220.8875 204.07009 220.59766 204.53906 C 220.30782 205.00803 218.71256 205.39258 217.05469 205.39258 C 214.7943 205.39258 214.12277 204.98193 214.36523 203.75 C 214.54305 202.84645 215.50138 201.60895 216.49609 201 C 217.03734 200.66865 217.46659 200.48247 217.85156 200.46094 z M 271.46875 200.64648 C 273.43051 200.55448 274.23135 202.5529 273.98633 206.76758 C 273.69688 211.74677 273.59526 211.90061 270.4375 212.20508 L 267.1875 212.51953 L 267.1875 207.49023 C 267.1875 203.5485 267.60416 202.24034 269.11523 201.43164 C 270.03152 200.94126 270.81483 200.67715 271.46875 200.64648 z M 198.08789 200.68359 C 201.09667 200.36184 203.31262 206.2956 201.58008 210.81055 C 200.97649 212.3835 197.12851 212.99766 195.85547 211.72461 C 195.14011 211.00926 194.90732 201.39258 195.60547 201.39258 C 195.83549 201.39258 196.6775 201.14061 197.47656 200.83398 C 197.68326 200.75468 197.88731 200.70504 198.08789 200.68359 z M 251.26172 208.39258 C 253.64846 208.39258 254.25969 208.78353 254.00195 210.14258 C 253.80179 211.19806 252.58314 212.01814 250.92969 212.20898 C 248.72345 212.46363 248.1875 212.12198 248.1875 210.45898 C 248.1875 208.81867 248.82214 208.39258 251.26172 208.39258 z "
     style="fill:#1e1e1e;fill-opacity:1" />
</svg>
