<?xml version="1.0" encoding="UTF-8" standalone="no"?>
<svg
   xmlns:dc="http://purl.org/dc/elements/1.1/"
   xmlns:cc="http://creativecommons.org/ns#"
   xmlns:rdf="http://www.w3.org/1999/02/22-rdf-syntax-ns#"
   xmlns:svg="http://www.w3.org/2000/svg"
   xmlns="http://www.w3.org/2000/svg"
   id="svg32"
   version="1.1"
   viewBox="0 0 418.76 170.85">
  <metadata
     id="metadata38">
    <rdf:RDF>
      <cc:Work
         rdf:about="">
        <dc:format>image/svg+xml</dc:format>
        <dc:type
           rdf:resource="http://purl.org/dc/dcmitype/StillImage" />
        <dc:title>mooncascade-logo-black</dc:title>
      </cc:Work>
    </rdf:RDF>
  </metadata>
  <defs
     id="defs36" />
  <title
     id="title2">mooncascade-logo-black</title>
  <path
     style="fill:#ffce00;fill-opacity:1"
     id="path4"
     transform="translate(0 0)"
     d="M164.73,30.65a51,51,0,0,0-15.85-20.58A50.49,50.49,0,0,0,124.94,0,44.46,44.46,0,1,1,70.73,70.25,51,51,0,0,0,164.73,30.65Z" />
  <path
     style="fill:#ffce00;fill-opacity:1"
     id="path6"
     transform="translate(0 0)"
     d="M74.15,49.18A14.13,14.13,0,1,0,73.93,37a14,14,0,0,0-.42,10.71C73.7,48.18,73.92,48.71,74.15,49.18Z" />
  <path
     style="fill:#ffce00;fill-opacity:1"
     id="path8"
     transform="translate(0 0)"
     d="M97.86,18.61v0a26.65,26.65,0,0,1,2.69,47.08,28.74,28.74,0,1,0-21.42-48.3A26.49,26.49,0,0,1,97.86,18.61Z" />
  <polygon
     id="polygon10"
     points="20.33 149.86 8.62 125.62 0 125.62 0 170.44 8.75 170.44 8.75 144.32 17.37 161.32 23.29 161.32 31.85 144.32 31.85 170.44 40.6 170.44 40.6 125.62 31.98 125.62 20.33 149.86" />
  <path
     id="path12"
     transform="translate(0 0)"
     d="M62.73,125.25a16.35,16.35,0,0,0-12.15,4.93c-4.53,4.53-4.41,10.14-4.41,17.88S46,161.41,50.58,165.94a17.41,17.41,0,0,0,24.24,0c4.53-4.53,4.47-10.14,4.47-17.88s0.06-13.35-4.47-17.88A16.21,16.21,0,0,0,62.73,125.25Zm5.6,35.38h0a7.27,7.27,0,0,1-5.6,2.39,7.41,7.41,0,0,1-5.67-2.39c-1.7-1.89-2.14-4-2.14-12.59s0.44-10.7,2.14-12.59a7.42,7.42,0,0,1,5.67-2.39,7.28,7.28,0,0,1,5.6,2.39c1.7,1.89,2.2,4,2.2,12.59S70,158.74,68.33,160.63Z" />
  <path
     id="path14"
     transform="translate(0 0)"
     d="M101,125.25a16.35,16.35,0,0,0-12.15,4.93c-4.53,4.53-4.41,10.14-4.41,17.88s-0.13,13.35,4.41,17.88a17.41,17.41,0,0,0,24.24,0c4.53-4.53,4.47-10.14,4.47-17.88s0.06-13.35-4.47-17.88A16.22,16.22,0,0,0,101,125.25Zm5.6,35.38A7.27,7.27,0,0,1,101,163a7.4,7.4,0,0,1-5.66-2.39c-1.7-1.89-2.14-4-2.14-12.59s0.44-10.7,2.14-12.59a7.41,7.41,0,0,1,5.66-2.39,7.27,7.27,0,0,1,5.6,2.39c1.7,1.89,2.2,4,2.2,12.59S108.32,158.74,106.62,160.63Z" />
  <polygon
     id="polygon16"
     points="148.7 153.07 130.95 125.62 123.14 125.62 123.14 170.44 131.89 170.44 131.89 142.93 149.64 170.44 157.45 170.44 157.45 125.62 148.7 125.62 148.7 153.07" />
  <path
     id="path18"
     transform="translate(0 0)"
     d="M179.58,133c4.4,0,6.67,2.77,7.55,6.36H196c-1.57-9.38-8.12-14.16-16.49-14.16a16.52,16.52,0,0,0-12.09,4.93c-4.53,4.53-4.41,10.14-4.41,17.88s-0.13,13.35,4.41,17.88a16.52,16.52,0,0,0,12.09,4.91c8.31,0,14.92-4.79,16.49-14.16h-8.88c-0.88,3.59-3.15,6.36-7.55,6.36a7.23,7.23,0,0,1-5.6-2.33c-1.7-1.89-2.2-4-2.2-12.65s0.5-10.76,2.2-12.65A7.23,7.23,0,0,1,179.58,133Z" />
  <path
     id="path20"
     transform="translate(0 0)"
     d="M212.74,125.63h0l-16.28,44.83h9.13l2.71-7.93H224.2l2.64,7.93H236L219.6,125.63h-6.86Zm-2.05,29.55,0,0,5.66-16.3,5.46,16.34H210.69Z" />
  <path
     id="path22"
     transform="translate(0 0)"
     d="M258.43,144.26l-5.29-.75a7.7,7.7,0,0,1-4.16-1.76,4.33,4.33,0,0,1-1.32-3.21c0-3.08,2.27-5.67,6.93-5.67,3,0,6.36.38,9.19,3.08l5.54-5.47c-3.84-3.71-8.31-5.23-14.48-5.23-9.69,0-15.61,5.6-15.61,13.6,0,3.78,1.07,6.67,3.21,8.81s4.85,3.15,8.69,3.71l5.41,0.75a6.67,6.67,0,0,1,4,1.57,5,5,0,0,1,1.38,3.78c0,3.59-2.77,5.54-7.93,5.54-4.16,0-8-.94-10.83-3.78l-5.73,5.68c4.4,4.47,9.57,5.92,16.37,5.92,9.38,0,16.62-4.91,16.62-13.6,0-4-1.07-7.24-3.46-9.5C265.08,146,262.5,144.83,258.43,144.26Z" />
  <path
     id="path24"
     transform="translate(0 0)"
     d="M291.48,163a7.23,7.23,0,0,1-5.6-2.33c-1.7-1.89-2.2-4-2.2-12.65s0.5-10.76,2.2-12.65a7.23,7.23,0,0,1,5.55-2.34c4.41,0,6.67,2.77,7.55,6.36h8.88c-1.57-9.38-8.12-14.16-16.49-14.16a16.52,16.52,0,0,0-12,4.93c-4.53,4.53-4.41,10.14-4.41,17.88s-0.12,13.35,4.41,17.88a16.52,16.52,0,0,0,12.1,4.88c8.31,0,14.92-4.79,16.49-14.16H299C298.15,160.25,295.88,163,291.48,163Z" />
  <path
     id="path26"
     transform="translate(0 0)"
     d="M324.61,125.62l-16.3,44.82h9.12l2.71-7.93h15.93l2.64,7.93h9.13l-16.41-44.82h-6.82Zm-2,29.52h0l5.67-16.3,5.48,16.3H322.62Z" />
  <path
     id="path28"
     transform="translate(0 0)"
     d="M379.14,129.91c-3-3-7.18-4.28-11.83-4.28H351.13v44.82h16.18c4.66,0,8.88-1.32,11.83-4.28,5-5,4.53-11.58,4.53-18.32S384.17,134.94,379.14,129.91Zm-6.11,30v0a7.84,7.84,0,0,1-6.55,2.77h-6.61V133.43h6.61A7.89,7.89,0,0,1,373,136.2c1.64,2,1.89,4.85,1.89,11.65S374.67,157.85,373,159.87Z" />
  <polygon
     id="polygon30"
     points="418.76 133.43 418.76 125.62 389.24 125.62 389.24 170.44 418.76 170.44 418.76 162.64 397.99 162.64 397.99 151.75 415.68 151.75 415.68 143.94 397.99 143.94 397.99 133.43 418.76 133.43" />
</svg>
