<?xml version="1.0" encoding="UTF-8" standalone="no"?>
<!-- Generator: Adobe Illustrator 19.2.1, SVG Export Plug-In . SVG Version: 6.00 Build 0)  -->

<svg
   xmlns:dc="http://purl.org/dc/elements/1.1/"
   xmlns:cc="http://creativecommons.org/ns#"
   xmlns:rdf="http://www.w3.org/1999/02/22-rdf-syntax-ns#"
   xmlns:svg="http://www.w3.org/2000/svg"
   xmlns="http://www.w3.org/2000/svg"
   xmlns:sodipodi="http://sodipodi.sourceforge.net/DTD/sodipodi-0.dtd"
   xmlns:inkscape="http://www.inkscape.org/namespaces/inkscape"
   version="1.1"
   id="layer"
   x="0px"
   y="0px"
   viewBox="0 0 652 160"
   xml:space="preserve"
   sodipodi:docname="Playtech.svg"
   width="652"
   height="160"
   inkscape:version="0.92.4 (5da689c313, 2019-01-14)"><metadata
   id="metadata67"><rdf:RDF><cc:Work
       rdf:about=""><dc:format>image/svg+xml</dc:format><dc:type
         rdf:resource="http://purl.org/dc/dcmitype/StillImage" /><dc:title></dc:title></cc:Work></rdf:RDF></metadata><defs
   id="defs65" /><sodipodi:namedview
   pagecolor="#ffffff"
   bordercolor="#666666"
   borderopacity="1"
   objecttolerance="10"
   gridtolerance="10"
   guidetolerance="10"
   inkscape:pageopacity="0"
   inkscape:pageshadow="2"
   inkscape:window-width="1920"
   inkscape:window-height="1053"
   id="namedview63"
   showgrid="false"
   inkscape:zoom="0.36196319"
   inkscape:cx="326"
   inkscape:cy="326"
   inkscape:window-x="0"
   inkscape:window-y="27"
   inkscape:window-maximized="1"
   inkscape:current-layer="layer" />
<style
   type="text/css"
   id="style2">
	.st0{fill:#2C3E7E;}
</style>
<g
   id="g60"
   transform="translate(-1.7442244,-246.45)">
	<g
   id="g32">
		<path
   class="st0"
   d="m 180.6,300.9 c -8.3,-19.8 -42.8,-24.1 -80.2,-11.3 L 83.8,279.5 c -5.2,-2.9 -11.1,0.6 -11.3,6.4 v 16.3 c -32.2,18.7 -50.8,45.6 -42.9,64.5 9.2,21.9 50.5,24.9 92.1,6.7 41.7,-18.1 68.1,-50.6 58.9,-72.5 m -91.8,-8.7 39.6,24.2 c 2.9,1.7 3.3,6.1 0.2,8.1 l -40.1,23.7 c -3.1,1.7 -7.3,-0.3 -7.3,-4.6 l -0.2,-47 c 0.3,-4 4.3,-6.3 7.8,-4.4 m -20.9,88.2 c -18.1,-1.3 -25.4,-12.9 -20.6,-28.7 0,2.6 0.4,5.1 1.4,7.5 7.1,16.9 38.9,19.2 71,5.1 0.7,-0.3 1.3,-0.6 2,-0.9 -18.1,11.4 -38.2,18.2 -53.8,17 M 143,337.7 c -16.1,19.8 -45.1,33.5 -64.8,32.1 -19.7,-1.4 -22.7,-18.7 -6.6,-38.5 0.3,-0.4 0.7,-0.8 1,-1.2 l 0.1,24.8 c -0.1,6.3 6.2,9.3 10.7,6.8 l 59.1,-34.9 c 4.6,-2.9 4.1,-9.4 -0.2,-11.9 l -23.9,-13.4 c 6.5,-1.9 12.7,-2.8 18.2,-2.4 19.5,1.5 22.5,18.7 6.4,38.6 m 22.3,-28.6 c -0.1,-0.2 -0.1,-0.4 -0.2,-0.7 -5.7,-13.6 -27.4,-17.7 -52.5,-11.5 l -4.1,-2.5 c 12.3,-5.2 24.6,-7.9 34.9,-7.1 15.3,1.2 22.8,9.7 21.9,21.8"
   id="path4"
   inkscape:connector-curvature="0"
   style="fill:#2c3e7e" />
		<path
   class="st0"
   d="m 191.1,299.6 c 5.6,-0.4 10.9,-1 16,-1.6 5.1,-0.6 9.9,-1.4 14.7,-2.3 l -4,13.8 c 4,-5.3 7.7,-9.2 11.3,-11.6 3.6,-2.5 7.2,-3.7 11.1,-3.7 5.3,0 9.4,1.6 12.2,4.8 2.9,3.2 4.3,7.9 4.3,13.8 0,5 -1,10.4 -2.9,15.9 -2,5.6 -4.8,10.7 -8.3,15.5 -4.1,5.6 -8.4,9.8 -13,12.5 -4.6,2.8 -9.5,4.2 -14.8,4.2 -2.1,0 -4.1,-0.3 -6,-0.9 -1.9,-0.6 -3.5,-1.5 -5.1,-2.7 l -4.1,14.9 c -0.3,0.9 -0.5,1.9 -0.6,2.8 -0.2,0.9 -0.2,1.8 -0.2,2.8 0,1.8 0.5,3.1 1.6,3.8 1.1,0.7 3.3,1.2 6.7,1.4 v 3.5 h -37.8 v -3.6 c 0.1,0 0.3,0 0.6,-0.1 0.2,-0.1 0.4,-0.1 0.5,-0.1 2.4,0 4.1,-0.6 5.3,-1.8 1.2,-1.2 2.4,-4.3 3.7,-9.4 l 15.1,-59.4 c 0.3,-0.9 0.5,-1.9 0.6,-2.8 0.1,-0.9 0.2,-1.6 0.2,-2.1 0,-1.6 -0.5,-2.7 -1.5,-3.3 -1,-0.7 -2.9,-1 -5.6,-1 z m 22.6,29.8 -3.6,12.8 c -0.5,2 -0.9,3.7 -1.3,5.3 -0.3,1.6 -0.5,2.8 -0.5,3.5 0,1.4 0.4,2.4 1.2,3.2 0.8,0.8 1.9,1.2 3.3,1.2 2.1,0 4.3,-1.2 6.6,-3.5 2.3,-2.3 4.4,-5.6 6.5,-10 2.5,-5.5 4.6,-11 6.2,-16.5 1.5,-5.4 2.4,-9.6 2.4,-12.7 0,-2.2 -0.5,-4 -1.4,-5.3 -0.9,-1.3 -2.1,-2 -3.5,-2 -3.1,0 -6,2 -8.6,5.8 -2.6,4.1 -5.1,10.1 -7.3,18.2"
   id="path6"
   inkscape:connector-curvature="0"
   style="fill:#2c3e7e" />
		<path
   class="st0"
   d="m 260.5,266.8 c 5.7,-0.4 11.1,-1 16.3,-1.8 5.2,-0.7 10.2,-1.6 14.8,-2.6 l -20.8,79.7 c -0.1,0.4 -0.3,1 -0.5,1.7 -0.3,1 -0.4,1.7 -0.4,2 0,0.9 0.2,1.7 0.6,2.2 0.4,0.5 1,0.8 1.7,0.8 0.7,0 1.6,-0.5 2.6,-1.5 1,-1 2.8,-3.6 5.6,-7.9 l 3.3,2.4 c -4.2,6.8 -8.2,11.7 -12,14.7 -3.8,3 -7.7,4.6 -11.8,4.6 -3.6,0 -6.4,-1 -8.4,-2.9 -2,-2 -2.9,-4.8 -2.9,-8.5 0,-1.8 1,-6.6 3,-14.4 l 0.2,-0.8 13.8,-51.9 c 0.1,-0.5 0.3,-1.2 0.5,-2.1 0.9,-3.4 1.3,-5.6 1.3,-6.6 0,-1.3 -0.4,-2.3 -1.4,-2.9 -0.9,-0.6 -2.4,-0.9 -4.3,-0.9 h -1.2 z"
   id="path8"
   inkscape:connector-curvature="0"
   style="fill:#2c3e7e" />
		<path
   class="st0"
   d="m 350.6,296.4 -11.1,39.4 v 0.1 c -1.7,6.1 -2.5,9.6 -2.5,10.6 0,0.9 0.2,1.7 0.6,2.3 0.4,0.6 0.8,0.8 1.5,0.8 1.8,0 4.1,-2.1 6.9,-6.3 0.9,-1.2 1.5,-2.1 2,-2.8 l 3.2,2.5 c -3.6,6.2 -7.2,10.7 -10.9,13.6 -3.7,2.9 -7.7,4.3 -11.9,4.3 -3.5,0 -6.2,-0.8 -8,-2.3 -1.9,-1.6 -2.8,-3.8 -2.8,-6.7 0,-0.9 0.1,-2 0.3,-3.3 0.2,-1.3 0.4,-3.1 0.8,-5.2 -3.4,5.9 -7,10.4 -10.9,13.2 -3.9,2.9 -8.3,4.3 -13.2,4.3 -5,0 -8.9,-1.5 -11.8,-4.5 -2.9,-3.1 -4.3,-7.2 -4.3,-12.5 0,-6.1 1.4,-12.5 4.2,-19.2 2.8,-6.7 6.5,-12.6 11.2,-17.8 3.7,-4.1 7.5,-7.3 11.5,-9.5 4,-2.2 7.9,-3.3 11.6,-3.3 3.5,0 6.3,0.8 8.3,2.5 2,1.7 3.4,4.2 4,7.6 l 2,-7.9 h 19.3 z m -25,11.7 c 0,-1.9 -0.4,-3.4 -1.3,-4.6 -0.9,-1.1 -2,-1.7 -3.4,-1.7 -2,0 -3.9,0.9 -5.7,2.8 -1.8,1.9 -4,5.1 -6.4,9.5 -2.8,5.3 -5,10.4 -6.6,15.5 -1.6,5.1 -2.4,9.4 -2.4,13 0,2.2 0.5,3.9 1.3,5.1 0.9,1.2 2.1,1.8 3.6,1.8 2.2,0 4.5,-1.3 6.9,-3.9 2.4,-2.6 4.6,-6.3 6.7,-11 2.2,-5.3 4,-10.4 5.3,-15.3 1.3,-4.8 2,-8.6 2,-11.2"
   id="path10"
   inkscape:connector-curvature="0"
   style="fill:#2c3e7e" />
		<path
   class="st0"
   d="m 344.2,301.8 v -3.6 c 5.4,-0.6 10.9,-1.3 16.4,-2.1 5.5,-0.8 8.5,-1.2 9,-1.2 2.2,0 5.1,9.5 8.7,28.5 1.4,7.6 2.6,13.7 3.5,18.2 4.2,-8.3 7.1,-14.3 8.6,-18.1 1.6,-3.7 2.3,-6.5 2.3,-8.3 0,-1.4 -1.3,-3.1 -3.9,-5 -2.6,-1.9 -3.9,-4.2 -3.9,-6.6 0,-2.8 0.9,-5.1 2.7,-6.9 1.8,-1.7 4.2,-2.6 7.2,-2.6 2.9,0 5.3,0.9 6.9,2.6 1.6,1.7 2.5,4.2 2.5,7.3 0,3.9 -1.9,10.2 -5.8,18.8 -3.8,8.6 -9.1,18.3 -15.7,29.1 -7.5,12.4 -14.3,21.3 -20.5,27 -6.1,5.7 -12.1,8.5 -17.7,8.5 -3.8,0 -6.7,-0.8 -8.9,-2.4 -2.1,-1.6 -3.2,-3.9 -3.2,-6.7 0,-2.6 0.9,-4.7 2.8,-6.4 1.9,-1.7 4.2,-2.5 7.1,-2.5 2.2,0 4.7,0.9 7.2,2.6 2.6,1.7 4.3,2.6 5.2,2.6 1.5,0 3.3,-1.3 5.3,-3.8 2,-2.5 3,-4.9 3,-7.2 0,-1.7 -0.2,-3.8 -0.5,-6.4 -0.3,-2.6 -0.8,-5.8 -1.4,-9.6 -1.3,-8.1 -2.6,-15.5 -4,-22.1 -1.3,-6.6 -2.6,-11.9 -3.6,-15.7 -1,-3.3 -1.9,-5.4 -2.9,-6.4 -1,-1 -2.5,-1.5 -4.8,-1.5 h -0.2 c -0.5,-0.1 -1,-0.1 -1.4,-0.1"
   id="path12"
   inkscape:connector-curvature="0"
   style="fill:#2c3e7e" />
		<path
   class="st0"
   d="m 430.6,343.2 c -4.2,5.7 -8.3,10.1 -12.3,13.1 -4,3.1 -7.6,4.6 -10.9,4.6 -2.7,0 -4.7,-0.9 -6.2,-2.5 -1.5,-1.7 -2.3,-3.9 -2.3,-6.7 0,-1 0.1,-2.1 0.3,-3.3 0.2,-1.2 0.5,-2.6 0.9,-4.1 L 412,299 h -12.5 l 1.2,-3.9 c 5.4,-1.1 10.2,-3.6 14.3,-7.5 4.1,-3.9 7.9,-9.2 11.2,-16.1 h 4.3 l -5.6,22.7 h 11.5 l -1.2,4.8 H 423.4 L 412,342.6 c -0.3,1 -0.5,1.9 -0.6,2.7 -0.1,0.8 -0.2,1.5 -0.2,2.1 0,1.4 0.3,2.5 1,3.3 0.6,0.8 1.6,1.2 2.7,1.2 1.5,0 3.3,-0.8 5.3,-2.6 2.1,-1.7 4.7,-4.6 7.9,-8.5 z"
   id="path14"
   inkscape:connector-curvature="0"
   style="fill:#2c3e7e" />
		<path
   class="st0"
   d="m 441.2,333.1 c -0.4,1.6 -0.7,3.2 -0.9,4.7 -0.2,1.5 -0.3,2.8 -0.3,4 0,3.8 0.9,6.7 2.9,8.7 1.9,2 4.7,3.5 8.4,3.5 3.6,0 7.8,-1.7 12.4,-4.1 4.6,-2.4 9.9,-6 15.6,-10.9 l 3,4.5 c -6.9,6 -13.3,10.4 -19.4,13.3 -6,2.9 -12,4.3 -17.8,4.3 -5.7,0 -10.2,-1.7 -13.3,-5 -3.2,-3.3 -4.7,-8 -4.7,-14.1 0,-5.8 1.2,-11.7 3.7,-17.7 2.5,-6 5.8,-11.3 10.1,-16 4.1,-4.4 8.7,-7.8 13.5,-10.2 5,-2.3 10,-3.5 15.2,-3.5 4.8,0 8.5,1.1 11.3,3.2 2.8,2.1 4.2,5.1 4.2,8.8 0,6.8 -4.1,12.6 -12.1,17.6 -8.1,4.9 -18.7,7.9 -31.8,8.9 m 1.1,-4.8 c 9.2,-0.4 17,-2.9 23.2,-7.3 6.3,-4.5 9.4,-9.5 9.4,-15.2 0,-1.9 -0.5,-3.3 -1.5,-4.3 -1,-0.9 -2.5,-1.4 -4.5,-1.4 -5.6,0 -10.8,2.5 -15.5,7.5 -4.7,5 -8.4,11.9 -11.1,20.7"
   id="path16"
   inkscape:connector-curvature="0"
   style="fill:#2c3e7e" />
		<path
   class="st0"
   d="m 531.4,334 -0.2,8.5 c -4.3,6.2 -9,10.8 -14.2,13.8 -5.1,3 -10.7,4.6 -16.8,4.6 -6.6,0 -12.1,-2.2 -16.2,-6.5 -4.1,-4.3 -6.2,-10 -6.2,-17.1 0,-5.2 1.2,-10.5 3.5,-15.9 2.3,-5.4 5.6,-10.3 9.7,-14.6 3.8,-3.9 8.1,-6.9 12.8,-9 4.7,-2.1 9.5,-3.2 14.4,-3.2 5.2,0 9.3,1.2 12.4,3.5 3.1,2.3 4.6,5.3 4.6,9.2 0,2.3 -0.8,4.3 -2.4,5.9 -1.6,1.6 -3.5,2.4 -5.7,2.4 -1.8,0 -3.2,-0.5 -4.4,-1.7 -1.1,-1.1 -1.7,-2.6 -1.7,-4.5 0,-1.3 0.4,-2.8 1.3,-4.5 0.9,-1.7 1.3,-2.7 1.3,-3.2 0,-0.8 -0.4,-1.4 -1.4,-1.9 -0.9,-0.5 -2.1,-0.7 -3.7,-0.7 -3.2,0 -6.4,0.9 -9.8,2.9 -3.3,2 -6.2,4.6 -8.7,8 -3,4.1 -5.4,8.5 -7,13.1 -1.6,4.6 -2.4,9.1 -2.4,13.5 0,5 1.3,9 3.9,11.9 2.7,2.9 6.2,4.9 10.7,4.9 3.5,0 7,-1.6 10.5,-3.8 3.8,-2 9.5,-6.3 15.7,-15.6"
   id="path18"
   inkscape:connector-curvature="0"
   style="fill:#2c3e7e" />
		<path
   class="st0"
   d="m 523.6,361 23.5,-82.4 c 0.1,-0.5 0.2,-1 0.3,-1.6 0.1,-0.5 0.1,-1 0.1,-1.5 0,-1.5 -0.4,-2.5 -1.1,-3 -0.7,-0.5 -2.9,-0.8 -6.3,-0.8 h -5.3 l 0.8,-3.8 c 4.3,-0.2 8.3,-0.7 12.1,-1.4 3.7,-0.8 7.3,-1.7 10.6,-3 h 4.2 l -16.2,56.9 c 8.3,-8.2 16,-14.6 23,-19.2 7,-4.5 12.5,-6.8 16.7,-6.8 2.2,0 3.8,0.5 4.8,1.5 1,1 1.6,2.6 1.6,4.7 0,0.7 -0.1,1.4 -0.3,2.4 -0.2,1 -0.4,2.1 -0.7,3.2 L 579.5,345 c -0.2,0.7 -0.4,1.6 -0.6,2.5 -0.2,0.9 -0.2,1.8 -0.2,2.6 0,0.5 0.2,0.9 0.7,1.3 0.4,0.4 0.9,1.1 1.5,1.1 1.2,0 2.8,-1.2 4.8,-2.8 2,-1.5 4.2,-3.6 6.5,-6.3 l 2.4,2 c -4.1,4.9 -8,8.7 -11.8,11.3 -3.8,2.6 -7.3,3.9 -10.5,3.9 -2.1,0 -3.7,-0.5 -4.9,-1.5 -1.2,-1 -1.8,-2.3 -1.8,-4 0,-0.6 0.1,-1.3 0.2,-2 0.1,-0.7 0.4,-1.4 0.6,-2.3 l 12.2,-40.1 c 0.2,-0.9 0.4,-1.5 0.4,-2 0.1,-0.4 0.1,-0.9 0.1,-1.2 0,-1 -0.3,-1.8 -0.9,-2.4 -0.6,-0.5 -1.4,-0.8 -2.6,-0.8 -1.7,0 -4.3,1 -7.7,3.2 -3.4,2.1 -7.3,5.1 -11.7,9.1 -4,3.5 -6.9,6.4 -8.8,8.9 -1.9,2.5 -3.2,5 -4,7.6 l -8.1,27.7 c -0.9,-0.1 -4.2,-0.2 -5.1,-0.3 -0.9,-0.1 0.4,-0.1 -0.5,-0.1 -1,0 -2,0 -2.9,0.1 -1.3,0.3 -2.3,0.4 -3.2,0.5"
   id="path20"
   inkscape:connector-curvature="0"
   style="fill:#2c3e7e" />
		<path
   class="st0"
   d="m 384.1,383.7 v 1.1 c 0,0.6 0.1,1.1 0.2,1.5 0.3,1.3 1.4,2 3.3,2 0.7,0 1.3,-0.1 1.9,-0.3 1.3,-0.4 1.9,-1.3 2,-2.7 0,-1 -0.4,-1.8 -1.3,-2.3 -0.6,-0.4 -1.3,-0.7 -2.1,-1.1 l -2.5,-1.1 c -1,-0.4 -1.8,-0.8 -2.4,-1.3 -1.4,-0.9 -2,-2.2 -2,-3.9 0,-1.9 0.8,-3.2 2.3,-4 1.1,-0.6 2.6,-0.9 4.6,-0.9 2.4,0 4.1,0.4 5.1,1.3 0.8,0.7 1.3,2.1 1.3,4.1 v 0.4 h -3.4 V 376 l -0.1,-1 c -0.2,-1.5 -1.2,-2.2 -3,-2.2 -2.3,0 -3.4,0.9 -3.4,2.6 0,1.1 0.7,2 2.1,2.7 0.9,0.4 1.9,0.9 3,1.3 1.1,0.4 2,0.9 2.7,1.3 1.6,1 2.4,2.4 2.4,4.3 0,3.5 -2.4,5.3 -7.2,5.3 -2,0 -3.6,-0.3 -4.7,-1 -1.3,-0.8 -2,-1.9 -2.1,-3.4 v -1.5 -0.8 h 3.3 z"
   id="path22"
   inkscape:connector-curvature="0"
   style="fill:#2c3e7e" />
		<path
   class="st0"
   d="m 400.5,383.5 c 0,1.6 0.1,2.7 0.4,3.2 0.2,0.5 0.7,0.9 1.3,1.1 0.6,0.3 1.3,0.4 2,0.4 0.6,0 1.2,-0.1 1.8,-0.4 1.1,-0.4 1.7,-1.1 1.8,-2.2 0.1,-0.6 0.1,-1.3 0.1,-2.2 v -6.5 c 0,-1.4 -0.1,-2.4 -0.5,-2.9 -0.5,-0.9 -1.6,-1.4 -3.1,-1.4 -0.6,0 -1.2,0.1 -1.7,0.3 -1.1,0.4 -1.7,1.1 -1.8,2.2 -0.1,0.5 -0.1,1.1 -0.1,1.8 v 6.6 z m -3.4,-6.4 c 0,-1.6 0.2,-2.7 0.5,-3.5 0.5,-1.2 1.4,-2 3,-2.5 1.1,-0.4 2.3,-0.5 3.6,-0.5 1.3,0 2.5,0.2 3.6,0.5 1.5,0.5 2.5,1.3 3,2.5 0.3,0.7 0.4,1.9 0.5,3.5 v 6.5 c 0,1.2 -0.1,2.2 -0.2,3 -0.4,2.5 -2.6,3.8 -6.7,3.8 -3,0 -5,-0.6 -6,-1.8 -0.8,-0.9 -1.2,-2.6 -1.1,-5.1 v -6.4 z"
   id="path24"
   inkscape:connector-curvature="0"
   style="fill:#2c3e7e" />
		<path
   class="st0"
   d="m 414.2,370.9 h 3.4 v 12.8 1.7 c 0.1,1.9 1.2,2.8 3.4,2.8 2.1,0 3.3,-0.9 3.5,-2.6 0.1,-0.6 0.1,-1.2 0.1,-1.9 v -12.8 h 3.4 v 13 c 0,1.1 0,1.9 -0.1,2.5 -0.1,0.9 -0.5,1.6 -1.1,2.2 -1.2,1.2 -3.1,1.7 -5.7,1.7 -2.6,0 -4.5,-0.6 -5.7,-1.7 -0.6,-0.7 -1,-1.4 -1.1,-2.3 -0.1,-0.5 -0.1,-1.3 -0.1,-2.5 z"
   id="path26"
   inkscape:connector-curvature="0"
   style="fill:#2c3e7e" />
		<path
   class="st0"
   d="m 434.5,373.1 v 6.2 h 2.4 c 0.7,0 1.3,0 1.9,-0.1 1,-0.2 1.7,-0.6 2.1,-1.2 0.3,-0.4 0.4,-1.1 0.4,-2.1 0,-1.1 -0.4,-1.8 -1.1,-2.2 -0.5,-0.3 -1.6,-0.5 -3.1,-0.5 h -2.6 z m 2.2,-2.2 h 2 c 0.8,0 1.5,0.1 2.1,0.2 2.5,0.4 3.7,1.9 3.8,4.6 0,1.4 -0.3,2.5 -1,3.2 -0.6,0.7 -1.9,1.2 -3.7,1.4 v 0 c 1.1,0.1 2,0.3 2.5,0.5 0.7,0.3 1.2,0.9 1.4,1.7 0.1,0.5 0.2,1.1 0.2,1.8 l 0.1,2.3 c 0.1,0.9 0.2,1.5 0.3,2 0.1,0.4 0.2,0.9 0.5,1.5 h -3.5 l -0.3,-1.2 c -0.1,-0.3 -0.2,-0.8 -0.2,-1.3 l -0.1,-1.7 -0.1,-1.8 c -0.2,-1.4 -0.8,-2.2 -2.1,-2.5 -0.5,-0.1 -1.1,-0.2 -1.8,-0.2 h -2.3 v 8.7 h -3.4 v -19.2 z"
   id="path28"
   inkscape:connector-curvature="0"
   style="fill:#2c3e7e" />
		<path
   class="st0"
   d="m 457.3,376 v -0.9 c -0.1,-1.5 -1,-2.3 -2.8,-2.3 -1.6,0 -2.7,0.4 -3.1,1.2 -0.3,0.4 -0.4,0.8 -0.4,1.2 v 1.6 7.6 c 0,1.4 0.2,2.3 0.4,2.7 0.6,0.8 1.5,1.2 2.9,1.2 1.8,0 2.8,-0.8 3,-2.5 l 0.1,-1.2 v -0.7 h 3.4 v 0.7 1.2 c -0.1,1.4 -0.6,2.5 -1.5,3.3 -0.6,0.5 -1.2,0.8 -2,1 -0.9,0.2 -1.9,0.4 -2.9,0.4 -0.9,0 -1.8,-0.1 -2.6,-0.2 -2.8,-0.5 -4.2,-2.3 -4.2,-5.4 v -7.7 c 0,-0.8 0,-1.6 0.2,-2.3 0.1,-0.9 0.4,-1.6 0.9,-2.2 1.1,-1.3 3,-2 5.8,-2 3.9,0 6,1.2 6.3,3.6 0.1,0.5 0.1,1 0.1,1.5 v 0.7 h -3.4 V 376 Z"
   id="path30"
   inkscape:connector-curvature="0"
   style="fill:#2c3e7e" />
	</g>
	<polygon
   class="st0"
   points="467,388 474.9,388 474.9,390.1 463.6,390.1 463.6,370.9 474.7,370.9 474.7,373.1 467,373.1 467,379.2 474.2,379.2 474.2,381.3 467,381.3 "
   id="polygon34"
   style="fill:#2c3e7e" />
	<g
   id="g38">
		<path
   class="st0"
   d="m 487,383.5 c 0,1.6 0.1,2.7 0.4,3.2 0.2,0.5 0.7,0.9 1.3,1.1 0.6,0.3 1.3,0.4 2,0.4 0.6,0 1.2,-0.1 1.8,-0.4 1.1,-0.4 1.6,-1.1 1.8,-2.2 0.1,-0.6 0.1,-1.3 0.1,-2.2 v -6.5 c 0,-1.4 -0.1,-2.4 -0.5,-2.9 -0.5,-0.9 -1.6,-1.4 -3.1,-1.4 -0.6,0 -1.2,0.1 -1.7,0.3 -1.1,0.4 -1.7,1.1 -1.8,2.2 -0.1,0.5 -0.1,1.1 -0.1,1.8 v 6.6 z m -3.4,-6.4 c 0,-1.6 0.2,-2.7 0.4,-3.5 0.4,-1.2 1.4,-2 3,-2.5 1.1,-0.4 2.3,-0.5 3.6,-0.5 1.3,0 2.5,0.2 3.6,0.5 1.5,0.5 2.5,1.3 3,2.5 0.3,0.7 0.4,1.9 0.5,3.5 v 6.5 c 0,1.2 -0.1,2.2 -0.2,3 -0.4,2.5 -2.6,3.8 -6.7,3.8 -3,0 -5,-0.6 -6,-1.8 -0.8,-0.9 -1.1,-2.6 -1.1,-5.1 v -6.4 z"
   id="path36"
   inkscape:connector-curvature="0"
   style="fill:#2c3e7e" />
	</g>
	<polygon
   class="st0"
   points="500.7,390.1 500.7,370.9 511.5,370.9 511.5,373.1 504.1,373.1 504.1,379.1 511.2,379.1 511.2,381.3 504.1,381.3 504.1,390.1 "
   id="polygon40"
   style="fill:#2c3e7e" />
	<g
   id="g50">
		<path
   class="st0"
   d="m 522.7,383.7 v 1.1 c 0,0.6 0,1.1 0.2,1.5 0.3,1.3 1.4,2 3.3,2 0.7,0 1.3,-0.1 1.9,-0.3 1.3,-0.4 1.9,-1.3 2,-2.7 0,-1 -0.4,-1.8 -1.3,-2.3 -0.6,-0.4 -1.3,-0.7 -2.1,-1.1 l -2.5,-1.1 c -1,-0.4 -1.8,-0.8 -2.4,-1.3 -1.3,-0.9 -2,-2.2 -2,-3.9 0,-1.9 0.8,-3.2 2.3,-4 1.1,-0.6 2.6,-0.9 4.6,-0.9 2.4,0 4.1,0.4 5.1,1.3 0.8,0.7 1.2,2.1 1.2,4.1 v 0.4 h -3.4 V 376 l -0.1,-1 c -0.2,-1.5 -1.2,-2.2 -3,-2.2 -2.3,0 -3.4,0.9 -3.4,2.6 0,1.1 0.7,2 2.1,2.7 0.9,0.4 1.9,0.9 3,1.3 1.1,0.4 2,0.9 2.7,1.3 1.6,1 2.4,2.4 2.4,4.3 0,3.5 -2.4,5.3 -7.2,5.3 -2.1,0 -3.6,-0.3 -4.7,-1 -1.3,-0.8 -2,-1.9 -2.1,-3.4 l -0.1,-1.5 v -0.8 h 3.5 z"
   id="path42"
   inkscape:connector-curvature="0"
   style="fill:#2c3e7e" />
		<path
   class="st0"
   d="m 535.8,370.9 h 3.4 v 12.8 1.7 c 0.1,1.9 1.3,2.8 3.4,2.8 2.1,0 3.3,-0.9 3.5,-2.6 0.1,-0.6 0.1,-1.2 0.1,-1.9 v -12.8 h 3.4 v 13 c 0,1.1 -0.1,1.9 -0.1,2.5 -0.1,0.9 -0.5,1.6 -1.1,2.2 -1.2,1.2 -3.1,1.7 -5.7,1.7 -2.6,0 -4.5,-0.6 -5.7,-1.7 -0.6,-0.7 -1,-1.4 -1.1,-2.3 -0.1,-0.5 -0.1,-1.3 -0.1,-2.5 z"
   id="path44"
   inkscape:connector-curvature="0"
   style="fill:#2c3e7e" />
		<path
   class="st0"
   d="m 562.7,376 v -0.9 c -0.1,-1.5 -1,-2.3 -2.9,-2.3 -1.6,0 -2.6,0.4 -3.1,1.2 -0.3,0.4 -0.4,0.8 -0.4,1.2 v 1.6 7.6 c 0,1.4 0.2,2.3 0.4,2.7 0.5,0.8 1.5,1.2 2.9,1.2 1.8,0 2.8,-0.8 3,-2.5 l 0.1,-1.2 v -0.7 h 3.4 v 0.7 1.2 c -0.1,1.4 -0.6,2.5 -1.5,3.3 -0.6,0.5 -1.2,0.8 -2,1 -0.9,0.2 -1.9,0.4 -2.9,0.4 -0.9,0 -1.8,-0.1 -2.6,-0.2 -2.8,-0.5 -4.2,-2.3 -4.2,-5.4 v -7.7 c 0,-0.8 0,-1.6 0.2,-2.3 0.1,-0.9 0.4,-1.6 0.9,-2.2 1.1,-1.3 3,-2 5.8,-2 3.9,0 6,1.2 6.3,3.6 0.1,0.5 0.1,1 0.1,1.5 v 0.7 h -3.4 V 376 Z"
   id="path46"
   inkscape:connector-curvature="0"
   style="fill:#2c3e7e" />
		<path
   class="st0"
   d="m 578.9,376 v -0.9 c -0.1,-1.5 -1,-2.3 -2.8,-2.3 -1.6,0 -2.6,0.4 -3.1,1.2 -0.3,0.4 -0.4,0.8 -0.4,1.2 v 1.6 7.6 c 0,1.4 0.2,2.3 0.4,2.7 0.6,0.8 1.5,1.2 2.9,1.2 1.8,0 2.8,-0.8 3,-2.5 l 0.1,-1.2 v -0.7 h 3.4 v 0.7 1.2 c -0.1,1.4 -0.6,2.5 -1.5,3.3 -0.6,0.5 -1.2,0.8 -2,1 -0.9,0.2 -1.9,0.4 -2.9,0.4 -0.9,0 -1.8,-0.1 -2.6,-0.2 -2.8,-0.5 -4.2,-2.3 -4.2,-5.4 v -7.7 c 0,-0.8 0,-1.6 0.2,-2.3 0.1,-0.9 0.4,-1.6 0.9,-2.2 1.1,-1.3 3,-2 5.8,-2 3.9,0 6,1.2 6.3,3.6 0.1,0.5 0.1,1 0.1,1.5 v 0.7 h -3.4 V 376 Z"
   id="path48"
   inkscape:connector-curvature="0"
   style="fill:#2c3e7e" />
	</g>
	<polygon
   class="st0"
   points="588.6,388 596.5,388 596.5,390.1 585.2,390.1 585.2,370.9 596.3,370.9 596.3,373.1 588.6,373.1 588.6,379.2 595.8,379.2 595.8,381.3 588.6,381.3 "
   id="polygon52"
   style="fill:#2c3e7e" />
	<g
   id="g58">
		<path
   class="st0"
   d="m 601.4,383.7 v 1.1 c 0,0.6 0.1,1.1 0.2,1.5 0.3,1.3 1.4,2 3.3,2 0.7,0 1.3,-0.1 1.9,-0.3 1.3,-0.4 1.9,-1.3 2,-2.7 0,-1 -0.4,-1.8 -1.3,-2.3 -0.6,-0.4 -1.3,-0.7 -2.1,-1.1 l -2.4,-1.1 c -1,-0.4 -1.8,-0.8 -2.4,-1.3 -1.3,-0.9 -2,-2.2 -2,-3.9 0,-1.9 0.8,-3.2 2.3,-4 1.1,-0.6 2.6,-0.9 4.6,-0.9 2.4,0 4.1,0.4 5.1,1.3 0.8,0.7 1.2,2.1 1.2,4.1 v 0.4 h -3.4 V 376 l -0.1,-1 c -0.2,-1.5 -1.2,-2.2 -3,-2.2 -2.3,0 -3.4,0.9 -3.4,2.6 0,1.1 0.7,2 2.1,2.7 0.9,0.4 1.9,0.9 3,1.3 1.1,0.4 2,0.9 2.7,1.3 1.6,1 2.4,2.4 2.4,4.3 0,3.5 -2.4,5.3 -7.2,5.3 -2.1,0 -3.6,-0.3 -4.7,-1 -1.3,-0.8 -2,-1.9 -2.1,-3.4 l -0.1,-1.5 v -0.8 h 3.4 z"
   id="path54"
   inkscape:connector-curvature="0"
   style="fill:#2c3e7e" />
		<path
   class="st0"
   d="m 617.1,383.7 v 1.1 c 0,0.6 0.1,1.1 0.2,1.5 0.3,1.3 1.4,2 3.3,2 0.7,0 1.3,-0.1 1.9,-0.3 1.3,-0.4 1.9,-1.3 2,-2.7 0,-1 -0.4,-1.8 -1.3,-2.3 -0.6,-0.4 -1.3,-0.7 -2.1,-1.1 l -2.4,-1.1 c -1,-0.4 -1.8,-0.8 -2.4,-1.3 -1.4,-0.9 -2,-2.2 -2,-3.9 0,-1.9 0.8,-3.2 2.3,-4 1.1,-0.6 2.6,-0.9 4.6,-0.9 2.4,0 4.1,0.4 5.1,1.3 0.8,0.7 1.3,2.1 1.3,4.1 v 0.4 H 624 V 376 l -0.1,-1 c -0.2,-1.5 -1.2,-2.2 -3,-2.2 -2.3,0 -3.4,0.9 -3.4,2.6 0,1.1 0.7,2 2.1,2.7 0.9,0.4 1.9,0.9 3,1.3 1.1,0.4 2,0.9 2.7,1.3 1.6,1 2.4,2.4 2.4,4.3 0,3.5 -2.4,5.3 -7.2,5.3 -2,0 -3.6,-0.3 -4.7,-1 -1.3,-0.8 -2,-1.9 -2.1,-3.4 l -0.1,-1.5 v -0.8 h 3.5 z"
   id="path56"
   inkscape:connector-curvature="0"
   style="fill:#2c3e7e" />
	</g>
</g>
</svg>