<?xml version="1.0" encoding="UTF-8" standalone="no"?>
<svg
        xmlns="http://www.w3.org/2000/svg"
        width="800"
        height="800"
        viewBox="0 0 800 800"
        version="1.1"
        id="animatedlogo">
    <g
            id="layer1"
            transform="translate(0,32.3)">
        <path
                d="M 176.33968,692.88883 A 106.67685,106.67685 0 0 1 100.04678,566.9768"
                id="path903-3-6-9"
                style="opacity:1;fill:none;fill-opacity:1;stroke:#ffffff;stroke-width:26;stroke-linecap:round;stroke-linejoin:round;stroke-miterlimit:4;stroke-dashoffset:0;stroke-opacity:1" />
        <path
                id="rect814"
                d="m 387.17171,92.535294 227.54441,0.599243 c 44.10022,0.116139 79.60355,35.503183 79.60355,79.603553 v 389.58153 c 0,44.10037 -35.50318,79.60355 -79.60355,79.60355 H 386.90688"
                style="opacity:1;fill:none;fill-opacity:1;stroke:#ffffff;stroke-width:26;stroke-linecap:butt;stroke-linejoin:round;stroke-miterlimit:4;stroke-dashoffset:0;stroke-opacity:1" />
        <path
                id="path816"
                d="m 694.48632,545.433 h 79.29503"
                style="fill:none;stroke:#ffffff;stroke-width:26;stroke-linecap:butt;stroke-linejoin:miter;stroke-miterlimit:4;stroke-opacity:1;fill-opacity:1" />
        <path
                id="path846"
                d="m 387.24157,37.270296 0,605.112964"
                style="fill:none;stroke:#ffffff;stroke-width:26;stroke-linecap:butt;stroke-linejoin:miter;stroke-miterlimit:4;stroke-opacity:1;fill-opacity:1" />
        <path
                id="path865"
                d="m 576.66772,464.94579 -44.45019,43.4322 v 0 H 388.1084"
                style="fill:none;stroke:#ffffff;stroke-width:26;stroke-linecap:butt;stroke-linejoin:miter;stroke-miterlimit:4;stroke-opacity:1;fill-opacity:1" />
        <path
                style="fill:none;stroke:#ffffff;stroke-width:26;stroke-linecap:butt;stroke-linejoin:miter;stroke-miterlimit:4;stroke-opacity:1;fill-opacity:1"
                d="m 458.1213,507.92375 v -79.54068 l 42.48034,-42.84273"
                id="path844-6" />
        <path
                style="fill:none;stroke:#ffffff;stroke-width:26;stroke-linecap:butt;stroke-linejoin:miter;stroke-miterlimit:4;stroke-opacity:1;fill-opacity:1"
                d="M 387.19467,227.19646 H 531.3038 l 43.91986,42.90187"
                id="path818-3-7" />
        <path
                id="path903"
                d="m 620.73093,287.8913 a 26.604164,25.875261 0 0 1 -26.60416,25.87526 26.604164,25.875261 0 0 1 -26.60416,-25.87526 26.604164,25.875261 0 0 1 26.60416,-25.87526 26.604164,25.875261 0 0 1 26.60416,25.87526 z"
                style="opacity:1;fill:none;fill-opacity:1;stroke:#ffffff;stroke-width:26;stroke-linecap:butt;stroke-linejoin:round;stroke-miterlimit:4;stroke-dashoffset:0;stroke-opacity:1" />
        <path
                id="path903-3"
                d="m 546.44749,367.40564 a 26.604164,25.875261 0 0 1 -26.60417,25.87526 26.604164,25.875261 0 0 1 -26.60416,-25.87526 26.604164,25.875261 0 0 1 26.60416,-25.87526 26.604164,25.875261 0 0 1 26.60417,25.87526 z"
                style="opacity:1;fill:none;fill-opacity:1;stroke:#ffffff;stroke-width:26;stroke-linecap:butt;stroke-linejoin:round;stroke-miterlimit:4;stroke-dashoffset:0;stroke-opacity:1" />
        <path
                id="path903-3-5"
                d="m 620.75364,446.80536 a 26.604164,25.875261 0 0 1 -26.60416,25.87526 26.604164,25.875261 0 0 1 -26.60417,-25.87526 26.604164,25.875261 0 0 1 26.60417,-25.87526 26.604164,25.875261 0 0 1 26.60416,25.87526 z"
                style="opacity:1;fill:none;fill-opacity:1;stroke:#ffffff;stroke-width:26;stroke-linecap:butt;stroke-linejoin:round;stroke-miterlimit:4;stroke-dashoffset:0;stroke-opacity:1" />
        <path
                d="M 138.72677,451.20335 A 98.202271,98.202271 0 0 1 48.648164,386.84661 98.202271,98.202271 0 0 1 75.736683,279.50529"
                id="path903-3-6"
                style="opacity:1;fill:none;fill-opacity:1;stroke:#ffffff;stroke-width:26;stroke-linecap:round;stroke-linejoin:round;stroke-miterlimit:4;stroke-dashoffset:0;stroke-opacity:1" />
        <path
                d="M 99.893138,567.00243 A 98.202271,98.202271 0 0 1 45.655283,499.86368 98.202271,98.202271 0 0 1 65.370715,415.83596"
                id="path903-3-6-2"
                style="opacity:1;fill:none;fill-opacity:1;stroke:#ffffff;stroke-width:26;stroke-linecap:round;stroke-linejoin:round;stroke-miterlimit:4;stroke-dashoffset:0;stroke-opacity:1" />
        <path
                d="m 305.85415,537.33686 a 110.78638,110.78638 0 0 1 80.77674,109.97603 110.78638,110.78638 0 0 1 -87.21555,104.9431 110.78638,110.78638 0 0 1 -122.89813,-59.29298"
                id="path903-3-6-2-1"
                style="opacity:1;fill:none;fill-opacity:1;stroke:#ffffff;stroke-width:26;stroke-linecap:round;stroke-linejoin:round;stroke-miterlimit:4;stroke-dashoffset:0;stroke-opacity:1" />
        <path
                d="m 194.83486,577.72662 a 98.202271,98.202271 0 0 1 22.07934,-79.74039 98.202271,98.202271 0 0 1 75.17508,-34.56496"
                id="path903-3-6-2-2"
                style="opacity:1;fill:none;fill-opacity:1;stroke:#ffffff;stroke-width:26;stroke-linecap:round;stroke-linejoin:round;stroke-miterlimit:4;stroke-dashoffset:0;stroke-opacity:1" />
        <path
                d="m 166.33946,574.1594 a 98.202271,98.202271 0 0 1 69.63633,29.74921 98.202271,98.202271 0 0 1 27.76679,70.45026"
                id="path903-3-6-2-2-7"
                style="opacity:1;fill:none;fill-opacity:1;stroke:#ffffff;stroke-width:26;stroke-linecap:round;stroke-linejoin:round;stroke-miterlimit:4;stroke-dashoffset:0;stroke-opacity:1" />
        <path
                d="m 332.78719,311.18824 a 96.507355,96.507355 0 0 1 -105.48815,22.66429 96.507355,96.507355 0 0 1 -60.57186,-89.2887"
                id="path903-3-6-0"
                style="opacity:1;fill:none;fill-opacity:1;stroke:#ffffff;stroke-width:26;stroke-linecap:round;stroke-linejoin:round;stroke-miterlimit:4;stroke-dashoffset:0;stroke-opacity:1" />
        <path
                d="m 263.98846,340.71489 a 73.086098,73.08728 0 0 1 -67.82754,68.61487"
                id="path903-3-6-0-9"
                style="opacity:1;fill:none;fill-opacity:1;stroke:#ffffff;stroke-width:26;stroke-linecap:round;stroke-linejoin:round;stroke-miterlimit:4;stroke-dashoffset:0;stroke-opacity:1" />
        <path
                d="M 75.816981,279.17557 A 96.719215,96.719215 0 0 1 98.04969,174.37713 96.719215,96.719215 0 0 1 203.29585,154.37084 96.719215,96.719215 0 0 1 262.43076,243.70207"
                id="path903-3-6-3"
                style="opacity:1;fill:none;fill-opacity:1;stroke:#ffffff;stroke-width:26;stroke-linecap:round;stroke-linejoin:round;stroke-miterlimit:4;stroke-dashoffset:0;stroke-opacity:1" />
        <path
                d="M 166.73114,146.45757 A 68.255165,68.255165 0 0 1 159.68415,73.498286 68.255165,68.255165 0 0 1 222.7984,36.224851 68.255165,68.255165 0 0 1 283.28746,77.622796"
                id="path903-3-6-3-6"
                style="opacity:1;fill:none;fill-opacity:1;stroke:#ffffff;stroke-width:26;stroke-linecap:round;stroke-linejoin:round;stroke-miterlimit:4;stroke-dashoffset:0;stroke-opacity:1" />
        <path
                d="m 333.30386,202.31366 a 68.255165,68.255165 0 0 1 54.67889,40.95519"
                id="path903-3-6-3-6-0"
                style="opacity:1;fill:none;fill-opacity:1;stroke:#ffffff;stroke-width:26;stroke-linecap:round;stroke-linejoin:round;stroke-miterlimit:4;stroke-dashoffset:0;stroke-opacity:1" />
        <path
                d="m 331.98749,-18.453278 a 55.19379,55.19379 0 0 1 55.19379,55.193791"
                id="path903-3-6-3-62"
                style="opacity:1;fill:none;fill-opacity:1;stroke:#ffffff;stroke-width:26;stroke-linecap:round;stroke-linejoin:round;stroke-miterlimit:4;stroke-dashoffset:0;stroke-opacity:1" />
        <path
                d="M 196.28141,40.451011 A 244.26297,244.26297 0 0 1 332.38252,-18.491547"
                id="path903-3-6-3-6-6"
                style="opacity:1;fill:none;fill-opacity:1;stroke:#ffffff;stroke-width:26;stroke-linecap:round;stroke-linejoin:round;stroke-miterlimit:4;stroke-dashoffset:0;stroke-opacity:1" />
        <path
                style="fill:none;stroke:#ffffff;stroke-width:26;stroke-linecap:butt;stroke-linejoin:miter;stroke-miterlimit:4;stroke-opacity:1;fill-opacity:1"
                d="m 694.48632,486.033 h 79.29503"
                id="path1154" />
        <path
                id="path1156"
                d="m 694.48632,427.133 h 79.29503"
                style="fill:none;stroke:#ffffff;stroke-width:26;stroke-linecap:butt;stroke-linejoin:miter;stroke-miterlimit:4;stroke-opacity:1;fill-opacity:1" />
        <path
                style="fill:none;stroke:#ffffff;stroke-width:26;stroke-linecap:butt;stroke-linejoin:miter;stroke-miterlimit:4;stroke-opacity:1;fill-opacity:1"
                d="m 694.48632,367.633 h 79.29503"
                id="path1158" />
        <path
                id="path1160"
                d="m 694.48632,308.233 h 79.29503"
                style="fill:none;stroke:#ffffff;stroke-width:26;stroke-linecap:butt;stroke-linejoin:miter;stroke-miterlimit:4;stroke-opacity:1;fill-opacity:1" />
        <path
                style="fill:none;stroke:#ffffff;stroke-width:26;stroke-linecap:butt;stroke-linejoin:miter;stroke-miterlimit:4;stroke-opacity:1;fill-opacity:1"
                d="m 694.48632,249.333 h 79.29503"
                id="path1162" />
        <path
                id="path1164"
                d="m 694.48632,189.533 h 79.29503"
                style="fill:none;stroke:#ffffff;stroke-width:26;stroke-linecap:butt;stroke-linejoin:miter;stroke-miterlimit:4;stroke-opacity:1;fill-opacity:1" />
        <path
                style="fill:none;stroke:#ffffff;stroke-width:26;stroke-linecap:butt;stroke-linejoin:miter;stroke-miterlimit:4;stroke-opacity:1;fill-opacity:1"
                d="M 427.58086,14.67859 V 93.973623"
                id="path1158-1" />
        <path
                id="path1160-8"
                d="M 486.98085,14.67859 V 93.973623"
                style="fill:none;stroke:#ffffff;stroke-width:26;stroke-linecap:butt;stroke-linejoin:miter;stroke-miterlimit:4;stroke-opacity:1;fill-opacity:1" />
        <path
                style="fill:none;stroke:#ffffff;stroke-width:26;stroke-linecap:butt;stroke-linejoin:miter;stroke-miterlimit:4;stroke-opacity:1;fill-opacity:1"
                d="M 545.88085,14.67859 V 93.973623"
                id="path1162-7" />
        <path
                id="path1164-9"
                d="M 605.68085,14.67859 V 93.973623"
                style="fill:none;stroke:#ffffff;stroke-width:26;stroke-linecap:butt;stroke-linejoin:miter;stroke-miterlimit:4;stroke-opacity:1;fill-opacity:1" />
        <path
                id="path1190"
                d="M 427.58086,641.57897 V 720.874"
                style="fill:none;stroke:#ffffff;stroke-width:26;stroke-linecap:butt;stroke-linejoin:miter;stroke-miterlimit:4;stroke-opacity:1;fill-opacity:1" />
        <path
                style="fill:none;stroke:#ffffff;stroke-width:26;stroke-linecap:butt;stroke-linejoin:miter;stroke-miterlimit:4;stroke-opacity:1;fill-opacity:1"
                d="M 486.98085,641.57897 V 720.874"
                id="path1192" />
        <path
                id="path1194"
                d="M 545.88085,641.57897 V 720.874"
                style="fill:none;stroke:#ffffff;stroke-width:26;stroke-linecap:butt;stroke-linejoin:miter;stroke-miterlimit:4;stroke-opacity:1;fill-opacity:1" />
        <path
                style="fill:none;stroke:#ffffff;stroke-width:26;stroke-linecap:butt;stroke-linejoin:miter;stroke-miterlimit:4;stroke-opacity:1;fill-opacity:1"
                d="M 605.68085,641.57897 V 720.874"
                id="path1196" />
        <path
                id="path2577-2"
                style="opacity:1;fill:#4b4b4b;fill-opacity:1;stroke:none;stroke-width:7.42626953;stroke-miterlimit:4;stroke-opacity:1"
                d="m -451.99083,277.01417 c -9.9511,9.9e-4 -19.9021,-3.75559 -27.4194,-11.27345 -11.83649,-11.83637 -14.3484,-29.70611 -7.5476,-44.1097 l -31.57401,-31.57392 -60.93309,0.002 h -66.5351 v -25.85318 h 66.5351 71.6421 l 2.4724,2.47533 36.6723,36.66927 c 14.4033,-6.8011 32.2698,-4.28642 44.1068,7.55046 15.0349,15.03499 15.0349,39.79816 0,54.83316 v 0.002 c -7.51761,7.51752 -17.46871,11.27545 -27.4195,11.27638 z m 0,-25.68822 c 3.2807,-4.2e-4 6.5617,-1.28996 9.1397,-3.86776 5.1561,-5.15597 5.1561,-13.12074 0,-18.27682 -5.1561,-5.15599 -13.12361,-5.15916 -18.2797,-0.002 -5.1559,5.15598 -5.1559,13.12651 0,18.28251 2.5781,2.57804 5.8592,3.86542 9.14,3.86499 z m -46.9163,39.0159 c -15.0349,-15.03498 -39.8038,-15.03498 -54.8389,0 -11.8368,11.83688 -14.3469,29.70443 -7.5457,44.10783 l -36.67249,36.67252 -2.473,2.47288 v 71.64186 h 25.8513 v -60.93527 l 31.5731,-31.57309 c 14.4035,6.80037 32.2715,4.29045 44.10779,-7.54576 15.03491,-15.03499 15.03292,-39.80596 0,-54.84095 z m -18.279,18.27892 c 5.15609,5.15606 5.15609,13.12502 0,18.28101 -5.1559,5.156 -13.1248,5.156 -18.2809,0 -5.156,-5.15599 -5.156,-13.12495 0,-18.28101 5.15611,-5.15589 13.125,-5.15589 18.2809,0 z m 65.1953,49.76697 c -9.9511,-9.3e-4 -19.9021,3.75576 -27.4194,11.27353 -11.83649,11.8363 -14.3483,29.70611 -7.5476,44.10973 l -31.57401,31.57391 -60.93309,-0.002 h -66.5351 v 25.85328 h 66.5351 71.6421 l 2.4724,-2.47525 36.6723,-36.66933 c 14.4033,6.8012 32.2698,4.28649 44.1068,-7.55037 15.0349,-15.035 15.0349,-39.79827 0,-54.83324 v -0.002 c -7.51761,-7.51753 -17.46871,-11.27544 -27.4195,-11.27646 z m 0,25.68821 c 3.2807,4.8e-4 6.5617,1.29006 9.1397,3.86784 5.1561,5.15598 5.1561,13.12076 0,18.27683 -5.156,5.15599 -13.12361,5.15925 -18.2796,0.002 -5.1559,-5.15599 -5.1559,-13.12653 0,-18.28251 2.578,-2.57804 5.8591,-3.86542 9.1399,-3.86501 z m 24.5395,283.83494 h -25.85121 v -62.25618 h 25.85121 z M -605.32583,29.745878 h -25.8511 v -62.25617 h 25.8511 z m 118.58289,638.165012 h -25.85108 v -62.25618 h 25.85108 z m -59.29168,0 h -25.851 v -62.25618 h 25.851 z m -59.2913,0 h -25.8511 v -62.25618 h 25.8511 z M -427.45114,29.745898 h -25.85109 v -62.25619 h 25.85109 z m -59.2916,0 h -25.85109 v -62.25619 h 25.85109 z m -59.29149,0 h -25.8513 v -62.25619 h 25.8513 z m 270.6068,452.903692 v 25.85105 h -62.2562 v -25.85105 z m 0,-59.29165 v 25.85118 h -62.2562 v -25.8512 z m 0,-59.29157 v 25.85118 h -62.2562 v -25.85118 z m 0,-237.16642 v 25.85107 h -62.2562 v -25.85107 z m 0,59.29155 v 25.85116 h -62.2562 V 186.1915 Z m 0,59.29157 v 25.85125 h -62.2562 v -25.85125 z m 0,59.29166 v 25.85115 h -62.2562 V 304.7747 Z M -646.00003,29.745878 V 55.59621 h 213.2181 c 38.58641,0 69.2477,30.66136 69.2477,69.24788 v 385.71684 c 0,38.58633 -30.66129,69.24495 -69.2477,69.24495 h -212.62959 v 25.85025 h 212.62959 c 52.46082,0 95.0981,-42.63442 95.0981,-95.09518 V 124.84409 c 0,-52.46087 -42.6373,-95.098212 -95.0981,-95.098212 z m -68.08369,-111.05412 c -40.78331,0 -93.934,23.064991 -142.53041,61.76972 -29.1681,12.5373002 -49.6503,41.54602 -49.6503,75.254102 0,10.56217 1.998,20.85637 5.8502,30.45847 -50.40103,9.77277 -88.58133,54.213 -88.58133,107.4268 0,11.06192 1.6646,21.95189 4.9565,32.48129 -20.77774,20.5106 -32.53354,48.39965 -32.53354,77.82987 0,23.00635 7.1503,44.36633 19.32574,62.0054 -12.65294,18.29074 -19.32574,39.62767 -19.32574,62.09282 0,39.79405 21.69544,76.25436 56.04474,95.47924 -0.5913,4.91562 -0.8907,9.8754 -0.8907,14.82905 0,53.67914 35.01371,101.13675 85.81634,117.31084 22.0981,37.81882 62.35289,61.07997 106.3645,61.07997 48.2516,0 90.08899,-27.89032 110.3083,-68.38243 10.2841,-17.81284 12.9283,-35.658 12.9283,-54.74083 v -0.11394 -14.27609 l 4e-4,-426.95974 V 98.88953 c -10e-4,8.4e-4 -10e-4,0.002 0,0.002 v -112.120762 -0.11394 c 0,-17.673579 -6.4836,-33.283639 -12.9284,-39.728439 -12.3808,-17.09095 -32.4842,-28.23772 -55.1546,-28.23772 z m 0,25.854081 c 23.284,0 42.22858,18.940039 42.22858,42.225639 l -1.9e-4,167.275612 c 0,0 -15.369,-14.73883 -42.22839,-14.73883 -7.139,0 -12.92831,5.78771 -12.92831,12.92848 0,7.14077 5.7893,12.92554 12.92831,12.92554 15.54909,0 42.22858,8.7265 42.22858,42.22858 v 310.72572 c -16.0723,-20.7364 -38.7311,-36.38551 -65.3845,-43.54686 -6.8927,-1.84606 -13.986,2.23291 -15.839,9.12721 -1.8528,6.89613 2.2359,13.98789 9.1303,15.83903 42.4467,11.40491 72.0932,50.0318 72.0932,93.93659 0,53.6965 -43.6862,97.38268 -97.38258,97.38268 -36.24522,0 -69.2726,-19.98209 -86.1947,-52.14752 -1.67701,-3.18697 -4.606,-5.53126 -8.0824,-6.46719 -42.4225,-11.41697 -72.04975,-50.03791 -72.04975,-93.922 0,-6.56686 0.6628,-13.14454 1.9675,-19.55289 1.2099,-5.9411 -1.8745,-11.9277 -7.4158,-14.39247 -30.19549,-13.42321 -49.70569,-43.39774 -49.70569,-76.36293 0,-14.99344 3.8872,-29.32482 11.3074,-42.01895 19.297,17.01347 44.5976,27.36743 72.2852,27.36743 7.13913,0 12.92853,-5.7847 12.92853,-12.92555 0,-7.14084 -5.7894,-12.92846 -12.92853,-12.92846 -46.0937,0 -83.5926,-37.49896 -83.5926,-83.59269 0,-24.81269 10.9488,-48.19815 30.0393,-64.1534 4.309,-3.60226 5.799,-9.57604 3.6876,-14.77953 -4.0814,-10.0588 -6.1499,-20.61616 -6.1499,-31.37823 0,-46.09364 37.4989,-83.59268 83.59263,-83.59268 46.09381,0 83.59571,37.49904 83.59571,83.59268 0,7.14077 5.78638,12.92848 12.9256,12.92848 7.13899,0 12.9284,-5.78771 12.9284,-12.92848 0,-57.98466 -45.3346,-105.5562 -102.4179,-109.19642 -5.17421,-8.64892 -7.8932,-18.48351 -7.8932,-28.68885 0,-23.042552 13.9881,-42.873272 33.9161,-51.4636218 0.7704,-0.22872 1.52659,-0.52867 2.2557,-0.90801 6.1738,-2.34756996 12.85809,-3.64398996 19.8438,-3.64398996 21.643,0 40.9668,12.10143976 50.4275,31.58482976 3.1196,6.42383 10.8535,9.10249 17.2738,5.98113 6.422,-3.118 9.1007,-10.85186 5.981,-17.27386 -10.7998,-22.2394398 -31.23961,-38.2256 -54.7785,-43.88762 32.9928,-20.131409 65.4744,-31.558599 91.4072,-31.558599 z M -879.54893,180.67532 c -7.13899,0 -12.9255,5.78476 -12.9255,12.92553 0,55.52518 41.572,101.49375 95.2202,108.49503 -5.4999,25.15218 -27.9399,44.04471 -54.7175,44.04471 -7.1392,0 -12.9256,5.78477 -12.9256,12.92553 0,7.14077 5.7864,12.92554 12.9256,12.92554 40.9763,0 75.0138,-30.26007 80.9499,-69.60766 25.0883,-2.71292 48.25051,-13.89096 66.17901,-32.19023 4.99668,-5.1001 4.9109,-13.28595 -0.18911,-18.28082 -5.0984,-4.9933 -13.28431,-4.91386 -18.28089,0.18686 -15.8552,16.18446 -37.06191,25.0973 -59.7148,25.0973 -46.09392,0 -83.5928,-37.5018 -83.5928,-83.59555 0,-7.14084 -5.7894,-12.92563 -12.9285,-12.92563 z m 124.09831,220.61937 c -60.3495,0 -109.4467,49.09722 -109.4467,109.4467 0,0.62416 0.023,1.24867 0.033,1.87436 -4.807,-0.64763 -9.70229,-1.01284 -14.6835,-1.01284 -7.1392,0 -12.9256,5.78769 -12.9256,12.92847 0,7.14077 5.7864,12.92553 12.9256,12.92553 46.0937,0 83.5955,37.49898 83.5955,83.59268 0,7.14087 5.7865,12.92849 12.9257,12.92849 7.1389,0 12.9283,-5.78762 12.9283,-12.92849 0,-45.86619 -28.3753,-85.20689 -68.4812,-101.46032 -0.3069,-2.92832 -0.4627,-5.89191 -0.4627,-8.84788 0,-46.09374 37.4989,-83.59269 83.5926,-83.59269 7.139,0 12.9285,-5.78762 12.9285,-12.92848 0,-7.14075 -5.7895,-12.92553 -12.9285,-12.92553 z" />
    </g>
</svg>