<svg version="1" xmlns="http://www.w3.org/2000/svg" width="1066.667" height="1066.667" viewBox="0 0 800.000000 800.000000"><path d="M312.2 1.6C277.7 7 235.3 26.9 196.4 56.2c-5 3.7-9.5 6.8-10.1 6.8-1.6 0-16.6 10.2-21.2 14.5-12.5 11.5-22.2 29.8-24.9 47-1.7 10.2-.7 26 2 35.2l2.5 8.2-5.1 1.2c-23.7 5.6-47.1 21.4-62.3 41.9-18.8 25.4-25.7 60.6-17.8 91.3l1.6 6.1-3.9 4C45 325.1 35 344.5 31 363.3c-1.9 9-2.2 12.2-2.2 23.7 0 19.1 5 37.7 14.5 54l4.4 7.5-2.2 3.5c-20.2 32-22.4 71.4-6 105.6 8.9 18.5 20.8 32.3 38 44.2 5.7 4 7 5.3 6.8 7.3-.4 4-.3 22.3.1 24.4.2 1.1.7 4.2 1 7 1.8 12.7 7.9 29.8 14.9 42 14.1 24.4 37.5 44.4 63.2 54 5.5 2.1 6.4 2.8 11 9.6 6.9 10.3 23.2 26.3 33.6 33.2 22.1 14.4 44.7 20.8 71.9 20.2 20-.4 34.8-4.1 53.4-13.6 14-7.2 30.1-20.3 38.8-31.7 2.4-3.1 4.8-6.3 5.5-7 .6-.6 1.5-2.1 1.8-3.2.3-1.1 1-2 1.4-2 .4 0 3.6-5.5 6.9-12.3 6.3-12.4 9.9-23.8 10.9-33.7.3-3 1.1-6 1.8-6.5 1-.8 6.7-1.1 13.3-.6.9.1 1.2 7 1.2 31.1v31h25.9v-30.5c0-16.8.2-30.9.5-31.3.3-.5 26.7-.8 32.1-.3.6.1 1 11.1.9 31.1l-.2 31h12.9c11.6 0 12.9-.2 13-1.8 0-.9.1-14.9.1-31 0-21.1.3-29.2 1.2-29.3 6.2-.5 29.5-.3 30.7.3 1.4.6 1.6 4.2 1.6 31v30.3l13 .3 13 .3-.1-30.3c-.1-20.2.3-30.5 1-31.2.8-.9 25.5-1.4 31.7-.7.4.1.7 14 .7 31.1v31h26v-31.5c0-24.7.3-31.5 1.3-31.3.6.1 3.7-.1 6.7-.5 45.3-6.2 80.9-45.9 81.9-91.3l.1-5.2h28.8c15.8-.1 29.8-.1 31.2-.1l2.6-.1-.1-12.8-.1-12.7-30.9-.1h-31l-.3-16.7-.2-16.7h5.2c2.9 0 17-.2 31.3-.3l26-.2v-25l-31.2-.3-31.3-.2v-33.6l30.6.1c19.3 0 30.8-.4 31.3-1 .6-.8.8-22.2.2-24.5 0-.3-13.5-.5-29.8-.5-16.4.1-30.4-.1-31-.3-1-.3-1.3-4.6-1.3-16.8V413h31c17.1 0 31.1-.3 31.1-.8.4-2.1.5-22.9.1-24-.3-.9-7.5-1.2-31.3-1.2H709l.2-16.7.3-16.8 30.5-.1c16.8-.1 30.7-.2 31-.3.8-.2.6-23.4-.2-24.6-.4-.6-11.9-1-31.2-1l-30.6.1V294h62.5l-.1-12.3c-.1-6.7-.2-12.5-.3-13 0-.4-6.1-.7-13.3-.7-7.3.1-21.3.1-31 .1L709 268v-33l3.3-.1c1.7-.1 15.7-.1 31-.1 15.2 0 27.8-.3 27.8-.7.6-2.9.2-24.4-.4-24.8-.5-.3-14.5-.5-31.3-.5H709l-.1-5.1c-.3-28.4-15.3-56.6-39.4-74.1-12.3-9-32.1-16.7-46-17.9l-4-.3-.3-31.2L619 49h-26v31c0 24.1-.3 31-1.2 31.1-9.8.6-31.8.2-32.1-.6-.1-.6-.2-14.6-.2-31.3l.1-30.2h-12.8c-9.5 0-12.8.3-12.9 1.2 0 .7-.1 14.7-.1 31-.1 20.9-.4 29.8-1.2 30-.6.2-8.1.3-16.6.3h-15.5l-.2-28c0-15.4-.2-29.5-.2-31.3L500 49H474.3l-.1 29.2c0 16.1-.1 30.2-.1 31.3-.1 1.9-.8 2-16.6 2H441l-.1-9V71.2L441 49h-26v31c0 24.1-.3 31-1.2 31.1-5.1.4-12.1.3-12.8-.1-.4-.3-1-13.1-1.3-28.5-.3-20.8-.8-29.3-1.9-33-5.3-17.4-17.4-32.2-33.8-41.3-13.3-7.3-31.7-9.7-51.8-6.6zm30.3 25.9c14 3.7 24.6 13.8 29.4 27.8 2 5.7 2.1 8.4 2.1 93.3v87.5l-2.1-2c-3.2-3-15.7-8.9-22.4-10.6-9.9-2.5-18.4-2.9-22.8-1.1-5.3 2.3-7.9 6.8-7.4 12.9.7 7.6 5 11.1 15.2 12 8.9.9 11.4 1.5 18.2 4.9 10.4 5.1 18.1 15.3 20.3 26.9.6 3.3 1 63 1 163v157.8l-10.2-10.2c-10.9-10.8-20.6-17.9-32.8-23.9-9.3-4.5-21.8-8.8-26-8.8-6.6 0-11.9 5-12.6 11.8-.6 6.5 4 12 11.6 14.1 17.7 5 38.4 19 48.7 32.9 1.5 2 3 3.9 3.3 4.2 1.1 1 6.7 10.6 8.9 15.5 6.7 14.3 9.1 26.4 8.7 43-.2 7.1-.6 13.9-.9 15-.3 1.1-1 4.2-1.7 7-7.6 33.5-37.3 62.5-72.6 71.2-7.4 1.8-31.5 2.4-38.9 1-14.2-2.7-31-10.1-41.5-18.2-10.7-8.3-16.8-15-24.8-27.4-6.5-10.1-7-10.5-14.2-12.6-3-.9-8.9-3.3-13-5.2-30.9-14.7-51.5-43.4-55.6-77.3-.5-4.8-.5-17.7.1-22 1.4-10.4 1.5-12.9.6-15.3-1.5-4-3.9-6.1-10.1-9.2-36.4-18.2-54.5-59.9-42.9-99 1.7-5.5 6-15.7 7.4-17.3.1-.2 4 2.4 8.6 5.7 12.6 9 30.5 17 41.9 18.7 1.9.3 4.2.7 5 .9.8.3 5.4.7 10.2 1 10.4.7 14.8-.7 17.8-5.7 3.9-6.5 1.3-15.5-5.3-18.2-1.7-.8-6.8-1.6-11.2-2-44.2-3.3-77.8-39.4-77.9-83.6 0-23.3 9.2-44.2 27.1-61.5 6.7-6.4 6.8-6.5 6.8-11.7 0-3-1.3-9.3-2.9-14.3-4.6-14.9-4.4-33.1.6-48.5 14.1-43.4 60.2-67.6 103.9-54.5 33.5 10 57 39.9 59.3 75.3.3 5.3 1.1 9.3 2.3 11.3 2.2 3.9 8.4 6.9 12.7 6.2 4.1-.6 9.2-4.5 10.3-8 1.8-5.5.5-19.3-3.1-32.8-3-11.3-4.1-14-9.6-24.4-16.4-30.5-48.5-52.3-83.5-56.5-6.2-.8-7.5-2.3-10.6-11.8-3-9.3-3.3-24.1-.5-33.3 6.7-22.8 27.9-39.2 51.6-39.9 21.4-.7 39.8 9.4 50.9 28.1 4.5 7.6 7.5 9.8 13.8 10.2 3.5.2 4.7-.3 7.8-3.1 4.2-3.8 5.7-8.8 4.1-13.3-6.6-18.3-30.2-39-50.6-44.5l-4.4-1.2 2.4-1.9c1.4-1.1 9.7-5.5 18.5-9.9 32.4-16.1 63.2-23.2 81-18.5zm284.4 111.1c10.6 2.2 17.2 4.9 25.6 10.5 10 6.7 17.6 15.4 23.1 26.4 8 16.2 7.5-1.1 7.2 227.8-.3 204-.3 204.2-2.4 210.2-8.4 24.1-25 40.1-48.9 47.1-5.5 1.6-14.5 1.8-118.7 2l-112.8.3V554h138.5l19.5-19.5 19.5-19.5 5.5 1.5c19.4 5.3 38-2.9 46.4-20.5 2.8-5.9 3.1-7.4 3.1-16.5 0-9.3-.2-10.5-3.2-16.5-4.1-8.3-10-14.2-18.2-18.3-6.1-3-7.3-3.2-16.6-3.2-8.8 0-10.7.3-15.7 2.7-17.9 8.4-26.8 27.6-21.4 46.2 1 3.2 1.6 6 1.4 6.2-.2.2-7.2 7.4-15.7 15.9L527.6 528h-56.1v-30.5l.1-30.6 15.8-15.8 15.9-15.9 4.1 1.5c13.2 4.7 30.2.7 40.1-9.4 3.8-3.9 8.4-11.2 9-14.3.2-1.1.7-2.4 1-3 .3-.5.8-3.7 1-7.2 1.6-23.6-17.6-42.9-41-41.3-22 1.5-38.1 20.4-36 42.3.3 3.7 1.3 8 2.1 9.7l1.5 2.9-19.9 20.1-19.8 20 .2 35.7.1 35.6-22.8.1-22.9.1V272H527.7l15.4 15.5c8.5 8.6 15.6 15.7 15.8 16 .1.2-.4 2.6-1.3 5.3-3.4 10.1-1.6 23 4.3 32.4 4.1 6.5 8.4 10.2 16.1 14.1 6 3 7.2 3.2 16.5 3.2 8.7 0 10.7-.4 15.7-2.7 17.8-8.3 26.7-27.7 21.3-46.4-6-20.7-27.1-32-48.4-25.8l-5.4 1.6-19.6-19.6-19.6-19.6H400V137.2l109.8-.1c93.7 0 110.8.3 117.1 1.5zm-26.1 170.8c3.7 1.9 7 7.8 6.6 11.9-1.2 12.1-17.2 16.2-23.5 6.1-4.1-6.7-2.2-14.3 4.4-18 4.4-2.4 7.8-2.4 12.5 0zm-74.9 79.4c3.7 2 7.1 7.2 7.1 10.9 0 8.9-8.8 15.2-17.5 12.3-4.2-1.4-8.5-7.1-8.5-11.5 0-4.5 3.1-9.6 7-11.7 4.4-2.3 7.6-2.3 11.9 0zm76 80.3c3.8 2.2 6 8.3 5 13.2-2.4 11.1-17.1 13.7-23.3 4.2-2.7-4.1-2.7-8.8 0-13.4 1.4-2.2 2.6-4.1 2.7-4.1.1 0 2-.6 4.1-1.4 4.1-1.4 7.3-1 11.5 1.5z"/><path d="M157.2 266.4l-3.7 3.4v8.9c0 11.1.8 16.8 4 27.6 11.1 38.4 43.9 68.8 82.3 76.4l8.3 1.6-.7 3.1c-1 4.6-4 11.2-7.4 16.1-10.3 15-25.1 23.3-44.3 25-9 .7-13 3.6-14.6 10.4-1.9 8.6 5.4 16.3 14.7 15.5 6.4-.5 14.6-1.5 15.2-1.9.4-.2 2-.6 3.7-.9 5.2-1 17.3-6.4 24.1-11 11.3-7.5 22-19.4 27.8-30.8 3-5.9 7.4-19.3 7.4-22.4 0-1.3.2-2.4.4-2.4 3.1 0 21.4-4.7 27.3-6.9 14.7-5.7 33.5-18.2 39.8-26.6 5.9-7.7 2.6-18-6.5-20.5-6-1.6-9.3.1-19.4 9.5-6.3 6-20.7 13.1-32.5 16.2-29.3 7.5-59.6-1.3-80.6-23.2-14.2-14.8-22.7-34.3-23.4-53.4-.4-11.6-4.7-17.1-13.5-17.1-3.9 0-5.2.6-8.4 3.4zM276.9 484.4c-.2.2-2.4.7-4.9 1-7.6 1-18.5 4.4-27.5 8.5-36.9 17.1-62.1 54.5-63.8 94.6l-.2 6H172c-10 0-14.2 1.5-17 6-2.4 3.9-2.6 8.3-.3 12.9 2.1 4.5 6.4 6.6 14.5 7.1 10.4.7 14.8 1.4 22.7 4.1 18.5 6.2 33.5 17.8 44.2 34.2 4.8 7.4 10.3 20.1 11.4 26.3.3 1.9.8 4.1 1 4.9.3.8.7 5 1 9.3.5 9.2 1.8 12.3 6.4 15.4 6.4 4.4 14.6 2.1 18-5.1 2.2-4.5 2.2-10.9 0-24.1-5.7-34.1-28.8-64.6-60.4-80.1-3.3-1.6-6.2-3-6.5-3.2-.2-.1-.3-4.9-.3-10.5.6-41.4 32.4-76.4 73.8-81.3 2.8-.3 6.8-.7 9-.8 5.5-.3 9.2-2.3 11.6-6.3 3.1-4.9 2.2-11.5-2-15.7-3-3-3.5-3.1-12.5-3.3-5.2-.1-9.5 0-9.7.1z"/></svg>