<?xml version="1.0" encoding="UTF-8" standalone="no"?>
<svg
   xmlns:dc="http://purl.org/dc/elements/1.1/"
   xmlns:cc="http://creativecommons.org/ns#"
   xmlns:rdf="http://www.w3.org/1999/02/22-rdf-syntax-ns#"
   xmlns:svg="http://www.w3.org/2000/svg"
   xmlns="http://www.w3.org/2000/svg"
   id="svg8"
   version="1.1"
   viewBox="0 0 1896 445"
   height="445"
   width="1896">
  <defs
     id="defs2" />
  <metadata
     id="metadata5">
    <rdf:RDF>
      <cc:Work
         rdf:about="">
        <dc:format>image/svg+xml</dc:format>
        <dc:type
           rdf:resource="http://purl.org/dc/dcmitype/StillImage" />
        <dc:title></dc:title>
      </cc:Work>
    </rdf:RDF>
  </metadata>
  <g
     transform="translate(0,-322.66669)"
     id="layer1">
    <path
       style="fill:#0061aa;fill-opacity:1;stroke:none;stroke-width:1"
       id="Selection #1"
       d="m 36.00002,402.44839 c 0,0 0,17 0,17 0,0 36,-16.22 36,-16.22 0,0 72,-34.09 72,-34.09 0,0 23,-11 23,-11 0,0 10.58,-4.55 10.58,-4.55 0,0 12.42,5.1 12.42,5.1 0,0 26,12.45 26,12.45 0,0 68,32.41 68,32.41 0,0 35,15.9 35,15.9 0,0 0,-11 0,-11 -0.15,-8.76 -6.87,-8.81 -14,-12.26 0,0 -44,-20.99 -44,-20.99 0,0 -60,-28.61 -60,-28.61 -4.76,-2.12 -18.94,-10.17 -23,-10.23 -3.28,-0.04 -8.83,3.33 -12,4.78 0,0 -24,11.45 -24,11.45 0,0 -41,19.6 -41,19.6 0,0 -29,13.52 -29,13.52 0,0 -36,16.74 -36,16.74 z m 7,29 c 0,0 25,1 25,1 0,0 55,0 55,0 0,0 190,0 190,0 0,0 -33,-16.3 -33,-16.3 0,0 -61,-29.01 -61,-29.01 0,0 -25,-11.94 -25,-11.94 -3.07,-1.53 -12.06,-6.06 -15,-6.59 -3.93,-0.7 -8.53,2.38 -12,4.08 0,0 -24,11.39 -24,11.39 0,0 -70,33.15 -70,33.15 0,0 -30,14.22 -30,14.22 z M 1074,382.09839 c -17.58,7.45 -6.4,30.52 9,24.61 9.53,-3.65 10.65,-16.78 2.95,-22.83 -3.72,-2.92 -7.6,-2.68 -11.95,-1.78 z m 38,-0.08 c -16.62,6.53 -8.09,30.21 9,24.78 8.68,-2.76 10.34,-14.95 4.72,-21.24 -3.98,-4.46 -8.27,-4.52 -13.72,-3.54 z m 390,34.64 c -10.99,2.02 -21.71,5.92 -31,12.15 -8.48,5.68 -14.14,11.26 -19.96,19.64 -19,27.35 -14.96,65.25 8.05,88.96 12.73,13.12 34.67,21.82 52.91,22.04 32.21,0.37 62.59,-15.91 74.54,-47 17.43,-45.35 -15.3,-95.92 -64.54,-95.79 0,0 -20,0 -20,0 z m 166,0.01 c -11.69,2.12 -22.16,5.92 -32,12.67 -8.09,5.55 -14.52,11.89 -19.92,20.11 -16.68,25.39 -14.58,60.87 5.22,84 13.59,15.88 35.81,25.75 56.7,26 32.15,0.37 62.37,-16.08 74.34,-47 12.73,-32.88 -0.18,-68.43 -30.34,-86.4 -9.25,-5.51 -21.17,-9.47 -32,-9.38 0,0 -22,0 -22,0 z m -1263.99998,0.78 c 0,0 -7,26 -7,26 0,0 17,-7.48 17,-7.48 0,0 26,-0.52 26,-0.52 0,0 0,68 0,68 0,0 0,17 0,17 0.04,8.27 1.83,16.94 -1.13,25 -2.1,5.71 -5.18,6.59 -7.87,11 0,0 42,0 42,0 -2.99,-5.49 -7.34,-7.24 -9.37,-14 -2.41,-8.01 -1.63,-27.78 -1.63,-37 0,0 0,-70 0,-70 6.58,0 23.82,-0.93 29,1.57 3.32,1.6 4.81,3.62 7,6.43 3.46,-4.3 7.09,-20.11 8,-26 0,0 -14,2 -14,2 0,0 -36,0 -36,0 0,0 -38,0 -38,0 0,0 -14,-2 -14,-2 z m 337,0 c 0,0 -8,26 -8,26 0,0 16,-7.1 16,-7.1 0,0 28,-0.9 28,-0.9 0,0 0,72 0,72 0,9.41 0.8,29.85 -1.8,38 -1.42,4.47 -5.04,7.01 -7.2,11 0,0 41,0 41,0 -2.34,-4.55 -4.63,-5.19 -7,-9.01 -2.87,-4.64 -2.99,-9.75 -3,-14.99 0,0 0,-97 0,-97 0,0 27,1.01 27,1.01 0,0 10,6.99 10,6.99 0,0 5,-22 5,-22 3.27,1.56 5.03,2.75 6.91,6 4.03,6.97 3.09,26.48 3.09,35 0,0 0,38 0,38 0,20.69 -1.88,37.69 18,50.9 3.71,2.46 7.75,4.1 12,5.38 5.2,1.56 10.57,2.65 16,2.72 16.87,0.19 29.83,-4.1 42,-16 0,0 0,13 0,13 0,0 31,0 31,0 -4.09,-7.52 -8.82,-6.4 -9,-21 0,0 0,-78 0,-78 0,-8.2 -1.15,-24.24 3.01,-30.99 1.68,-2.73 3.53,-4.1 5.99,-6.01 0,0 -14,-1 -14,-1 0,0 -26,0 -26,0 7.17,9.01 8.85,10.83 9,23 0,0 0,69 0,69 -0.06,4.67 -0.81,10.87 -3.07,15 -9.12,16.69 -35.97,22.92 -50.93,10.66 -10.22,-8.38 -12.85,-24.05 -13,-36.66 0,0 0,-55 0,-55 0.13,-10.71 1.14,-18.21 10,-25 0,0 -32,-1 -32,-1 0,0 -8,-2 -8,-2 -12.66,3.35 -33.31,2 -47,2 -14.72,0 -40.73,1.35 -54,-2 z m -209,2 c 0,0 5.8,7.04 5.8,7.04 0,0 -1.85,10.96 -1.85,10.96 0,0 -8.27,21 -8.27,21 0,0 -21.82,54 -21.82,54 0,0 -10.84,27 -10.84,27 0,0 -14.02,17 -14.02,17 0,0 39,0 39,0 -2.21,-3.56 -6.64,-5.54 -7.28,-10 -0.69,-4.8 7.16,-23.38 9.23,-29 1.03,-2.83 2.55,-8.46 4.7,-10.4 2.14,-1.94 5.63,-1.59 8.35,-1.6 0,0 34,0 34,0 2.25,0 5.68,-0.22 7.61,1.02 2.39,1.54 3.48,5.42 4.44,7.98 0,0 7.27,19 7.27,19 1.44,3.89 5.5,12.06 3.62,15.9 -1.22,2.49 -3.69,3.18 -5.94,7.1 0,0 43,0 43,0 0,0 -14.68,-18 -14.68,-18 0,0 -13.52,-33 -13.52,-33 0,0 -21.99,-54 -21.99,-54 0,0 -8.81,-22 -8.81,-22 0,0 -4.65,-9.01 -4.65,-9.01 0,0 -7.35,-0.99 -7.35,-0.99 0,0 -26,0 -26,0 z m 99,0 c 2.38,2.99 5.04,5.44 6.64,9 3.45,7.71 2.36,25.02 2.36,34 0,0 0,55 0,55 0,7.45 0.73,21.45 -1.61,28 -1.58,4.42 -5.22,6.99 -7.39,11 0,0 40,0 40,0 -2.04,-3.62 -3.83,-4.09 -5.78,-7.1 -3.02,-4.67 -3.21,-9.57 -3.22,-14.9 0,0 0,-99.76 0,-99.76 7.7,-0.86 17.64,-2.68 25,0 15.67,6.46 21.08,24.77 9.79,37.75 -8.64,9.93 -19.89,11.85 -31.79,15.01 3.31,6.76 16.82,24.05 22.12,31 6,7.89 15.04,21.56 21.89,27.83 14.96,13.68 30.74,15.17 49.99,15.17 -5.47,-4.33 -9.03,-4.06 -16,-10.18 -11.7,-10.28 -16.09,-17.17 -25.21,-28.82 0,0 -23.79,-32 -23.79,-32 5.08,-0.96 7.7,-2.65 12,-5.44 20.73,-13.44 27.39,-42.13 5,-57.66 -12.17,-8.44 -23.97,-7.9 -38,-7.9 0,0 -42,0 -42,0 z m 398.99998,0 c 2.95,3.42 5.74,5.66 7.52,10 2.35,5.76 1.48,20.19 1.48,27 0,0 0,56 0,56 0.13,10.88 2.38,22.35 9.38,31 13.05,16.12 37.87,18.35 56.62,13.52 8.07,-2.07 18.28,-6.73 22,-14.52 0,0 1,14 1,14 0,0 31,0 31,0 -2.69,-4.42 -5.77,-5.28 -7.87,-11 -2.72,-7.4 -2.13,-26.44 -2.13,-35 0,0 0,-65 0,-65 0.13,-10.78 1,-18.1 10,-25 0,0 -14,-1 -14,-1 0,0 -27,0 -27,0 2.55,2.94 5.72,5.44 7.43,9 3.12,6.52 2.57,25.2 2.57,33 0,0 0,48 0,48 -0.11,9.27 -1.37,16.11 -8.04,22.98 -12.14,12.5 -35.68,15.93 -48.78,2.84 -7.15,-7.15 -10.06,-19.97 -10.18,-29.82 0,0 0,-64 0,-64 0.14,-12.03 2.03,-13.27 9,-22 0,0 -40,0 -40,0 z m 143,0 c 2.43,3.58 4.83,4.55 6.73,9 3.37,7.92 2.27,30.41 2.27,40 0,0 0,50 0,50 0,6.48 0.5,20.54 -1.28,26.17 -1.63,5.16 -5.29,7.34 -7.72,11.83 0,0 79,0 79,0 0,0 10,-29 10,-29 -11.14,6.97 -18.24,12.03 -32,12.91 0,0 -26,-1.91 -26,-1.91 0,0 0,-83 0,-83 0,-13.41 -2.74,-25.89 9,-35 0,0 -14,-1 -14,-1 0,0 -26,0 -26,0 z m 93,0 c 2.55,2.94 5.72,5.44 7.43,9 2.47,5.16 1.43,12.41 1.69,18.04 0,0 0.88,9.96 0.88,9.96 0,0 0,57 0,57 0,7.64 0.31,25.37 -2.13,32 -2,5.41 -5.31,6.6 -7.87,11 0,0 40,0 40,0 -2.37,-4.7 -5.61,-6.54 -7.21,-12 -2.14,-7.25 -1.79,-17.41 -1.79,-25 0,0 0,-38 0,-38 0,-11.08 -1.02,-42.14 1.8,-51 1.43,-4.49 5,-7.04 7.2,-11 0,0 -40,0 -40,0 z m 62,0 c 2.55,4.32 5.58,5.52 7.37,11 1.88,5.77 1.63,12.98 1.63,19 0,0 0,29 0,29 0,0 0,41 0,41 0,7.51 0.62,18 -1.52,25 -1.66,5.44 -5,7.35 -7.48,12 0,0 40,0 40,0 -2.04,-3.62 -3.83,-4.09 -5.78,-7.1 -3.02,-4.67 -3.21,-9.57 -3.22,-14.9 0,0 0,-77 0,-77 0,-8.39 -1.29,-24.09 3,-30.99 1.72,-2.76 3.5,-4.07 6,-6.01 0,0 -14,-1 -14,-1 0,0 -26,0 -26,0 z m 68,0 c 1.83,3.03 5.22,5.13 5.33,9 0.13,4.56 -4.36,10.43 -6.91,14 0,0 -22.34,28 -22.34,28 -2.26,2.72 -9.83,10.97 -10.2,14 -0.32,2.68 2.35,5.91 3.83,8 0,0 13.29,18 13.29,18 0,0 14.13,19 14.13,19 9.93,13.25 15.62,21.77 31.87,27.94 13.35,5.06 22.18,2.67 32,5.06 0,0 -10,-6.81 -10,-6.81 0,0 -12.96,-10.23 -12.96,-10.23 0,0 -32.69,-41.96 -32.69,-41.96 0,0 -11.36,-15 -11.36,-15 0,0 -3.69,-7 -3.69,-7 0,0 12.9,-18 12.9,-18 0,0 34.8,-44 34.8,-44 0,0 -38,0 -38,0 z m 374,0 c 2.24,2.58 5.25,5.06 6.86,8 2.27,4.14 3.13,16.99 3.14,22 0,0 0,63 0,63 0,8.38 0.41,26.68 -2.4,34 -1.97,5.13 -5.05,5.89 -7.6,10 0,0 80,0 80,0 0,0 10,-29 10,-29 -6.7,3.76 -11.42,7.77 -19,10.25 -14.87,4.87 -25.32,1.07 -40,0.75 0,0 0,-94 0,-94 0.13,-10.58 1.25,-17.23 10,-24 0,0 -14,-1 -14,-1 0,0 -27,0 -27,0 z m -261,12.43 c 13.99,-1.35 28.36,2.18 38.99,11.75 22.43,20.22 25.91,63.36 4.71,85.65 -4.18,4.4 -9.22,7.39 -14.7,9.86 -8.67,3.91 -14.69,4.42 -24,4.31 -27.49,-0.33 -49.68,-26.14 -50,-53 -0.15,-12.67 -0.06,-22.47 6.35,-34 8.45,-15.2 21.9,-22.28 38.65,-24.57 z m 166,0 c 15.02,-1.45 29.96,2.95 40.83,13.74 22.98,22.81 23.52,72.15 -5.83,90.36 -10.5,6.52 -19,7.61 -31,7.47 -42.17,-0.5 -64.57,-58.22 -39.07,-93 8.34,-11.39 21.5,-16.72 35.07,-18.57 z m -1122.99998,6.57 c 0,0 19,50 19,50 0,0 -39,0 -39,0 0,0 12.19,-31 12.19,-31 0,0 7.81,-19 7.81,-19 z m -516,6 c 0,0 0,14 0,14 0,0 283,0 283,0 0,0 0,-14 0,-14 0,0 -283,0 -283,0 z m 4,26 c 0,0 -1,50 -1,50 0,0 -1,17 -1,17 0,0 0,22 0,22 0,0 -1,15 -1,15 0,0 0,38 0,38 0,0 -1,19 -1,19 0,0 27,0 27,0 0,0 0,-7 0,-7 0,0 -1,-17 -1,-17 0,0 0,-37 0,-37 0,0 -1,-17 -1,-17 0,0 0,-36 0,-36 0,0 -1,-16 -1,-16 0,0 0,-21 0,-21 0,-2.26 0.25,-6.62 -1.17,-8.43 -1.98,-2.51 -15.27,-1.57 -18.83,-1.57 z m 50.96,0 c 0,0 0,17 0,17 0,0 -0.96,12 -0.96,12 0,0 0,19 0,19 0,0 -1,19 -1,19 0,0 0,35 0,35 0,0 -1,17 -1,17 0,0 0,42 0,42 0,0 26,0 26,0 0,0 0,-25 0,-25 0,0 -1,-15 -1,-15 0,0 0,-37 0,-37 0,0 -1,-17 -1,-17 0,0 0,-36 0,-36 0,0 -1,-16 -1,-16 0,0 0,-15 0,-15 0,0 -20.04,0 -20.04,0 z m 51.04,0 c 0,0 0,26 0,26 0,0 -1,16 -1,16 0,0 0,21 0,21 0,0 -1,19 -1,19 0,0 -1,79 -1,79 0,0 26,0 26,0 0,0 0,-39 0,-39 0,0 -1,-16 -1,-16 0,0 0,-37 0,-37 0,0 -1,-17 -1,-17 0,0 0,-36 0,-36 0,0 -1,-16 -1,-16 0,0 -20,0 -20,0 z m 51,0 c 0,0 0,42 0,42 0,0 -1,17 -1,17 0,0 0,22 0,22 0,0 -1,15 -1,15 0,0 0,36 0,36 0,0 -1,15 -1,15 0,0 0,14 0,14 0,0 27,0 27,0 0,0 -1,-16 -1,-16 0,0 0,-37 0,-37 0,0 -1,-17 -1,-17 0,0 0,-36 0,-36 0,0 -1,-17 -1,-17 0,0 0,-38 0,-38 0,0 -21,0 -21,0 z m 52,0 c 0,0 -1,20 -1,20 0,0 0,37 0,37 0,0 -1,17 -1,17 0,0 0,21 0,21 0,0 -1,15 -1,15 0,0 0,37 0,37 0,0 -1,14 -1,14 0,0 27,0 27,0 0,0 0,-13 0,-13 0,0 -1,-17 -1,-17 0,0 0,-38 0,-38 0,0 -1,-17 -1,-17 0,0 0,-37 0,-37 0,0 -1,-17 -1,-17 0,0 0,-22 0,-22 0,0 -20,0 -20,0 z m 51,0 c 0,0 0,17 0,17 0,0 -1,17 -1,17 0,0 0,37 0,37 0,0 -1,17 -1,17 0,0 0,22 0,22 0,0 -1,15 -1,15 0,0 0,36 0,36 0,0 26,0 26,0 0,0 0,-31 0,-31 0,0 -1,-15 -1,-15 0,0 0,-37 0,-37 0,0 -1,-17 -1,-17 0,0 0,-36 0,-36 0,0 -0.96,-12 -0.96,-12 0,0 0,-13 0,-13 0,0 -20.04,0 -20.04,0 z m 683,122 c 0,0 4.27,6.04 4.27,6.04 0,0 0.73,24.96 0.73,24.96 -8.25,-4.36 -10.36,-6 -20,-6 -6.39,0 -10.29,0.69 -16,3.8 -10.23,5.58 -15.86,15.72 -16,27.2 -0.08,7.46 0.28,14.54 4.61,20.99 6.51,9.69 17.07,13.96 28.39,14.01 7.31,0.03 7.83,0.64 11.69,-5.02 0,0 5.31,-7.98 5.31,-7.98 -5.8,1.56 -9.73,4.05 -16,2.95 -4.97,-0.88 -9.3,-3.28 -12.67,-7.04 -2.82,-3.14 -5.3,-7.84 -6.4,-11.91 -2.46,-9.07 1.25,-18.9 9.07,-24.15 9.17,-6.15 22.51,-1.99 26.77,8.15 1.16,2.75 1.19,5.09 1.23,8 0,0 0,36 0,36 0,0 18.99998,0 18.99998,0 0,0 -4.97998,-9 -4.97998,-9 0,0 0,-28 0,-28 0,0 0,-55 0,-55 0,0 -19.02,2 -19.02,2 z m -245.91,2.85 c -10.71,6.65 -1.69,18.75 6.89,15.55 6.05,-2.25 7.8,-10.51 2.63,-14.66 -2.83,-2.27 -6.32,-1.79 -9.52,-0.89 z m 520.92998,-0.11 c -9.31,5.26 -4.61,17.48 4.98,16.02 8.21,-1.25 8.57,-11.46 3.77,-15.16 -2.71,-2.1 -5.71,-1.59 -8.75,-0.86 z m 202.02,0 c -9.33,5.44 -4.16,17.41 4.96,16.02 7.65,-1.16 10.25,-10.53 3.87,-15.16 -2.84,-2.06 -5.69,-1.62 -8.83,-0.86 z m -760.03998,4.26 c -0.06,6.67 -0.77,12.64 -5.48,17.82 -6.13,6.75 -9.81,2.74 -10.52,11.18 0,0 9,0 9,0 0,10.82 -1.23,36 2.48,45 3.1,7.51 14.01,12.98 21.43,8.98 3.25,-1.76 6.27,-6.81 8.09,-9.98 -2.96,0.64 -5.95,1.64 -9,0.97 -6.37,-1.4 -8.34,-6.21 -9.38,-11.97 0,0 -0.62,-33 -0.62,-33 10,0 9.53,0.03 19,3 0,0 0,-13 0,-13 0,0 -19,1 -19,1 0,0 0,-20 0,-20 0,0 -6,0 -6,0 z m 73,0 c -0.02,6.73 -0.59,12.6 -5.34,17.9 -6.07,6.76 -9.94,2.49 -10.66,11.1 0,0 9,0 9,0 0,12.1 -1.71,35.7 3.19,45.99 3.23,6.8 13.93,11.64 20.72,7.99 3.37,-1.81 6.34,-6.67 8.09,-9.98 -2.17,0.47 -4.8,1.27 -7,1.21 -6.1,-0.18 -10.3,-5.15 -11.07,-10.94 -1.08,-8.07 1.57,-25.46 -0.93,-34.27 10.97,0 8.69,-0.3 19,3 0,0 0,-13 0,-13 0,0 -19,1 -19,1 0,0 1,-20 1,-20 0,0 -7,0 -7,0 z m 649.99998,0 c -0.43,6.28 -1.14,12.8 -5.53,17.7 -6.06,6.77 -9.77,2.94 -10.47,11.3 0,0 9,0 9,0 0,0 0,31 0,31 0.01,5.2 0.22,10.25 2.68,15 3.51,6.76 14.12,11.91 21.15,7.98 3.38,-1.9 5.82,-6.5 7.17,-9.98 -8.38,2.24 -15.19,0.4 -17.47,-9 0,0 -0.53,-35 -0.53,-35 7.82,0 10.6,-0.19 18,3 0,0 0,-13 0,-13 0,0 -18,1 -18,1 0,0 0,-20 0,-20 0,0 -6,0 -6,0 z m 73,0 c -0.14,6.19 -1.09,13.02 -5.39,17.82 -5.95,6.64 -9.9,2.65 -10.61,11.18 0,0 9,0 9,0 0,0 0,31 0,31 0.02,5.09 0.48,10.38 2.84,15 3.51,6.87 13.87,11.89 21.07,7.98 3.53,-1.92 5.72,-6.39 7.09,-9.98 -8.46,2.56 -15.06,0.3 -17.32,-9 0,0 -0.68,-35 -0.68,-35 10,0 9.53,0.03 19,3 0,0 0,-13 0,-13 0,0 -19,1 -19,1 0,0 0,-20 0,-20 0,0 -6,0 -6,0 z m 186,0 c -0.02,6.7 -0.34,12.69 -5.21,17.9 -6.33,6.76 -10.08,2.55 -10.79,11.1 0,0 10,0 10,0 0,0 0,22 0,22 -0.03,6.49 -1.24,15.97 1.36,22 3.19,7.39 8.72,10.91 16.64,10.98 1.4,0.02 3.38,0.01 4.68,-0.55 3.14,-1.37 6.91,-7.39 8.32,-10.51 -4.06,0.9 -8.04,2.05 -11.96,0 -5.05,-2.83 -5.97,-7.7 -6.04,-12.92 0,0 0,-31 0,-31 10.41,0 8.32,-0.1 18,3 0,0 0,-13 0,-13 0,0 -18,1 -18,1 0,0 0,-20 0,-20 0,0 -7,0 -7,0 z m -1244.99998,33 c 0,0 12,-4.47 12,-4.47 5.38,-1.24 16.21,-1.01 18.16,5.56 1.73,5.85 -5.93,8.49 -10.16,9.48 -10.18,2.39 -26.77,3.57 -28.79,16.43 -2.28,14.5 7.8,23.83 21.79,24 1.97,0.02 5.95,0.16 7.68,-0.57 3.25,-1.38 6.78,-7.34 8.32,-10.28 -5.37,0.57 -10.71,2.39 -16,0 -6.56,-2.62 -10.52,-9.93 -4.61,-15.59 4.5,-4.31 13.93,-4.13 22.61,-8.56 0,5.16 -0.58,22.19 0.89,26 2.14,5.53 12.15,11.32 17.79,7.98 2.32,-1.38 4.87,-5.66 6.32,-7.98 -10.72,-3.68 -11.98,-5.67 -12,-17 -0.01,-7.81 1.31,-24.81 -2.72,-31 -4.6,-7.05 -12.39,-8.9 -20.28,-9 -3.24,-0.03 -8.9,-0.32 -11.68,1.29 -3.45,2 -7.89,9.97 -9.32,13.71 z m 59,-13 c 6.99,10.85 5,14.53 4.76,27 0,0 0,26 0,26 -1.03,3.65 -3.28,6.62 -4.76,10 0,0 23,0 23,0 -1.34,-2.72 -3.44,-5.09 -4.35,-8 -0.91,-2.91 -0.65,-8.76 -0.65,-12 0,-9.27 -2.35,-26.5 7.04,-31.84 4.42,-2.29 9.34,-1.05 13.96,0 0,0 0,-10.16 0,-10.16 2.54,1.59 4.6,2.78 6.61,5.1 2.91,3.36 5.41,9.76 7.25,13.9 0,0 9.83,21 9.83,21 2.21,4.8 4.78,11.69 8.1,15.71 3.22,3.91 7.52,6.56 12.21,8.29 0,0 18.26,-39 18.26,-39 0,0 11.74,-26 11.74,-26 0,0 -20.07,0 -20.07,0 7.69,7.4 3.72,10.49 0,19 0,0 -12.93,28 -12.93,28 0,0 -22,-49 -22,-49 -4.56,1.21 -9.24,2.26 -13.99,1.95 -4.57,-0.31 -17.49,-6.69 -25.01,6.05 0,0 -1,-8 -1,-8 0,0 -18,2 -18,2 z m 119,0 c 3.73,5.68 4.9,6 5,13 0.15,11.26 -1.78,32.8 3.99,42 7.63,12.15 30.78,12.81 38.01,0 0,0 1,8 1,8 0,0 18,0 18,0 -3.69,-7.16 -4.95,-4.74 -5,-14 0,0 0,-51 0,-51 0,0 -18,2 -18,2 1.4,2.18 3.22,4.58 4.11,7 1.46,3.96 0.91,19.84 0.89,25 -0.02,3.7 -0.1,7.56 -1.65,11 -3.91,8.68 -15.36,13.51 -23.14,6.58 -4.37,-3.9 -5.14,-11.04 -5.21,-16.58 0,0 0,-35 0,-35 0,0 -18,2 -18,2 z m 115,0 c 6.98,9.4 5,13.71 5,25 0,5.37 0.49,26.34 -0.65,30 -0.91,2.91 -3.01,5.28 -4.35,8 0,0 23,0 23,0 0,0 -4.28,-9 -4.28,-9 0,0 -0.72,-19 -0.72,-19 0,0 0,-37 0,-37 0,0 -18,2 -18,2 z m 135,47 c -3.9,2.18 -6.68,4.2 -11,5.64 -13.73,4.58 -29.85,0.64 -35.9,-13.64 -1.55,-3.67 -1.91,-6.09 -2.1,-10 0,0 50,0 50,0 -1.42,-10.78 -3.07,-19.55 -13,-26.04 -20.33,-13.28 -51.69,-0.71 -52,25.04 -0.05,4.34 -0.3,8.84 1.1,13 5.19,15.44 20.46,22.93 35.9,23 14.31,0.07 23.89,-0.46 27,-17 z m 15,-34 c 7.23,-2.89 14.99,-6.73 23,-4.43 4.66,1.34 9.78,6.36 5.55,11.04 -2.48,2.76 -7.07,3.64 -10.55,4.39 -9.89,2.13 -24.84,3.61 -26.79,16 -2.21,14.06 6.9,23.63 20.79,23.99 2.63,0.06 6.59,0.23 8.91,-1.01 3.37,-1.81 6.34,-6.67 8.09,-9.79 -5.75,0.59 -10.21,2.26 -16,0 -7.19,-2.37 -10.34,-9.94 -4.47,-15.77 3.74,-3.72 14.73,-4.66 22.47,-8.42 0,6.31 -1.14,23.19 1.85,27.96 3.43,5.46 18.04,13.83 22.15,-2.96 -10.54,-1.13 -10.99,-6.89 -11,-16 -0.01,-8.57 1.43,-25.2 -3.51,-31.98 -4.88,-6.72 -12.76,-7.98 -20.49,-8.02 -3.05,-0.01 -8.18,-0.35 -10.79,1.17 -3.36,1.96 -7.99,10.14 -9.21,13.83 z m 131.99998,-13 c 4.15,4.78 4.91,5.56 5,12 0.21,15.76 -3.73,44.38 15,50.89 3.61,1.26 7.24,1.15 11,1.11 9.25,-0.11 11.83,-2.49 18,-9 0,0 0,8 0,8 0,0 18,0 18,0 -3.79,-7.18 -4.95,-4.58 -5,-14 0,0 0,-51 0,-51 0,0 -18,2 -18,2 1.78,2.94 3.65,5.6 4.47,9 1.52,6.32 0.88,28.03 -1.6,34 -3.68,8.85 -14.87,13.52 -22.66,6.58 -4.18,-3.72 -5.14,-9.28 -5.21,-14.58 0,0 0,-37 0,-37 0,0 -19,2 -19,2 z m 71,47 c 0.76,3.32 2.91,11.86 5.48,13.91 2.97,2.38 9.78,3.04 13.52,3.09 11.77,0.13 26.13,-1 32.16,-13 1.93,-3.83 2.41,-8.86 1.2,-13 -2.68,-9.24 -14.05,-13.03 -22.36,-15.59 -3.42,-1.05 -9.22,-2.78 -11.38,-5.75 -4.52,-6.19 5.13,-8.54 9.38,-8.65 8.85,-0.21 10.03,1.23 18,3.99 0,-2.59 0.44,-9.49 -1.02,-11.42 -1.84,-2.41 -8.15,-2.54 -10.98,-2.58 -10.97,-0.12 -25.54,0.59 -29.75,13 -5.62,16.54 12.63,21.14 23.75,25.43 4.28,1.65 12.92,5.53 11.16,11.48 -2.48,8.36 -18.87,6.64 -25.16,4.93 -4.91,-1.33 -9.35,-3.84 -14,-5.84 z m 123,0 c -3.95,2.29 -8.6,4.95 -13,6.21 -12.51,3.6 -27.86,-0.6 -33.47,-13.21 -1.55,-3.48 -2.21,-7.24 -2.53,-11 0,0 49,0 49,0 0,-5.57 0.1,-9.79 -2.4,-15 -8.56,-17.8 -34.55,-20.84 -49.51,-9.78 -7.98,5.9 -11.99,15.08 -12.77,24.78 -1.66,20.85 17.55,34.77 36.68,35 14.41,0.16 24.81,-0.22 28,-17 z m 45,-47 c 0,0 4.43,8 4.43,8 0,0 0.57,29 0.57,29 0,0 -0.57,17 -0.57,17 0,0 -5.43,9 -5.43,9 0,0 24,0 24,0 -3.17,-6.6 -4.89,-5.66 -5,-14 0,0 0,-51 0,-51 0,0 -18,2 -18,2 z m 30,0 c 7.03,9.28 5,12.71 5,24 0,0 0,26 0,26 -0.11,7.85 -1.77,6.89 -5,13 0,0 23,0 23,0 -3.28,-7.87 -4.95,-6.51 -5,-16 0,0 0,-19 0,-19 0.05,-11.07 2.8,-20.69 16,-19.96 14.32,0.79 14,15.35 14,25.96 0,0 0,15 0,15 -0.11,8.34 -1.83,7.4 -5,14 0,0 24,0 24,0 -1.92,-3.64 -4.43,-5.66 -5.01,-10 -2.12,-15.81 6.25,-45.29 -12.99,-52.88 -2.23,-0.88 -5.61,-1.69 -8,-1.95 -3.15,-0.34 -7.98,-0.28 -11,0.63 -4.99,1.5 -8.33,4.71 -12,8.2 0,0 0,-9 0,-9 0,0 -18,2 -18,2 z m 70,47 c 1.19,3.56 3.47,11.97 6.3,14.15 2.9,2.23 10.06,2.8 13.7,2.85 13.22,0.15 28.95,-1.95 33.37,-17 0.53,-2.45 0.63,-4.5 0,-7 -1.98,-10.97 -13.16,-14.25 -22.37,-17.33 -3.67,-1.23 -9.13,-2.82 -11.64,-5.88 -3.51,-4.28 0.51,-7.44 4.64,-8.4 7.6,-1.77 15.05,0.85 22,3.61 0,0 0,-13 0,-13 -10.62,-0.86 -23.16,-2.98 -33,2.41 -9.2,5.05 -12.37,17.63 -4.78,25.38 4.69,4.79 14.53,7.62 20.78,9.9 3.7,1.35 8.83,3.38 10.36,7.35 2.16,5.63 -3.92,8.66 -8.36,9.72 -11.89,2.82 -20.61,-2.96 -31,-6.76 z m 102,-47 c 0,0 4.43,8 4.43,8 0,0 0.57,29 0.57,29 0,0 -0.57,17 -0.57,17 0,0 -4.43,9 -4.43,9 0,0 23,0 23,0 -3.17,-6.6 -4.89,-5.66 -5,-14 0,0 0,-51 0,-51 0,0 -18,2 -18,2 z m 73,0 c 3.73,5.68 4.9,6 5,13 0.15,11.49 -1.97,32.5 3.99,42 7.64,12.15 30.78,12.82 38.01,0 0,0 1,8 1,8 0,0 18,0 18,0 -3.54,-6.81 -4.89,-5.17 -5,-14 0,0 0,-51 0,-51 0,0 -18,2 -18,2 1.4,2.18 3.22,4.58 4.11,7 1.42,3.87 0.91,18.99 0.89,24 -0.02,4.05 -0.24,8.21 -1.85,12 -3.74,8.78 -15.2,13.48 -22.94,6.58 -4.31,-3.83 -5.14,-10.14 -5.21,-15.58 0,0 0,-36 0,-36 0,0 -18,2 -18,2 z m 71,0 c 3.73,5.68 4.9,6 5,13 0.17,12.33 -2.19,34.04 5.64,43.83 7.99,10 30.39,10.49 36.36,-1.83 0,0 1,8 1,8 0,0 19,0 19,0 -1.49,-2.18 -3.51,-4.64 -4.57,-7 -2.13,-4.74 -1.43,-17.31 -1.43,-23 0,0 0,-35 0,-35 0,0 -18,2 -18,2 4.46,6.01 4.96,6.36 5,14 0.06,12.58 3.81,37.02 -14,38.8 -8.61,0.86 -13.23,-5.16 -15.1,-12.8 -1.64,-6.68 -0.9,-33.33 -0.9,-42 0,0 -18,2 -18,2 z m -746.99998,21 c 0,0 -33,0 -33,0 1.87,-9.81 7.56,-13 17,-13 9.29,0 14.95,3.15 16,13 z m 340.99998,0 c 0,0 -33,0 -33,0 2.93,-17.59 30.96,-18.11 33,0 z m -1150.99998,3 c 0,0 0,39 0,39 0,0 78,0 78,0 0,0 0,-39 0,-39 0,0 -78,0 -78,0 z m 103,0 c 0,0 0,39 0,39 0,0 26,0 26,0 0,0 0,-39 0,-39 0,0 -26,0 -26,0 z m 51,0 c 0,0 0,39 0,39 0,0 27,0 27,0 0,0 0,-39 0,-39 0,0 -27,0 -27,0 z m 51,0 c 0,0 0,39 0,39 0,0 78,0 78,0 0,0 0,-39 0,-39 0,0 -78,0 -78,0 z m -135,56 c -8.39,8.31 -10,9.19 -21,13 0,0 8,3 8,3 0,0 -0.94,30 -0.94,30 0,0 -4.06,8 -4.06,8 0,0 23,0 23,0 0,0 -3.43,-7.01 -3.43,-7.01 0,0 -0.57,-30.99 -0.57,-30.99 0,0 -1,-16 -1,-16 z m 36,27 c 2.95,0.1 5.34,0.01 7.57,2.31 3.4,3.51 3.49,13.48 -1.67,15.52 -6.62,2.62 -8.09,-9.81 -7.81,-13.83 0.5,-7.37 3.06,-12.96 8.91,-17.61 7.34,-5.83 10.95,-2.75 14,-13.39 -6.94,0.92 -14.93,1.88 -21,5.47 -5.07,3 -9.24,6.56 -12.45,11.53 -3.46,5.36 -4.79,10.66 -4.51,17 0.27,6.21 2.97,12.61 7.98,16.44 8.58,6.58 24.9,5.3 30.75,-4.46 2.27,-3.78 2.33,-7.71 2.21,-11.98 -0.36,-13.12 -12.92,-17.36 -18.68,-13.98 -2.57,1.51 -3.99,4.45 -5.3,6.98 z m 42,-25 c 0,0 -3,10 -3,10 4.23,-0.99 9.8,-3.89 13.95,-2.26 4.94,1.95 5.1,6.72 0.92,9.68 -2.63,1.85 -5.82,1.57 -8.87,1.58 0,0 0,8 0,8 4.45,0.01 9.35,-0.26 12.69,3.28 4.5,4.77 1.4,12.61 -6.69,13.52 -4.55,0.51 -8.72,-1.65 -13,-2.8 0.52,2.58 1.37,8.23 3.53,9.83 1.78,1.3 10.11,1.82 12.47,1.66 3.82,-0.26 9.64,-1.16 13,-2.93 8.06,-4.25 11.98,-14.78 6.35,-22.52 -2.06,-2.83 -4.46,-4.23 -7.35,-6.04 9.72,-5.39 8.89,-16.02 -1.01,-20.47 -8.69,-3.9 -14.33,-1.23 -22.99,-0.53 z m 49,13 c 3.87,-2.33 12.15,-7.84 16.24,-2.77 1.2,1.77 0.86,3.89 0,5.86 0,0 -19.24,35.91 -19.24,35.91 0,0 29,0 29,0 0,0 7.3,-0.99 7.3,-0.99 0,0 4.7,-11.01 4.7,-11.01 -11.53,2.08 -4,3 -20,3 5.29,-7.24 18.53,-25.98 15.11,-35 -4.85,-12.79 -25.41,-10.24 -29.39,-6.28 -2.08,2.09 -3.27,8.35 -3.72,11.28 z" />
  </g>
</svg>
