<?xml version="1.0" encoding="UTF-8"?>
<svg  xmlns="http://www.w3.org/2000/svg" id="logo-color-regular" width="115" height="36" viewBox="0 0 120 40">
    <g fill="none" fill-rule="evenodd" stroke="none" stroke-width="1" transform="translate(0 1)">
        <path fill="#004E5F"
              d="M3.853 16.714l8.176 14.161 3.408-5.903a2.354 2.354 0 012.04-1.178h6.816l-7.496 12.984a2.355 2.355 0 01-2.04 1.178H9.301a2.356 2.356 0 01-2.04-1.178L.445 24.972a2.355 2.355 0 010-2.355l3.408-5.903z"></path>
        <path fill="#00B4AA"
              d="M28.371 7.273H12.02l3.408 5.903c.42.729.42 1.627 0 2.355l-3.408 5.903L4.523 8.451a2.356 2.356 0 010-2.356L7.251 1.37A2.355 2.355 0 019.291.193h13.633c.841 0 1.618.448 2.04 1.177l3.407 5.903z"></path>
        <path fill="#00B4AA"
              d="M24.294 33.235l8.176-14.161h-6.816a2.355 2.355 0 01-2.04-1.178l-3.408-5.903h14.992c.842 0 1.62.45 2.04 1.178l2.728 4.725a2.354 2.354 0 010 2.356L33.15 32.058a2.355 2.355 0 01-2.04 1.177h-6.816z"></path>
        <path fill="#004E5F"
              d="M58.135 29.358h-3.392l-5.2-14.148h2.927c.696 0 1.31.45 1.521 1.113l4.144 13.035z"></path>
        <path fill="#004E5F"
              d="M55.3303333 29.3580952L58.7222381 29.3580952 63.9217619 15.2104762 59.8274762 15.2104762z"></path>
        <path fill="#004E5F"
              d="M68.594 20.527h6.616c-.177-1.654-1.447-3.013-3.309-3.013-1.948 0-3.16 1.448-3.307 3.013m10.544 1.654c0 .325 0 .68-.06 1.063H68.566c0 1.95 1.654 3.633 3.662 3.633 1.299 0 2.215-.56 2.835-1.476h3.87c-.916 2.392-3.014 4.46-6.735 4.46-4.223 0-7.531-3.072-7.531-7.68 0-4.046 2.658-7.443 7.265-7.443 4.667 0 7.207 3.486 7.207 7.443M85.863 17.396c.769-1.388 2.333-2.599 4.223-2.599.562 0 .916.03 1.3.118v3.722a10.274 10.274 0 00-1.89-.177c-2.364 0-3.545 1.477-3.545 4.016v6.882h-3.987V15.211h3.899v2.185zM94.214 29.358h3.987V15.21h-3.987v14.148zM93.887 8.75l4.155-.569.188 1.374a2.424 2.424 0 01-2.072 2.73l-1.755.24-.516-3.775zM107.052 29.358h-4.017v-10.78h-2.008V15.21h2.008v-2.155c0-3.338 1.772-5.139 5.081-5.139.915 0 1.801.147 2.45.324v3.279c-.56-.148-1.062-.236-1.595-.236-1.416 0-1.919.767-1.919 2.037v1.89h5.316v-2.155c0-3.338 1.772-5.139 5.051-5.139.915 0 1.802.147 2.451.324v3.279c-.56-.148-1.062-.236-1.594-.236-1.417 0-1.92.767-1.92 2.037v1.89h3.072v3.368h-3.072v10.78h-3.988v-10.78h-5.316v10.78z"></path>
    </g>
</svg>